<?xml version="1.0" encoding="utf-8"?>
<!-- Generator: Adobe Illustrator 27.5.0, SVG Export Plug-In . SVG Version: 6.00 Build 0)  -->
<svg version="1.1" id="_x3C_Layer_x3E_" xmlns="http://www.w3.org/2000/svg" xmlns:xlink="http://www.w3.org/1999/xlink" x="0px"
	 y="0px" viewBox="0 0 2760 1840" style="enable-background:new 0 0 2760 1840;" xml:space="preserve">
<rect style="fill:#FFFFFF;" width="2760" height="1840"/>
<g>
	<path style="fill:#EBF3FA;" d="M2363.782,1693.982c-145.364,0-1978.859,0.987-1978.859,0.753
		c-0.81-1.895-334.949-376.172,62.685-690.345c192.547-152.132-113.721-384.882,129.748-621.881
		c185.68-180.744,378.363,19.709,579.541-64.411c35.546-14.849,71.214-38.749,106.92-75.424
		c20.098-20.623,42.125-38.66,65.706-54.233c42.086-27.898,89.146-47.658,137.081-60.453c36.711-9.814,74.008-15.638,110.949-18.415
		c224.787-16.8,477.76,77.698,608.309,215.817c26.282,27.813,145.8,171.722,51.588,369.525
		c-59.484,124.887,177.481,287.385,232.77,447.671C2609.387,1546.049,2365.825,1689.256,2363.782,1693.982z"/>
	<path style="fill:#AEC3FF;" d="M981.047,1080.57c0,0,64.152-94.079-11-141.018c0,0-53.865-24.979-94.755-17.944
		c0,0,69.148,91.358,51.352,103.175c-17.794,11.816-69.71-107.356-69.71-107.356s-116.119,1.567-151.111,23.423
		c0,0,107.103,69.508,86.947,76.58c-20.155,7.073-134.963-60.08-134.963-60.08s-104.915,30.023-91.999,94.621
		s51.986,80.664,67.988,77.139c16.003-3.525,106.727-50.161,110.259-37.121c3.53,13.039-48.692,62.708-88.396,69.152
		c0,0,84.58,74.8,132.028,45.264c47.448-29.534,47.518-68.042,77.171-85.761s56.317-20.633,45.032-4.657
		c-11.284,15.975-66.243,36.366-80.609,69.934c-14.366,33.568-28.034,56.648,22.938,43.115
		c50.974-13.533,131.037-60.782,129.933-104.623C981.047,1080.57,981.047,1080.57,981.047,1080.57z"/>
	<g>
		<path style="fill:#AEC3FF;" d="M618.542,1047.92c0,0,289.182-43.314,362.505,32.65c0,0,18.883,40.911,66.808,74.767l8.854,17.789
			c0,0-56.193-47.496-74.556-48.714C982.152,1124.412,998.933,1018.398,618.542,1047.92z"/>
		<path style="fill:#AEC3FF;" d="M1047.854,1155.337c0,0,67.436,39.207,80.876,121.1l-11.202,2.264c0,0-29.329-82.97-68.998-112.298
			C1008.861,1137.076,1047.854,1155.337,1047.854,1155.337z"/>
	</g>
	<path style="fill:#D2E0FF;" d="M1369.218,1376.426c0,0,50.046-149.935-68.094-184.158c0,0-81.396-12.961-133.339,11.92
		c0,0,126.942,95.82,107.654,118.34c-19.289,22.518-133.754-116.971-133.754-116.971s-154.479,46.065-192.934,88.506
		c0,0,169.355,52.266,145.117,69.344c-24.238,17.079-202.992-29.123-202.992-29.123s-128.739,79.826-87.027,161.203
		c41.713,81.377,99.975,88.037,120.01,77.269c20.035-10.769,123.535-107.409,133.188-91.331
		c9.653,16.076-41.28,102.186-91.862,125.828c0,0,141.281,67.86,193.461,10.449c52.181-57.412,37.691-108.864,70.581-143.757
		c32.892-34.893,67.397-48.882,58.377-23.274s-74.694,73.652-81.168,123.922c-6.473,50.27-15.985,86.268,46.963,48.891
		c62.948-37.376,151.976-130.796,133.897-188.926C1369.218,1376.426,1369.218,1376.426,1369.218,1376.426z"/>
	<g>
		<path style="fill:#D2E0FF;" d="M872.739,1470.106c0,0,369.791-167.359,496.479-93.681c0,0,43.063,52.803,18.079,58.131
			C1387.297,1434.557,1369.559,1286.624,872.739,1470.106z"/>
	</g>
	<path style="opacity:0.3;fill:#AFCDFB;" d="M1498.071,754.313c0,0-30.598-197.015,47.151-341.734s177.787-202.9,194.111-160.834
		c16.324,42.066-140.673,160.199-183.021,277.292C1513.965,646.13,1498.071,754.313,1498.071,754.313z"/>
	<path style="opacity:0.3;fill:#AFCDFB;" d="M1537.132,799.641c0,0-9.77-145.12,55.894-245.377
		c65.664-100.258,142.05-136.211,151.252-104.606c9.201,31.605-112.374,107.525-150.561,189.946
		C1555.529,722.023,1537.132,799.641,1537.132,799.641z"/>
	<path style="opacity:0.3;fill:#AFCDFB;" d="M2146.562,514.137c-20.804-77.002-150.736-53.023-150.736-53.023
		s-88.3,134.675-113.965,137.867c-25.665,3.191,53.011-129.886,53.011-129.886c-49.719-4.843-176.467,56.027-176.467,56.027
		s7.921,157.19-17.739,153.968c-25.661-3.224,0.087-139.542,0.087-139.542c-48.127,14.405-93.072,70.515-93.072,70.515
		c-56.193,91.389,64.059,158.828,64.059,158.828s1.57,54.534-32.15,117.066l-0.002,0.002c0,0-7.608,11.544-15.348,31.172
		l13.117,0.008c1.074-3.518,2.258-6.917,3.567-10.181c0-0.024,0.008-0.042,0.025-0.059c0.019-0.048,0.038-0.094,0.058-0.142
		c0.899-2.026,2.192-4.91,3.805-8.423c0.002-0.004,0.004-0.009,0.006-0.014c0-0.008,0.009-0.008,0.009-0.017
		c4.012-7.844,6.725-13.637,8.438-17.82c0.007-0.014,0.011-0.026,0.014-0.039c12.024-24.621,29.344-56.698,40.886-63.423
		c0,0-1.45-2.043-2.804-6.019c0.895,1.92,1.827,3.92,2.804,6.019c22.426,48.133,134.695,56.221,197.257,43.429
		c62.562-12.792,35.305-30.453,1.641-59.108c-33.665-28.656-104.242-21.151-125.086-32.392
		c-20.844-11.241,9.637-22.449,51.337-19.216c41.7,3.234,62.525,44.949,129.887,51.407
		c67.361,6.457,118.766-120.223,118.766-120.223c-46.523,14.408-129.911-11.308-133.109-27.348
		c-3.198-16.042,120.304-14.361,139.554-19.161C2133.658,629.61,2167.364,591.138,2146.562,514.137z"/>
	<g>
		<path style="fill:#F49369;" d="M1692.696,969.617c0,0,88.354-229.708-78.482-224.487c-166.837,5.22-524.45-59.665-547.942,26.289
			c-23.494,85.954,10.143,404.413,44.227,446.179c34.083,41.765,29.918,115.854,143.891,133.254c0,0,20.011,46.571,107.012,42.427
			c87.003-4.145,214.026-63.307,214.026-63.307l147.902-13.921v-207.064L1692.696,969.617z"/>
		<path style="fill:#EA7147;" d="M1859.056,1172.295c0,0,40.016,81.775-3.479,139.201c0,0-8.705,78.305-106.146,81.785
			c0,0-60.905,39.148-133.118,0c0,0-35.385,70.147-123.555,57.368c-0.143-0.019-0.273-0.038-0.415-0.057
			c0,0,6.545,8.753,9.544,23.172c1.971,9.45,2.414,21.323-1.509,34.772c-1.735,5.96-4.329,12.223-8.035,18.721
			c0,0,0.037,1.424,0.047,3.961c0.047,20.389-1.783,112.322-38.922,108.729c-41.769-4.027-71.185-97.025-67.704-109.211
			c0,0-40.025-34.8-22.625-81.776c0,0-41.761-104.399,53.945-167.05c95.705-62.641,161.825-15.655,161.825-15.655
			s32.697-29.519,70.534-21.691c0,0,7.837-54.803,27.406-74.382c0,0-30.085-60.528-10.939-111.861c0,0-55.614-82.577-33.424-154.347
			c0,0-22.19-37.847-18.277-61.339c0,0-60.179,42.995-137.098,24.104c0,0-75.608,32.01-135.637,12.441
			c0,0-80.907,22.106-131.797-12.441c0,0-56.104,21.57-99.167-9.741c0.274,0.83,14.185,42.118-1.319,78.296
			c0,0,28.707,44.363,11.75,93.951c0,0,40.45,41.761,18.269,95.263c0,0,45.674,36.545,20.88,84.821c0,0,67.328,96.94-40.553,121.311
			c0,0-83.521,13.921-78.306-78.305c0,0-58.623-15.599-62.536-88.68c0,0-58.728-32.622-27.407-116.143
			c0,0-35.357-48.277-9.195-122.658c0,0-35.771-39.667-9.639-104.92c0,0-30.424-46.985-1.716-107.013
			c0,0-11.949-65.716,47.07-89.878c2.111-0.868,4.318-1.679,6.62-2.433c6.997-2.291,14.882-4.056,23.747-5.131
			c93.093-11.308,120.934,46.108,120.934,46.108s68.816-29.048,137.984,23.152c0,0,52.201-41.76,131.797-6.526
			c0,0,76.043-43.344,143.747-11.685c0.028,0.01,0.057,0.028,0.085,0.048c0.17,0.075,0.339,0.15,0.509,0.235
			c0,0,2.735-4.942,8.376-11.374c13.42-15.307,43.269-39.006,91.678-24.304c0,0,47.853-55.681,116.585-22.615
			c8.818,4.243,16.438,9.082,22.974,14.372c1.858,1.501,3.631,3.047,5.311,4.622c38.582,36.035,32.716,89.556,15.277,121.169
			c0,0,37.479,53.426,13.524,118.056c0,0,66.083,30.708,43.893,125.971c0,0,37.847,52.199,31.319,105.701
			C1885.643,1151.914,1859.056,1172.295,1859.056,1172.295z"/>
		<g>
			<path style="fill:#D15E3F;" d="M1108.4,860.514c-9.83,0-48.548-2.028-73.257-32.614c-4.714-0.276-18.558-1.634-34.099-8.255
				c-17.453-7.436-40.32-23.174-50.146-55.925c-0.553-1.841,0.492-3.782,2.332-4.334c1.84-0.551,3.781,0.492,4.334,2.333
				c7.241,24.138,22.711,41.438,45.98,51.425c17.563,7.537,33.232,7.865,33.389,7.866c1.057,0.017,2.053,0.513,2.699,1.348
				c25.502,32.904,70.247,31.18,70.694,31.16c1.918-0.09,3.551,1.39,3.644,3.308c0.093,1.919-1.385,3.55-3.304,3.645
				C1110.447,860.481,1109.66,860.514,1108.4,860.514z"/>
		</g>
		<g>
			<path style="fill:#D15E3F;" d="M1501.887,1473.765c-3.565-0.5-12.43-1.792-12.609-1.819
				c-39.563-7.432-56.878-49.381-57.803-50.568c-1.169-1.52-0.896-3.707,0.623-4.886s3.706-0.896,4.885,0.612
				c0.104,0.132,5.479,6.923,15.429,14.543c9.479,7.262,23.125,15.278,40.347,19.003c-0.143-0.019-0.273-0.038-0.415-0.057
				C1492.343,1450.593,1498.888,1459.346,1501.887,1473.765z"/>
		</g>
		<g>
			<path style="fill:#D15E3F;" d="M1616.315,1396.759c-0.472,0-0.952-0.097-1.411-0.301c-1.754-0.779-2.545-2.831-1.771-4.587
				c0.119-0.274,8.869-20.895-0.137-49.546c-0.576-1.833,0.443-3.787,2.276-4.363c1.837-0.574,3.788,0.444,4.364,2.276
				c9.852,31.346,0.272,53.522-0.141,54.452C1618.922,1395.987,1617.649,1396.759,1616.315,1396.759z"/>
		</g>
		<g>
			<path style="fill:#D15E3F;" d="M1492.343,1527.258c0,0,0.037,1.424,0.047,3.961c-11.214,5.96-23.427,7.517-33.084,7.517
				c-9.959,0-17.202-1.65-17.787-1.793c-1.877-0.442-3.036-2.31-2.593-4.187c0.443-1.868,2.31-3.027,4.178-2.584
				c0.019,0,0.122,0.009,0.32,0.009c3.272,0,31.02-1.009,56.954-21.644C1498.643,1514.497,1496.049,1520.76,1492.343,1527.258z"/>
		</g>
		<g>
			<path style="fill:#D15E3F;" d="M1209.678,870.223c-1.098,0-2.178-0.518-2.855-1.485c-3.883-5.555-5.267-13.963-4.11-24.994
				c0.828-7.89,2.674-14.224,2.752-14.49c0.541-1.843,2.473-2.897,4.318-2.355c1.845,0.541,2.9,2.475,2.359,4.319
				c-1.895,6.464-5.519,25.09,0.385,33.531c1.102,1.576,0.718,3.745-0.857,4.847
				C1211.062,870.019,1210.366,870.223,1209.678,870.223z"/>
		</g>
		<g>
			<path style="fill:#D15E3F;" d="M1437.959,728.789c-1.625,0-3.078-1.145-3.408-2.799c-5.678-28.384-36.912-44.512-37.227-44.671
				c-1.714-0.869-2.4-2.961-1.533-4.676c0.866-1.714,2.955-2.403,4.673-1.537c1.407,0.711,34.563,17.773,40.911,49.52
				c0.377,1.885-0.846,3.718-2.73,4.095C1438.415,728.767,1438.186,728.789,1437.959,728.789z"/>
		</g>
		<g>
			<path style="fill:#D15E3F;" d="M1254.393,712.256c-0.152,0-0.307-0.011-0.461-0.03c-1.905-0.253-3.244-1.998-2.994-3.902
				c0.104-0.782,2.654-19.234,14.309-26.534c1.627-1.021,3.776-0.527,4.796,1.102c1.021,1.629,0.527,3.776-1.102,4.797
				c-8.864,5.552-11.081,21.388-11.102,21.547C1257.604,710.984,1256.11,712.256,1254.393,712.256z"/>
		</g>
		<g>
			<path style="fill:#D15E3F;" d="M1136.069,716.608c-0.219,0-0.441-0.021-0.665-0.063c-1.887-0.366-3.121-2.191-2.755-4.078
				c4.939-25.521-6.545-49.095-6.661-49.33c-0.854-1.722-0.15-3.81,1.571-4.663c1.725-0.853,3.811-0.15,4.664,1.572
				c0.52,1.046,12.641,25.938,7.259,53.743C1139.16,715.453,1137.703,716.608,1136.069,716.608z"/>
		</g>
		<g>
			<path style="fill:#D15E3F;" d="M1002.09,1064.688c-25.688,0-51.313-13.499-52.435-14.099c-1.695-0.903-2.336-3.011-1.433-4.706
				c0.903-1.696,3.011-2.339,4.706-1.436c0.272,0.144,27.343,14.357,52.137,13.212c1.92-0.092,3.549,1.393,3.641,3.313
				c0.09,1.92-1.395,3.549-3.314,3.639C1004.292,1064.664,1003.191,1064.688,1002.09,1064.688z"/>
		</g>
		<g>
			<path style="fill:#D15E3F;" d="M1000.731,1169.8c-13.017,0-22.408-2.627-22.994-2.794c-1.848-0.529-2.917-2.456-2.387-4.305
				c0.528-1.846,2.457-2.913,4.302-2.387c0.288,0.08,20.236,5.592,41.556-0.02c1.854-0.492,3.762,0.619,4.251,2.479
				c0.489,1.859-0.621,3.763-2.48,4.251C1015.075,1169.105,1007.424,1169.8,1000.731,1169.8z"/>
		</g>
		<g>
			<path style="fill:#EA7147;" d="M1432.37,1116.11c-12.539,0.001-24.395-4.754-34.921-14.123
				c-21.571-19.195-29.111-52.816-21.801-97.227c5.469-33.231,17.423-61.224,17.543-61.502c0.475-1.104,1.752-1.612,2.857-1.138
				c1.104,0.476,1.612,1.755,1.138,2.858c-0.118,0.274-11.886,27.849-17.259,60.568c-4.905,29.863-5.345,70.271,20.413,93.191
				c14.108,12.555,30.078,16.085,47.462,10.497c35.437-11.392,69.175-59.483,77.289-95.521c0.264-1.172,1.428-1.906,2.601-1.643
				c1.172,0.265,1.907,1.427,1.644,2.6c-4.145,18.409-14.969,40.265-28.952,58.463c-15.639,20.354-33.84,34.646-51.25,40.243
				C1443.453,1115.203,1437.846,1116.11,1432.37,1116.11z"/>
		</g>
		<g>
			<path style="fill:#EA7147;" d="M1614.287,1179.641c-2.912,0-5.893-0.236-8.929-0.715c-22.743-3.571-42.386-19.375-50.031-33.138
				c-6.84-12.311,6.48-48.214,27.581-101.583c15.312-38.723,31.144-78.768,29.146-94.952c-1.768-14.324-9.944-26.209-23.026-33.463
				c-19.793-10.977-47.697-9.573-76.557,3.851c-54.446,25.324-72.191,127.213-72.364,128.238c-0.199,1.188-1.333,1.983-2.506,1.784
				c-1.186-0.199-1.983-1.321-1.784-2.505c0.044-0.262,4.538-26.495,15.872-55.568c10.531-27.012,29.307-62.106,58.948-75.893
				c30.135-14.018,59.478-15.37,80.501-3.71c14.33,7.946,23.291,20.991,25.234,36.734c2.132,17.285-13.194,56.047-29.42,97.085
				c-16.019,40.515-34.176,86.437-27.824,97.87c7.135,12.842,25.537,27.598,46.904,30.953c10.328,1.623,25.381,0.988,38.447-11.235
				c0.875-0.819,2.252-0.775,3.074,0.104c0.82,0.877,0.774,2.253-0.104,3.074
				C1638.229,1175.201,1626.892,1179.641,1614.287,1179.641z"/>
		</g>
		<g>
			<path style="fill:#EA7147;" d="M1234.38,1229.484c-0.666,0-1.323-0.305-1.749-0.88c-0.175-0.236-17.594-23.851-32.9-53.073
				c-20.725-39.564-27.928-70.069-21.412-90.666c3.949-12.479,12.965-21.133,26.798-25.723c23.829-7.908,43.849-3.479,61.197,13.536
				c14.933,14.646,25.633,36.114,35.98,56.877c9.445,18.953,18.368,36.854,29.212,46.264c16.843,14.615,24.063,7.725,36.025-3.686
				c11.003-10.497,24.695-23.562,50.896-23.562c22.639,0,42.979,12.057,58.823,34.866c11.847,17.053,16.96,33.839,17.172,34.546
				c0.346,1.15-0.308,2.361-1.458,2.707c-1.147,0.346-2.361-0.305-2.709-1.456c-0.049-0.167-5.164-16.919-16.643-33.408
				c-15.197-21.833-33.765-32.903-55.186-32.903c-24.458,0-37.453,12.396-47.894,22.357c-11.831,11.286-22.046,21.029-41.88,3.823
				c-11.498-9.977-20.608-28.256-30.254-47.607c-10.188-20.442-20.723-41.579-35.133-55.713
				c-16.072-15.764-34.647-19.856-56.781-12.513c-12.434,4.126-20.515,11.831-24.019,22.903
				c-14.771,46.671,52.972,138.914,53.658,139.839c0.715,0.965,0.513,2.328-0.454,3.043
				C1235.283,1229.346,1234.83,1229.484,1234.38,1229.484z"/>
		</g>
		<g>
			<path style="fill:#EA7147;" d="M1287.449,1282.556c-0.556,0-1.113-0.212-1.538-0.638c-0.849-0.849-0.849-2.227,0-3.076
				c7.009-7.008,14.995-26.115,9.88-44.87c-2.265-8.304-11.33-26.484-24.248-48.633c-11.735-20.114-23.845-38.701-30.136-46.249
				c-12.096-14.516-30.923-12.309-31.111-12.285c-1.194,0.151-2.28-0.69-2.434-1.88c-0.153-1.19,0.685-2.278,1.875-2.435
				c0.866-0.112,21.353-2.577,35.012,13.814c13.49,16.188,49.975,77.224,55.239,96.523c5.629,20.642-3.043,41.133-11.001,49.09
				C1288.563,1282.344,1288.006,1282.556,1287.449,1282.556z"/>
		</g>
		<g>
			<path style="fill:#EA7147;" d="M1243.08,1139.873c-0.68,0-1.35-0.318-1.773-0.914c-5.354-7.519-6.905-17.109-4.485-27.739
				c1.797-7.89,5.116-13.546,5.256-13.783c0.613-1.032,1.948-1.374,2.98-0.763c1.033,0.613,1.374,1.946,0.764,2.979l0,0
				c-0.123,0.208-12.18,21.043-0.972,36.782c0.697,0.979,0.469,2.337-0.51,3.034
				C1243.957,1139.742,1243.517,1139.873,1243.08,1139.873z"/>
		</g>
		<g>
			<path style="fill:#EA7147;" d="M1270.529,1024.734c-20.612,0-41.333-11.842-60.619-34.831
				c-17.448-20.798-27.785-43.714-27.888-43.944c-0.49-1.096,0.001-2.382,1.098-2.873c1.096-0.488,2.384,0.002,2.873,1.098
				c0.101,0.225,10.229,22.659,27.306,42.992c22.566,26.867,45.899,37.538,69.362,31.709c15.69-3.898,26.954-11.387,33.478-22.258
				c13.328-22.209,5.133-54.8-0.29-76.365l-0.845-3.373c-0.291-1.166,0.42-2.346,1.586-2.636c1.16-0.292,2.344,0.419,2.636,1.585
				l0.843,3.362c5.598,22.265,14.058,55.909-0.199,79.665c-7.14,11.898-19.306,20.054-36.16,24.241
				C1279.332,1024.194,1274.933,1024.734,1270.529,1024.734z"/>
		</g>
		<g>
			<path style="fill:#EA7147;" d="M1272.661,992.26c-0.187,0-0.375-0.023-0.562-0.074c-1.162-0.308-1.852-1.5-1.542-2.661
				c0.02-0.079,2.16-8.507-0.047-22.297c-2.21-13.818-28.056-49.223-28.316-49.58c-0.71-0.968-0.5-2.328,0.469-3.039
				c0.968-0.711,2.331-0.5,3.04,0.469c1.091,1.489,26.729,36.614,29.104,51.463c2.365,14.786,0.053,23.732-0.047,24.104
				C1274.501,991.618,1273.621,992.26,1272.661,992.26z"/>
		</g>
		<g>
			<path style="fill:#EA7147;" d="M1286.475,973.756c-4.646,0-10.1-1.168-15.163-5.166c-0.942-0.743-1.104-2.111-0.36-3.055
				c0.744-0.942,2.112-1.104,3.055-0.359c9.863,7.784,21.986,2.378,22.107,2.322c1.09-0.5,2.383-0.021,2.884,1.072
				c0.499,1.092,0.02,2.383-1.073,2.883C1297.583,971.609,1292.771,973.756,1286.475,973.756z"/>
		</g>
		<g>
			<path style="fill:#EA7147;" d="M1153.033,973.733c-0.625,0-1.246-0.268-1.677-0.786c-10.927-13.179-25.171-40.499-19.625-61.755
				c2.968-11.377,11.069-19.69,24.08-24.71c36.458-14.064,58.762,23.098,58.982,23.475c0.607,1.036,0.26,2.368-0.776,2.977
				c-1.035,0.607-2.368,0.261-2.976-0.776c-0.096-0.16-5.298-8.859-14.524-15.806c-12.186-9.173-25.354-11.129-39.141-5.811
				c-11.63,4.486-18.843,11.805-21.437,21.75c-5.095,19.532,8.806,45.868,18.766,57.88c0.767,0.924,0.639,2.295-0.286,3.063
				C1154.015,973.569,1153.521,973.733,1153.033,973.733z"/>
		</g>
		<g>
			<path style="fill:#EA7147;" d="M1331.82,1080.422c-0.856,0-1.667-0.508-2.013-1.35c-3.65-8.897-9.175-15.869-16.419-20.722
				c-5.422-3.633-9.836-4.652-9.88-4.661c-1.17-0.264-1.909-1.423-1.649-2.594s1.412-1.911,2.586-1.655
				c0.802,0.177,19.785,4.574,29.388,27.981c0.455,1.11-0.075,2.382-1.188,2.837
				C1332.376,1080.369,1332.096,1080.422,1331.82,1080.422z"/>
		</g>
		<g>
			<path style="fill:#EA7147;" d="M1325.551,1067.081c-0.817,0-1.6-0.462-1.97-1.249c-2.849-6.061-2.578-13.044,0.783-20.195
				c2.47-5.254,5.733-8.756,5.871-8.902c0.823-0.875,2.199-0.916,3.075-0.095c0.874,0.822,0.917,2.198,0.096,3.073
				c-0.152,0.163-11.436,12.468-5.89,24.268c0.512,1.088,0.045,2.382-1.042,2.894
				C1326.175,1067.015,1325.86,1067.081,1325.551,1067.081z"/>
		</g>
		<g>
			<path style="fill:#EA7147;" d="M1353.674,1245.745c-20.901,0-35.972-8.5-36.861-9.012c-1.04-0.601-1.396-1.93-0.797-2.972
				c0.601-1.04,1.932-1.397,2.97-0.798l0,0c0.293,0.169,29.679,16.667,62.447,2.783c32.811-13.903,37.542-33.591,37.587-33.788
				c0.26-1.173,1.42-1.914,2.596-1.65c1.173,0.263,1.911,1.424,1.65,2.597c-0.199,0.896-5.284,22.08-40.137,36.847
				C1372.679,1244.181,1362.639,1245.745,1353.674,1245.745z"/>
		</g>
		<g>
			<path style="fill:#EA7147;" d="M1405.123,1229.593c-1.332,0-2.689-0.036-4.07-0.111c-1.2-0.065-2.119-1.092-2.054-2.291
				c0.065-1.198,1.082-2.133,2.29-2.054c20.343,1.115,35.464-7.184,35.613-7.267c1.046-0.584,2.374-0.212,2.96,0.839
				c0.585,1.048,0.209,2.374-0.84,2.959C1438.406,1222.013,1424.592,1229.593,1405.123,1229.593z"/>
		</g>
		<g>
			<path style="fill:#EA7147;" d="M1415.92,1032.86c-1.137,0-2.094-0.885-2.167-2.035c-0.077-1.198,0.831-2.232,2.029-2.312
				c5.78-0.375,21.847-2.697,26.703-8.863c0.743-0.944,2.108-1.107,3.054-0.363c0.944,0.743,1.107,2.111,0.363,3.054
				c-7.049,8.95-28.914,10.454-29.84,10.515C1416.015,1032.858,1415.967,1032.86,1415.92,1032.86z"/>
		</g>
		<g>
			<path style="fill:#EA7147;" d="M1437.966,948.469c-0.127,0-0.256-0.012-0.384-0.034c-1.183-0.21-1.971-1.339-1.762-2.52l0,0
				c0.035-0.201,3.417-20.275-7.264-33.773c-5.943-7.513-15.199-11.685-27.512-12.398c-17.693-1.026-30.964,6.417-39.438,22.127
				c-6.458,11.969-7.598,24.483-7.609,24.607c-0.104,1.197-1.175,2.075-2.352,1.983c-1.197-0.103-2.084-1.154-1.982-2.351
				c0.046-0.542,1.204-13.428,8.049-26.184c6.423-11.969,19.194-25.938,43.584-24.525c13.618,0.789,23.944,5.523,30.691,14.066
				c11.887,15.053,8.275,36.31,8.115,37.207C1439.917,947.727,1439,948.469,1437.966,948.469z"/>
		</g>
		<g>
			<path style="fill:#EA7147;" d="M1527.213,1221.944c-0.466,0-0.934-0.148-1.33-0.455c-0.949-0.734-1.124-2.1-0.391-3.049l0,0
				c0.108-0.141,10.74-14.192,4.487-26.699c-0.535-1.069-0.106-2.37,0.959-2.911c1.066-0.54,2.369-0.123,2.919,0.939
				c0.33,0.626,8.452,15.478,31.799,13.334c1.183-0.097,2.256,0.769,2.366,1.966c0.109,1.197-0.771,2.256-1.968,2.366
				c-14.854,1.368-24.297-3.541-29.776-8.22c0.17,3.822-0.516,7.874-2.06,12.03c-2.14,5.755-5.157,9.69-5.285,9.854
				C1528.506,1221.654,1527.862,1221.944,1527.213,1221.944z"/>
		</g>
		<g>
			<path style="fill:#D15E3F;" d="M1808.311,1189.243c-18.486,0-28.967-5.958-29.7-6.389c-1.655-0.976-2.208-3.109-1.233-4.765
				c0.975-1.651,3.099-2.208,4.754-1.24c0.339,0.194,28.62,15.897,75.354-7.664c1.714-0.866,3.81-0.177,4.674,1.541
				c0.866,1.716,0.176,3.809-1.541,4.673C1839.401,1186.098,1821.742,1189.243,1808.311,1189.243z"/>
		</g>
		<g>
			<path style="fill:#D15E3F;" d="M1708.33,1183.338c-17.686,0-32.687-9.779-33.399-10.251c-1.603-1.061-2.042-3.22-0.98-4.822
				c1.06-1.603,3.218-2.042,4.819-0.983l0,0c0.177,0.115,17.839,11.579,35.788,8.595c1.896-0.313,3.688,0.966,4.003,2.861
				c0.316,1.896-0.965,3.689-2.861,4.004C1713.215,1183.156,1710.745,1183.338,1708.33,1183.338z"/>
		</g>
		<g>
			<path style="fill:#D15E3F;" d="M1749.428,1396.758c-0.739,0-1.486-0.234-2.117-0.721c-8.11-6.23-12.992-16.187-14.117-28.788
				c-0.828-9.268,0.646-16.71,0.707-17.021c0.381-1.885,2.22-3.104,4.101-2.722c1.885,0.38,3.103,2.214,2.723,4.098
				c-0.076,0.389-5.07,26.7,10.827,38.914c1.523,1.171,1.811,3.356,0.639,4.88
				C1751.504,1396.291,1750.472,1396.758,1749.428,1396.758z"/>
		</g>
		<g>
			<path style="fill:#D15E3F;" d="M1749.433,874.952c-1.294,0-2.537-0.725-3.137-1.969c-0.835-1.73-0.108-3.812,1.622-4.648
				c37.969-18.313,69.1-5.352,70.407-4.791c1.767,0.758,2.583,2.804,1.825,4.57c-0.756,1.765-2.8,2.581-4.564,1.828
				c-0.353-0.15-29.685-12.2-64.644,4.662C1750.455,874.841,1749.938,874.952,1749.433,874.952z"/>
		</g>
		<g>
			<path style="fill:#D15E3F;" d="M1683.812,665.072c-1.333,0-2.604-0.77-3.182-2.066c-10.788-24.253-37.564-28.381-37.833-28.42
				c-1.9-0.274-3.222-2.035-2.951-3.935c0.27-1.9,2.025-3.223,3.927-2.956c1.253,0.177,30.831,4.637,43.217,32.483
				c0.781,1.755-0.011,3.813-1.765,4.594C1684.765,664.975,1684.283,665.072,1683.812,665.072z"/>
		</g>
		<g>
			<path style="fill:#D15E3F;" d="M1589.595,718.533c-0.321,0.095-0.65,0.133-0.972,0.133c-1.509,0-2.896-0.99-3.338-2.509
				c-11.119-38.309-41.732-49.23-42.054-49.343c0,0,2.735-4.942,8.376-11.374c12.042,0.198,30.527,24.907,40.363,58.774
				C1592.508,716.063,1591.443,717.996,1589.595,718.533z"/>
		</g>
		<g>
			<path style="fill:#D15E3F;" d="M1477.107,870.223c-0.686,0-1.378-0.203-1.982-0.624c-0.97-0.676-23.78-16.942-27.438-52.052
				c-0.2-1.911,1.188-3.623,3.1-3.822c1.907-0.195,3.623,1.188,3.822,3.101c1.731,16.606,8.278,28.498,13.468,35.55
				c5.654,7.687,10.981,11.479,11.034,11.518c1.568,1.104,1.951,3.272,0.85,4.845
				C1479.283,869.704,1478.205,870.223,1477.107,870.223z"/>
		</g>
		<g>
			<path style="fill:#D15E3F;" d="M1104.454,1237.75c-1.889,0-3.439-1.511-3.479-3.408c-0.039-1.921,1.484-3.51,3.405-3.552l0,0
				c0.365-0.008,36.727-1.066,52.882-23.49c1.123-1.561,3.298-1.912,4.858-0.79c1.559,1.124,1.912,3.299,0.789,4.859
				c-7.584,10.525-20.116,18.426-36.244,22.845c-12.011,3.291-21.731,3.527-22.14,3.536
				C1104.502,1237.75,1104.479,1237.75,1104.454,1237.75z"/>
		</g>
		<g>
			<path style="fill:#D15E3F;" d="M1788.154,627.516c-3.547,6.14-29.236,47.701-97.423,88.642
				c-42.278,25.396-92.234,45.212-148.461,58.905c-62.264,15.165-132.439,22.823-208.962,22.823c-9.705,0-19.513-0.123-29.415-0.368
				c-69.771-1.734-130.299-11.939-179.896-30.329c-39.854-14.779-72.816-34.848-97.949-59.651
				c-40.12-39.591-47.287-78.013-48.239-84.492c2.111-0.868,4.318-1.679,6.62-2.433c0.085,0.235,0.142,0.482,0.17,0.745
				c0.812,6.978,4.178,19.22,11.506,33.801c7.328,14.58,18.606,31.499,35.233,47.824c24.474,24.011,56.605,43.467,95.499,57.84
				c48.805,18.022,108.427,28.029,177.226,29.736c87.228,2.169,166.654-5.282,236.104-22.144
				c55.501-13.477,104.777-32.961,146.463-57.906c37.063-22.182,61.141-44.665,74.807-59.622
				c14.815-16.202,20.946-27.303,21.003-27.417c0.112-0.206,0.245-0.404,0.404-0.575
				C1784.702,624.394,1786.475,625.94,1788.154,627.516z"/>
		</g>
		<g>
			<path style="fill:#D15E3F;" d="M1119.536,1334.117c-1.401,0-2.723-0.854-3.253-2.24
				c-60.353-158.195-83.692-286.156-92.645-365.646c-9.717-86.268-5.057-135.845-5.008-136.336c0.188-1.912,1.887-3.31,3.802-3.123
				c1.914,0.188,3.312,1.891,3.125,3.803c-0.049,0.485-4.638,49.534,5.029,135.165c8.923,79.035,32.16,206.281,92.199,363.655
				c0.687,1.796-0.215,3.808-2.011,4.491C1120.368,1334.043,1119.949,1334.117,1119.536,1334.117z"/>
		</g>
		<g>
			<path style="fill:#D15E3F;" d="M1447.102,1316.052c-1.252,0-2.462-0.677-3.084-1.864c-0.894-1.701-0.237-3.805,1.465-4.697
				c53.032-27.823,108.11-20.892,156.703-14.775c33.688,4.24,65.509,8.244,92.866,0.585c65.454-18.325,69.953-114.698,66.562-196.61
				c-5.928-143.159-54.877-287.052-55.37-288.488c-0.626-1.817,0.342-3.798,2.159-4.422c1.819-0.624,3.798,0.342,4.422,2.16
				c0.498,1.446,49.774,146.301,55.742,290.463c3.499,84.475-1.482,183.958-71.637,203.6c-28.713,8.039-61.209,3.948-95.614-0.382
				c-49.9-6.28-101.502-12.773-152.601,14.034C1448.199,1315.924,1447.646,1316.052,1447.102,1316.052z"/>
		</g>
		<g>
			<path style="fill:#D15E3F;" d="M1614.21,846.12c-1.823,0-3.353-1.42-3.469-3.265c-0.119-1.918,1.339-3.569,3.256-3.69
				c0.524-0.032,52.665-3.689,71.496-37.259c0.86-1.532,2.731-2.185,4.354-1.518c0.146,0.059,14.988,6.031,33.589,6.469
				c24.456,0.574,43.643-8.239,56.959-26.201c1.146-1.544,3.324-1.868,4.867-0.724c1.545,1.145,1.868,3.324,0.724,4.869
				c-14.109,19.031-34.957,29.04-60.397,29.041c-0.844,0-1.688-0.011-2.542-0.033c-15.109-0.389-27.62-4.082-33.01-5.938
				c-8.92,14.125-24.436,25.13-45.081,31.934c-16.316,5.377-29.955,6.27-30.527,6.306
				C1614.355,846.118,1614.283,846.12,1614.21,846.12z"/>
		</g>
	</g>
	<g>
		<path style="fill:#FFB27D;" d="M1864.961,1134.005c0,0-2.523-5.675-4.156-8.361c-1.635-2.687-8.614-10.559-9.804-8.776
			c-1.188,1.783-5.94,13.778-3.415,17.138c2.524,3.358-0.164,9.204,12.394,12.742L1864.961,1134.005z"/>
		<path style="fill:#6980E0;" d="M2004.515,1098.177c0,0-64.284,53.659-89.35,48.693c-19.601-3.885-49.682-14.2-49.682-14.2
			l-6.016,15.388c0,0,26.977,36.595,55.103,36.834c43.965,0.376,76.445-19.033,76.445-19.033L2004.515,1098.177z"/>
		<path style="fill:#20497A;" d="M2117.256,1664.179c0,0-1.867,30.104-7.69,30.535c-0.774,0.058-29.54,0.058-29.54,0.058
			l-36.719-0.213c0,0,0.24-8.848,10.974-10.718s28.698-9.414,35.2-23.601C2096.32,1645.316,2117.256,1664.179,2117.256,1664.179z"/>
		<path style="fill:#F99746;" d="M2119.372,1666.27c0,0-11.162,3.733-19.878,3.733c-9.721,0-18.557-2.647-18.557-2.647
			s-2.102-20.323-13.666-65.103c-6.063-23.471-14.722-53.649-27.04-91.148c-34.06-103.637-44.418-164.265-45.363-170.007
			c-0.05-0.302-0.07-0.453-0.07-0.453l0.11-0.05l104.713-45.976c0,0-12.94,142.835,3.57,197.66
			c2.313,7.663,4.294,16.593,5.993,26.267C2119.613,1578.099,2119.372,1666.27,2119.372,1666.27z"/>
		<path style="fill:#ED7D2B;" d="M2067.271,1602.253c-6.063-23.471-14.722-53.649-27.04-91.148
			c-34.06-103.637-44.418-164.265-45.363-170.007c0.01-0.171,0.021-0.332,0.04-0.503l104.713-45.976c0,0-12.94,142.835,3.57,197.66
			C2105.504,1499.942,2067.271,1602.253,2067.271,1602.253z"/>
		<path style="fill:#20497A;" d="M2035.47,1664.179c0,0-1.867,30.104-7.69,30.535c-0.775,0.058-29.54,0.058-29.54,0.058
			l-36.72-0.213c0,0,0.24-8.848,10.975-10.718c10.732-1.87,28.698-9.414,35.2-23.601
			C2014.534,1645.316,2035.47,1664.179,2035.47,1664.179z"/>
		<path style="fill:#F99746;" d="M1976.101,1297.985c0,0-1.36,92.559,14.654,206.204s10.586,161.887,10.586,161.887
			s11.002,3.565,15.442,3.927c11.313,0.922,22.912-2.651,22.912-2.651s22.922-113.688,16.35-170.57
			c-6.57-56.883,31.39-195.188,31.39-195.188L1976.101,1297.985z"/>
		<path style="fill:#FFB27D;" d="M2051.066,1074.441l-14.291,18.43l-29.998,1.631c-0.166-2.413-0.607-12.476-0.996-21.593
			c-0.021-0.538-0.041-1.077-0.066-1.602c-0.321-7.76-0.451-16.267-0.451-16.267l23.787-16.505l8.922-6.839
			c0.012,0.162,1.398,8.388,1.404,9.603C2039.48,1064.977,2051.066,1074.441,2051.066,1074.441z"/>
		<path style="fill:#8C9DF4;" d="M1969.996,1301.99c0.421,48.854,3.678,163.145,6.075,165.469
			c25.444,24.563,137.37-6.734,143.306-33.795c5.926-27.06-22.553-346.969-66.016-359.744c-9.018-2.646-57.236,12.939-57.236,12.939
			s-7.558,19.783-12.521,44.988c-1.839,9.339-7.838,75.972-11.341,120.498c-0.924,11.869-1.682,22.163-2.127,29.384
			C1969.955,1284.714,1969.914,1291.983,1969.996,1301.99z"/>
		<path style="fill:#FCA56B;" d="M2037.455,1042.158c-3.461,11.4-23.299,25.357-31.674,30.751c-0.021-0.538-0.041-1.077-0.066-1.602
			c-0.321-7.76-0.591-23.436-0.591-23.436l23.927-9.336C2034.955,1037.016,2038.885,1037.464,2037.455,1042.158z"/>
		<path style="fill:#FFB27D;" d="M1997.266,1050.656c0,0,44.435,13.861,52.64-13.943c8.206-27.804,19.468-44.74-8.555-54.766
			c-28.022-10.024-36.691-1.049-41.688,7.564C1994.667,998.126,1985.92,1046.334,1997.266,1050.656z"/>
		<path style="fill:#163560;" d="M2001.408,986.833c0,0,2.834,32.354,9.525,30.95c6.69-1.405,15.519-1.635,14.538,8.118
			c-0.979,9.754,8.241,26.302,14.39,26.265c20.692-0.13,43.479-55.79,37.814-65.859
			C2061.33,957.255,1977.784,951.392,2001.408,986.833z"/>
		<path style="fill:#6980E0;" d="M2007.945,1074.625c0.572-0.242,33.077-14.822,36.879-13.567
			c3.801,1.255,8.539,12.864,8.539,12.864l-57.234,12.94C1996.129,1086.862,2000.633,1077.703,2007.945,1074.625z"/>
		<g>
			<path style="fill:#1F4D84;" d="M1797.371,1238.289l167.115,177.475c3.229,3.432,8.793,3.489,12.365,0.127l11.367-10.694
				c3.573-3.361,3.855-8.918,0.627-12.35l-167.443-177.804c-3.229-3.431-6.035-0.73-9.608,2.63l-11.367,10.695
				C1796.854,1231.729,1794.143,1234.857,1797.371,1238.289z"/>
			<path style="fill:#ED7D2B;" d="M1888.992,1335.521l75.252,79.985c3.361,3.572,9.035,3.746,12.607,0.384l11.367-10.694
				c3.573-3.361,3.746-9.034,0.385-12.607l-75.252-79.984L1888.992,1335.521z"/>
			<path style="fill:#163560;" d="M1606.825,1223.502c54.041,57.443,144.431,60.196,201.881,6.155
				c18.806-17.697,31.754-39.28,38.756-62.342c14.402-47.354,3.741-100.9-32.607-139.531
				c-54.046-57.444-144.424-60.191-201.867-6.15c-0.751,0.716-1.508,1.431-2.235,2.163
				C1555.479,1078.059,1553.494,1166.815,1606.825,1223.502z M1619.077,1028.105c19.831-18.651,43.846-30.086,68.813-34.406
				c42.838-7.419,88.465,6.149,120.488,40.181c50.687,53.874,48.1,138.626-5.769,189.306
				c-34.037,32.023-80.414,42.779-122.729,32.768c-24.646-5.845-47.915-18.716-66.572-38.547
				C1562.629,1163.538,1565.215,1078.785,1619.077,1028.105z"/>
			<path style="fill:#B3CFF9;" d="M1613.309,1217.404c18.652,19.833,41.924,32.709,66.572,38.543
				c42.313,10.014,88.688-0.74,122.729-32.767c24.809-23.337,38.743-53.903,41.592-85.354c3.355-36.836-8.481-74.879-35.83-103.946
				c-32.014-34.039-77.643-47.604-120.482-40.179c-7.385,1.278-14.687,3.174-21.838,5.698
				c-16.971,6.023-33.013,15.569-46.973,28.704C1565.213,1078.79,1562.63,1163.533,1613.309,1217.404z"/>
		</g>
		<path style="fill:#6980E0;" d="M1969.996,1301.99c106.197-71.916,97.542-170.827,97.542-170.827
			c-41.435,23.376-82.507,78.709-95.274,121.183c-0.924,11.869-1.682,22.163-2.127,29.384
			C1969.955,1284.714,1969.914,1291.983,1969.996,1301.99z"/>
		<g>
			<path style="fill:#FFB27D;" d="M1876.399,1265.591c-7.08-1.633-11.834-6.985-12.822-7.92c0,0-3.021,0.205,0.495,6.646
				c0.293,0.539,0.946,1.924,1.438,2.902c0.202,0.4-0.078,0.865-0.525,0.898c-4.086,0.312-8.191-1.306-16.063,0.336
				c-1.086,0.226-1.402,2.827-1.359,3.936c0.07,1.876-0.065,3.98,2.114,6.857c1.269,1.673,4.807,3.473,12.688,6.645
				c3.001,1.207,11.584,0.297,19.63-2.467l6.427-2.977l-1.993-11.945l-1.614,0.339
				C1882.249,1269.378,1879.073,1266.247,1876.399,1265.591z"/>
			<path style="fill:#8C9DF4;" d="M2036.381,1086.862c0,0,90.212,17.177-26.54,147.812
				c-18.673,20.894-119.555,48.098-119.555,48.098s-10.231-8.705-5.073-15.756c0,0,69.46-50.438,84.742-58.458
				c6.876-3.607,26.684-80.507,37.893-99.026C2019.055,1091.011,2036.381,1086.862,2036.381,1086.862z"/>
		</g>
		<path style="fill:#FFB27D;" d="M1862.516,1135.59c0,0-2.951-5.64-3.527-8.613c-0.576-2.975-4.291-11.65-5.821-13.178
			c-0.614-0.611-2.634,0.18-2.872,2.809c-0.104,1.145,0.458,3.225,1.449,5.705c1.614,4.037,1.348,9.512,1.908,11.338
			C1855.051,1138.196,1862.516,1135.59,1862.516,1135.59z"/>
	</g>
	<g>
		<g>
			<path style="fill:#FFB27D;" d="M1324.031,800.163c1.55,1.776-44.745,42.131-42.256,37.833c0.87-1.502,1.849-3.125,2.854-4.796
				c0.188-0.311,0.372-0.625,0.564-0.94c0.518-0.858,1.03-1.728,1.543-2.592c4.547-7.762,3.38-11.405,2.303-22.958
				c-0.877-9.389-14.607-52.453-14.607-52.453l19.932-3.432c0,0,6.001,34.29,12.613,39.57c3.536,2.815,7.495,2.851,10.894,4.938
				c0.24,0.145,0.477,0.294,0.707,0.446C1320.509,797.06,1322.477,798.382,1324.031,800.163z"/>
			<path style="fill:#233862;" d="M1324.031,800.163c1.55,1.776,1.747,3.762,0.979,5.881c-0.001,0.009-0.006,0.022-0.015,0.029
				c-1.738,3.917-6.308,8.273-11.568,12.631c-0.688,0.57-1.296,1.095-1.836,1.586c-0.141,0.124-0.283,0.247-0.416,0.372
				c-0.109,0.097-0.215,0.197-0.319,0.289c-5.078,4.681-3.167,5.752-12.288,15.249c-10.399,10.821-17.56,11.016-19.598,10.03
				c-1.452-0.709,0.807-4.898,3.876-10.06c0.572-0.962,1.173-1.957,1.782-2.971c2.024-0.742,11.429-4.562,18.539-13.66
				c6.033-7.701,14.957-23.676,15.409-23.76C1320.509,797.06,1322.477,798.382,1324.031,800.163z"/>
			<path style="fill:#FFB27D;" d="M1163.324,787.715c-1.231,6.152-56.71-9.181-52.104-9.783c1.91-0.25,4.034-0.483,6.201-0.732
				c0.929-0.104,1.862-0.219,2.796-0.334c8.344-1.047,14.454-6.431,22.032-10.852c7.18-4.189,17.893-21.254,17.893-21.254
				l19.122,1.515c0,0-10.034,15.241-13.916,21.868c-2.282,3.897-2.161,9.052-1.877,13.031
				C1163.618,783.337,1163.761,785.549,1163.324,787.715z"/>
			<path style="fill:#233862;" d="M1143.526,790.447c-9.797-2.395-7.468,0.452-21.412-1.092
				c-13.943-1.544-18.168-6.743-18.593-8.816c-0.21-1.01,1.772-1.66,4.825-2.184c2.509-0.429,5.74-0.773,9.074-1.156l0.068,0.143
				c0,0,8.362,5.929,19.969,6.207c9.46,0.23,19.479-2.48,26.013-2.375c0.147,2.163,0.29,4.375-0.146,6.541
				C1162.093,793.867,1153.324,792.841,1143.526,790.447z"/>
			<path style="fill:#233862;" d="M1236.605,665.441l17.877,48.102l23.338,62.808c0,0,6.334,0.611,12.398-1.133
				c5.584-1.614,11.991-5.836,11.991-5.836s-6.48-67.439-18.569-106.15c-3.098-9.938-6.57-17.975-10.401-22.499
				C1254.499,618.586,1236.605,665.441,1236.605,665.441z"/>
			<path style="fill:#2B478B;" d="M1254.781,589.048c10.176-3.282,36.727-0.05,65.523,5.161c7.956,1.44,15.978-2.192,20.17-9.107
				l0,0l72.474-5.66c0,0,28.871,57.389,7.341,86.541c-12.58,17.031-54.975,14.591-67.817,11.957
				c-35.307-7.24-75.446-28.213-80.65-29.255c-8.521-1.703-11.928,15.336-20.448,33.227c-8.52,17.891-80.084,79.233-80.084,79.233
				s-10.998,0.108-15.542-1.596c-4.887-1.832-6.674-4.212-6.674-4.212S1228.371,597.568,1254.781,589.048z"/>
			<path style="fill:#8C9DF4;" d="M1431.164,629.336c-0.312,41.645-11.058,60.777-11.058,60.777
				c-93.307-12.517-113.951-98.326-113.951-98.326c19.304-0.363,27.306-12.344,27.306-12.344l78.538-50.107l4.772-3.047l4.911-3.131
				c0,0,1.47,7.936,3.261,20.731c2.359,17.031,5.298,42.663,6.049,69.593C1431.143,618.739,1431.206,624.037,1431.164,629.336z"/>
			<path style="fill:#2B478B;" d="M1340.9,485.294c25.808,14.21,78.163,43.668,78.436,43.478c0,0,19.243,7.252,30.16,0.001
				c18.196-12.084,27.954-44.607-5.322-72.595c-16.596-13.958-28.387-17.356-30.179-39.645
				c-0.976-12.14-17.633-52.317-45.294-48.261c-2.214,0.325-4.447,0.469-6.685,0.405c-3.214-0.092-8.461,0.398-13.843,3.602
				C1332.631,381.533,1302.21,479.793,1340.9,485.294z"/>
			<path style="fill:#FFB27D;" d="M1362.531,473.198c-0.113,0.073,12.698,4.447,21.265,0.654
				c8.059-3.563,14.164-16.822,14.044-16.829c-3.666-0.169-7.849-6.031-10.79-24.405l-1.562,0.56l-26.248,9.445
				c0,0,1.902,8.422,3.133,16.441C1363.408,465.797,1363.965,472.246,1362.531,473.198z"/>
			<path style="fill:#ED975D;" d="M1359.24,442.623c0,0,1.048,4.544,2.576,13.033c15.077-2.714,21.549-14.327,23.672-22.479
				L1359.24,442.623z"/>
			<path style="fill:#FFB27D;" d="M1355.332,450.982c0,0,35.912-4.82,32.566-27.139c-3.347-22.318-0.965-37.97-24.035-35.837
				c-23.071,2.134-26.239,11.317-26.934,19.038C1336.234,414.766,1345.904,451.661,1355.332,450.982z"/>
			<path style="fill:#2B478B;" d="M1338.239,394.811c0,0,22.989,19.812,38.625,21.409c15.638,1.597,21.558-3.422,21.558-3.422
				s-9.217-7.652-14.764-20.001c-1.634-3.639-5.09-6.14-9.064-6.483C1363.429,385.349,1342.262,384.909,1338.239,394.811z"/>
			<path style="fill:#2B478B;" d="M1352.609,393.037c0,0-7.69,7.436-10.113,12.952c-2.337,5.322-3.038,18.052-1.177,23.108
				c0,0-11.982-23.3-5.199-34.62C1343.315,382.473,1352.609,393.037,1352.609,393.037z"/>
			<path style="fill:#8C9DF4;" d="M1332.291,526.1c1.086,72.694,0.299,57.505,8.25,64.402c1.916,1.661,7.302,2.651,14.393,3.119
				c22.29,1.479,61.475-2.192,62.965-6.313c5.142-14.254,1.512-18.682,5.802-40.504c0.446-2.321,1.001-4.833,1.649-7.568
				c3.576-14.989,7.059-20.088-5.632-44.167c-11.507-21.811-23.237-39.663-24.312-39.024c-30.359,18.022-33.031,3.023-33.031,3.023
				S1331.76,490.642,1332.291,526.1z"/>
			<path style="fill:#2B478B;" d="M1254.482,713.544l23.338,62.808c0,0,6.334,0.611,12.398-1.133
				c5.584-1.614,11.991-5.836,11.991-5.836s-6.48-67.439-18.569-106.15L1254.482,713.544z"/>
			<path style="fill:#8C9DF4;" d="M1362.373,459.064c0,0-27.541,4.032-31.474,19.226c-3.493,13.497-15.998,89.982-15.998,89.982
				s5.629,13.229,12.966,5.893c7.336-7.336,23.088-76.384,23.088-76.384L1362.373,459.064z"/>
			<path style="fill:#FFB27D;" d="M1353.868,582.618c0,0-4.607,5.942-6.118,6.652c-1.51,0.71-2.486,0.532-2.486,0.532l3.105-5.588
				L1353.868,582.618z"/>
			<path style="fill:#FFB27D;" d="M1354.934,576.497l-13.397,6.505c0,0,0.569,0.933,2.219,0.858c1.65-0.075,5.812-1.598,5.812-1.598
				L1354.934,576.497z"/>
			<path style="fill:#6980E0;" d="M1430.992,613.483c-20.721-1.641-72.994-19.259-64.059-31.691
				c4.134-5.755,31.822-8.313,46.116-26.544c3.853-4.914-0.483-18.318-1.051-25.911c-0.236-3.271-0.075-5.642,1.051-6.178
				c1.04-0.493,2.359,0.88,3.722,3.131c3.582,5.878,7.485,17.762,7.485,17.762l0.687-0.161
				C1427.303,560.922,1430.241,586.554,1430.992,613.483z"/>
			<path style="fill:#FFB27D;" d="M1380.473,579.441c0,0-21.991-4.896-25.539-2.944c-3.549,1.951-12.221,9.059-13.307,11.532
				c-1.086,2.473,7.9-1.878,10.822-2.661c1.894-0.508,6.875,1.224,9.342,2.046c10.378,3.46,16.738,1.68,16.738,1.68
				L1380.473,579.441z"/>
			<path style="fill:#8C9DF4;" d="M1395.406,456.045c0,0,29.322,1.952,39.545,16.209c14.389,20.069,29.834,105.891,13.475,117.297
				c-18.423,12.846-70.748,3.071-70.748,3.071s-4.902-14.551,0.852-15.1c15.59-1.485,46.051-7.971,45.766-14.775
				c-0.435-10.346-19.638-44.675-19.638-51.49C1404.657,504.44,1395.406,456.045,1395.406,456.045z"/>
		</g>
		<g>
			<polygon style="fill:#F99746;" points="1240.535,591.79 1380.473,591.79 1380.473,594.879 1241.778,594.879 			"/>
			<polygon style="fill:#F99746;" points="1347.75,594.879 1241.778,594.879 1209.899,515.606 1315.709,515.606 			"/>
			<path style="fill:#FFFFFF;" d="M1268.529,555.242c-0.8-2.786,0.813-5.045,3.599-5.045s5.692,2.259,6.492,5.045
				c0.799,2.787-0.812,5.046-3.599,5.046C1272.235,560.288,1269.329,558.029,1268.529,555.242z"/>
		</g>
	</g>
	<g>
		<g>
			<path style="fill:#D2E0FF;" d="M1192.488,1194.053v236.535c0,14.518-11.882,26.399-26.399,26.399h-140.595
				c-14.516,0-26.397-11.882-26.397-26.399v-236.535c0-14.518,11.882-26.399,26.397-26.399h140.595
				C1180.606,1167.653,1192.488,1179.535,1192.488,1194.053z"/>
			<path style="opacity:0.4;fill:#8C9DF4;" d="M1130.202,1256.606c-14.86-5.58-22.375-22.145-16.797-36.996
				c5.576-14.854,22.136-22.378,36.996-16.798c14.853,5.577,22.375,22.145,16.798,36.996
				C1161.622,1254.662,1145.055,1262.184,1130.202,1256.606z"/>
			<path style="opacity:0.4;fill:#8C9DF4;" d="M1033.109,1251.966c-12.296-10.038-14.119-28.136-4.087-40.426
				c10.033-12.289,28.13-14.125,40.426-4.087c12.29,10.033,14.12,28.136,4.088,40.426
				C1063.503,1260.168,1045.4,1261.998,1033.109,1251.966z"/>
			<path style="opacity:0.4;fill:#8C9DF4;" d="M1130.202,1431.87c-14.86-5.579-22.375-22.144-16.797-36.996
				c5.576-14.854,22.136-22.378,36.996-16.799c14.853,5.578,22.375,22.146,16.798,36.997
				C1161.622,1429.926,1145.055,1437.447,1130.202,1431.87z"/>
			<path style="opacity:0.4;fill:#8C9DF4;" d="M1033.11,1427.229c-11.874-9.691-13.983-26.899-5.067-39.138
				c0.305-0.438,0.637-0.863,0.981-1.288c10.029-12.291,28.126-14.122,40.425-4.086c12.291,10.03,14.122,28.133,4.087,40.425
				c-0.346,0.418-0.69,0.822-1.055,1.221C1062.278,1435.546,1044.985,1436.92,1033.11,1427.229z"/>
			<path style="opacity:0.4;fill:#8C9DF4;" d="M1152.606,1346.566c-14.344,6.799-31.473,0.679-38.268-13.658
				c-6.794-14.336-0.687-31.47,13.658-38.267c14.337-6.795,31.473-0.679,38.269,13.657
				C1173.06,1322.636,1166.942,1339.771,1152.606,1346.566z"/>
			<path style="opacity:0.4;fill:#8C9DF4;" d="M1024.605,1309.928c5.898-14.736,22.62-21.893,37.35-15.998
				c14.729,5.896,21.896,22.613,15.997,37.35c-5.895,14.729-22.62,21.894-37.349,15.998
				C1025.874,1341.383,1018.711,1324.657,1024.605,1309.928z"/>
			<path style="fill:#8C9DF4;" d="M1118.706,1229.709L1118.706,1229.709c0-1.771,1.448-3.221,3.22-3.221h36.751
				c1.771,0,3.221,1.449,3.221,3.221l0,0c0,1.771-1.449,3.221-3.221,3.221h-36.751
				C1120.154,1232.93,1118.706,1231.48,1118.706,1229.709z"/>
			<path style="fill:#8C9DF4;" d="M1125.03,1305.334L1125.03,1305.334c1.253-1.252,3.303-1.252,4.555,0l25.987,25.987
				c1.252,1.252,1.252,3.302,0,4.554l0,0c-1.253,1.252-3.303,1.252-4.555,0l-25.987-25.986
				C1123.778,1308.637,1123.778,1306.587,1125.03,1305.334z"/>
			<path style="fill:#8C9DF4;" d="M1122.811,1392.306L1122.811,1392.306c1.039-1.435,3.063-1.758,4.497-0.72l29.765,21.557
				c1.436,1.038,1.76,3.063,0.72,4.496l0,0c-1.038,1.436-3.063,1.759-4.496,0.72l-29.766-21.556
				C1122.096,1395.764,1121.771,1393.74,1122.811,1392.306z"/>
			<path style="fill:#8C9DF4;" d="M1032.576,1415.771L1032.576,1415.771c-0.886-1.534-0.355-3.514,1.179-4.398l31.826-18.376
				c1.534-0.886,3.514-0.355,4.399,1.179l0,0c0.886,1.533,0.355,3.514-1.179,4.398l-31.827,18.376
				C1035.441,1417.835,1033.462,1417.304,1032.576,1415.771z"/>
			<path style="fill:#8C9DF4;" d="M1045.688,1341.463L1045.688,1341.463c-1.71-0.459-2.735-2.233-2.277-3.943l9.513-35.499
				c0.458-1.711,2.233-2.735,3.944-2.277l0,0c1.71,0.458,2.734,2.233,2.276,3.944l-9.512,35.498
				C1049.175,1340.896,1047.4,1341.922,1045.688,1341.463z"/>
			<path style="fill:#8C9DF4;" d="M1062.076,1248.41L1062.076,1248.41c-1.533,0.886-3.514,0.355-4.399-1.178l-18.375-31.828
				c-0.886-1.533-0.355-3.513,1.179-4.398l0,0c1.533-0.886,3.513-0.355,4.398,1.179l18.376,31.827
				C1064.14,1245.545,1063.609,1247.525,1062.076,1248.41z"/>
		</g>
		<path style="opacity:0.5;fill:#8C9DF4;" d="M1192.488,1262.652v167.936c0,14.518-11.882,26.399-26.399,26.399h-131.595v-167.937
			c0-14.517,11.882-26.398,26.398-26.398H1192.488z"/>
		<g>
			<path style="fill:#D2E0FF;" d="M1043.672,1530v-236.544c0-14.517,11.877-26.395,26.395-26.395h140.598
				c14.518,0,26.395,11.878,26.395,26.395V1530c0,14.518-11.877,26.395-26.395,26.395h-140.598
				C1055.549,1556.395,1043.672,1544.518,1043.672,1530z"/>
			<path style="opacity:0.4;fill:#8C9DF4;" d="M1174.777,1356.015c-14.86-5.579-22.375-22.144-16.799-36.997
				c5.577-14.852,22.137-22.377,36.997-16.797c14.854,5.576,22.375,22.144,16.798,36.996
				C1206.197,1354.069,1189.63,1361.592,1174.777,1356.015z"/>
			<path style="opacity:0.4;fill:#8C9DF4;" d="M1077.685,1351.374c-12.296-10.038-14.12-28.136-4.088-40.426
				c10.034-12.29,28.13-14.126,40.427-4.087c12.289,10.032,14.119,28.135,4.087,40.425
				C1108.077,1359.577,1089.975,1361.407,1077.685,1351.374z"/>
			<path style="opacity:0.4;fill:#8C9DF4;" d="M1174.777,1531.279c-14.86-5.58-22.375-22.145-16.799-36.997
				c5.577-14.853,22.137-22.378,36.997-16.798c14.854,5.576,22.375,22.144,16.798,36.996
				C1206.197,1529.333,1189.63,1536.855,1174.777,1531.279z"/>
			<path style="opacity:0.4;fill:#8C9DF4;" d="M1077.685,1526.636c-11.874-9.691-13.983-26.898-5.067-39.138
				c0.305-0.438,0.637-0.861,0.981-1.286c10.03-12.292,28.127-14.123,40.425-4.087c12.292,10.03,14.123,28.133,4.086,40.425
				c-0.345,0.418-0.689,0.823-1.055,1.221C1106.853,1534.954,1089.559,1536.327,1077.685,1526.636z"/>
			<path style="opacity:0.4;fill:#8C9DF4;" d="M1197.181,1445.975c-14.344,6.798-31.473,0.679-38.267-13.658
				c-6.795-14.337-0.687-31.469,13.658-38.268c14.336-6.794,31.473-0.678,38.267,13.658
				C1217.635,1422.044,1211.518,1439.18,1197.181,1445.975z"/>
			<path style="opacity:0.4;fill:#8C9DF4;" d="M1069.18,1409.336c5.898-14.737,22.621-21.894,37.351-15.998
				c14.729,5.896,21.896,22.613,15.997,37.351c-5.896,14.729-22.621,21.893-37.35,15.997S1063.285,1424.064,1069.18,1409.336z"/>
			<path style="fill:#8C9DF4;" d="M1163.279,1329.117L1163.279,1329.117c0-1.771,1.449-3.221,3.222-3.221h36.75
				c1.771,0,3.222,1.449,3.222,3.221l0,0c0,1.771-1.45,3.22-3.222,3.22h-36.75
				C1164.729,1332.337,1163.279,1330.888,1163.279,1329.117z"/>
			<path style="fill:#8C9DF4;" d="M1169.605,1404.742L1169.605,1404.742c1.253-1.253,3.301-1.253,4.555,0l25.986,25.986
				c1.252,1.252,1.252,3.303,0,4.555l0,0c-1.253,1.252-3.302,1.252-4.555,0l-25.986-25.987
				C1168.354,1408.044,1168.354,1405.994,1169.605,1404.742z"/>
			<path style="fill:#8C9DF4;" d="M1167.385,1491.714L1167.385,1491.714c1.039-1.435,3.063-1.758,4.498-0.719l29.765,21.555
				c1.435,1.039,1.759,3.063,0.719,4.498l0,0c-1.038,1.434-3.062,1.758-4.497,0.719l-29.765-21.556
				C1166.67,1495.173,1166.346,1493.148,1167.385,1491.714z"/>
			<path style="fill:#8C9DF4;" d="M1077.15,1515.179L1077.15,1515.179c-0.885-1.534-0.355-3.514,1.179-4.399l31.827-18.375
				c1.534-0.886,3.514-0.355,4.398,1.178l0,0c0.886,1.535,0.355,3.514-1.179,4.4l-31.826,18.375
				C1080.016,1517.242,1078.036,1516.713,1077.15,1515.179z"/>
			<path style="fill:#8C9DF4;" d="M1090.263,1440.871L1090.263,1440.871c-1.71-0.458-2.734-2.232-2.276-3.944l9.512-35.498
				c0.459-1.711,2.233-2.735,3.944-2.277l0,0c1.71,0.459,2.735,2.233,2.277,3.944l-9.513,35.499
				C1093.749,1440.305,1091.975,1441.329,1090.263,1440.871z"/>
			<path style="fill:#8C9DF4;" d="M1106.65,1347.818L1106.65,1347.818c-1.533,0.887-3.513,0.355-4.398-1.178l-18.376-31.828
				c-0.885-1.533-0.354-3.514,1.179-4.398l0,0c1.533-0.886,3.514-0.355,4.399,1.179l18.375,31.827
				C1108.715,1344.954,1108.185,1346.933,1106.65,1347.818z"/>
		</g>
		<g>
			<rect x="995.604" y="1371.637" style="fill:#ED7D2B;" width="214.586" height="321.872"/>
			<rect x="1025.494" y="1371.636" style="fill:#F99746;" width="214.587" height="321.873"/>
			<polygon style="fill:#D36C26;" points="1025.494,1390.22 1015.211,1406.213 995.604,1406.213 995.604,1371.637 
				1025.493,1371.637 			"/>
			<polygon style="fill:#F99746;" points="1007.163,1396.865 977.273,1396.865 995.604,1371.637 1025.493,1371.637 			"/>
			<polygon style="opacity:0.3;fill:#ED7D2B;" points="1136.17,1693.509 1025.494,1693.509 1025.494,1386.229 1136.17,1396.886 			
				"/>
			<polygon style="fill:#D36C26;" points="1240.081,1396.865 1222.67,1406.213 1035.839,1406.213 1025.494,1390.22 
				1025.494,1371.636 			"/>
			<polygon style="fill:#F99746;" points="1255.237,1396.865 1040.651,1396.865 1025.493,1371.637 1240.079,1371.637 			"/>
		</g>
	</g>
	<g>
		<g>
			<path style="fill:#ED985F;" d="M725.102,1274.56c-5.922-19.016-31.673-22.581-42.036-5.571c-1.862,3.059-3.042,6.574-3.144,10.6
				c-0.571,22.295,43.399,108.592,49.235,116.226c10.626,13.897,74.761,47.317,74.761,47.317l13.629-1.986
				c0,0-7.705-4.843-15.684-12.807c-16.479-16.451-40.5-43.197-44.901-46.901C749.408,1375.079,736.345,1310.662,725.102,1274.56z"
				/>
			<g>
				<path style="fill:#D2E0FF;" d="M1111.395,1693.509H814.141c-18.242,0-33.168-14.926-33.168-33.169v-176.682
					c0-18.243,14.926-33.169,33.168-33.169h297.254c18.242,0,33.168,14.926,33.168,33.169v176.682
					C1144.563,1678.583,1129.637,1693.509,1111.395,1693.509z"/>
				<path style="opacity:0.4;fill:#8C9DF4;" d="M892.756,1528.755c-7.014,18.675-27.828,28.118-46.492,21.109
					c-18.665-7.008-28.121-27.817-21.11-46.491c7.009-18.666,27.829-28.118,46.493-21.109
					C890.31,1489.271,899.764,1510.091,892.756,1528.755z"/>
				<path style="opacity:0.4;fill:#8C9DF4;" d="M886.923,1650.767c-12.614,15.452-35.357,17.744-50.801,5.137
					c-15.444-12.608-17.751-35.349-5.136-50.802c12.607-15.444,35.357-17.744,50.801-5.135
					C897.231,1612.574,899.531,1635.322,886.923,1650.767z"/>
				<path style="opacity:0.4;fill:#8C9DF4;" d="M1113.001,1528.755c-7.012,18.675-27.828,28.118-46.493,21.109
					c-18.664-7.008-28.121-27.817-21.108-46.491c7.009-18.666,27.827-28.118,46.492-21.109
					C1110.556,1489.271,1120.009,1510.091,1113.001,1528.755z"/>
				<path style="opacity:0.4;fill:#8C9DF4;" d="M1107.166,1650.766c-12.178,14.922-33.802,17.572-49.182,6.369
					c-0.551-0.384-1.084-0.801-1.617-1.233c-15.446-12.604-17.747-35.345-5.135-50.8c12.604-15.446,35.353-17.748,50.799-5.135
					c0.525,0.434,1.034,0.866,1.534,1.325C1117.62,1614.113,1119.346,1635.845,1107.166,1650.766z"/>
				<path style="opacity:0.4;fill:#8C9DF4;" d="M1005.803,1500.601c8.543,18.026,0.854,39.552-17.163,48.089
					c-18.017,8.539-39.546,0.863-48.089-17.162c-8.539-18.017-0.853-39.552,17.164-48.09
					C975.731,1474.899,997.265,1482.586,1005.803,1500.601z"/>
				<path style="opacity:0.4;fill:#8C9DF4;" d="M959.762,1661.453c-18.52-7.412-27.513-28.426-20.104-46.935
					c7.408-18.51,28.415-27.516,46.935-20.104c18.51,7.408,27.513,28.426,20.104,46.935
					C999.289,1659.859,978.271,1668.862,959.762,1661.453z"/>
				<path style="fill:#8C9DF4;" d="M858.954,1543.203L858.954,1543.203c-2.226,0-4.048-1.821-4.048-4.047v-46.184
					c0-2.225,1.822-4.046,4.048-4.046l0,0c2.226,0,4.046,1.821,4.046,4.046v46.184C863,1541.382,861.18,1543.203,858.954,1543.203z"
					/>
				<path style="fill:#8C9DF4;" d="M953.988,1535.255L953.988,1535.255c-1.573-1.574-1.573-4.149,0-5.724l32.656-32.656
					c1.574-1.574,4.149-1.574,5.723,0l0,0c1.574,1.574,1.574,4.149,0,5.723l-32.656,32.657
					C958.138,1536.828,955.563,1536.828,953.988,1535.255z"/>
				<path style="fill:#8C9DF4;" d="M1063.282,1538.044L1063.282,1538.044c-1.804-1.305-2.21-3.848-0.905-5.651l27.089-37.404
					c1.306-1.803,3.849-2.209,5.651-0.904l0,0c1.803,1.306,2.209,3.85,0.904,5.651l-27.088,37.405
					C1067.628,1538.943,1065.084,1539.351,1063.282,1538.044z"/>
				<path style="fill:#8C9DF4;" d="M1092.769,1651.438L1092.769,1651.438c-1.927,1.113-4.416,0.447-5.528-1.48l-23.092-39.996
					c-1.111-1.928-0.446-4.414,1.482-5.527l0,0c1.927-1.113,4.414-0.447,5.527,1.481l23.092,39.995
					C1095.362,1647.838,1094.695,1650.325,1092.769,1651.438z"/>
				<path style="fill:#8C9DF4;" d="M999.39,1634.959L999.39,1634.959c-0.575,2.15-2.806,3.438-4.956,2.862l-44.609-11.953
					c-2.149-0.576-3.438-2.807-2.861-4.957l0,0c0.576-2.149,2.806-3.437,4.957-2.861l44.609,11.953
					C998.678,1630.58,999.967,1632.81,999.39,1634.959z"/>
				<path style="fill:#8C9DF4;" d="M882.456,1614.366L882.456,1614.366c1.112,1.929,0.445,4.415-1.482,5.528l-39.996,23.092
					c-1.928,1.113-4.415,0.446-5.527-1.481l0,0c-1.113-1.928-0.447-4.415,1.481-5.528l39.994-23.092
					C878.855,1611.772,881.343,1612.439,882.456,1614.366z"/>
			</g>
			<path style="fill:#2B478B;" d="M743.716,1165.482c0.356-1.432-31.111,14.221-32.707,15.99
				c-14.758,16.37-10.549,37.732-2.104,37.938c5.416,0.132,4.366,9.136,4.366,9.136l60.333-25.522
				C773.603,1203.023,766.34,1160.663,743.716,1165.482z"/>
			<path style="fill:#2B478B;" d="M751.144,1168.786c0,0,2.156-23.503-24.103-23.503c0,0,7.956,2.158,12.073,6.475
				c0,0-16.749-9.833-34.977,5.277c-18.228,15.108-6.901,53.002-12.444,60.197c-5.543,7.195-27.128,8.634-24.489,31.897
				c2.638,23.264,68.505,52.401,64.275,71.648c0,0,25.812-37.943,7.354-55.26c0,0,8.997,8.474,9.913,18.547
				c0,0,2.44-19.667-10.073-25.956c-11.074-5.567-20.146-25.925-19.188-29.563C720.446,1224.907,751.144,1168.786,751.144,1168.786z
				"/>
			<path style="fill:#2B478B;" d="M677.383,1676.99l-13.057-1.919c0,0-43.899-34.886-50.437-99.981
				c-0.667-6.624-5.685-29.917-10.418-37.591c-4.669-7.56-12.653-21.854-21.442-37.894c-15.828-28.886-34.258-63.431-40.579-74.434
				c-20.141-35.069-10.433-58.649-10.433-58.649s56.188-5.554,71.585-19.023l5.544,8.548c0,0,12.174,53.896,11.6,54.145
				c0.6,1.832,1.209,3.698,1.827,5.598c9.607,29.653,20.658,66.717,26.684,96.902c3.387,16.984,4.288,50.638,5.209,57.199
				C658.905,1608.57,677.383,1676.99,677.383,1676.99z"/>
			<path style="fill:#2C4977;" d="M704.769,1693.509h-54.471c0,0-1.305-8.303,1.54-14.601c2.726-6.043,6.612-6.235,0.496-15.709
				c3.462,3.564,14.588,5.038,22.463,3.979c0.965,1.563,6.221,12.059,9.444,14.374
				C687.801,1684.11,703.673,1683.199,704.769,1693.509z"/>
			<path style="fill:#233862;" d="M582.029,1499.605c-15.828-28.886-34.258-63.431-40.579-74.434
				c-20.141-35.069-10.433-58.649-10.433-58.649s27.235-8.987,42.633-22.456C573.65,1344.066,586.232,1453.706,582.029,1499.605z"/>
			<path style="fill:#2B478B;" d="M583.371,1370.575l0.184-10.188c-20.297,2.561-69.986-24.255-69.986-24.255
				s-21.235,14.124-24.142,54.459c-1.419,19.687-10.397,102.945-11.388,127.808c-0.363,9.01-9.228,31.126-12.383,36.992
				c-30.973,57.626-14.775,135.929-14.775,135.929l7.192-1.828c0,0,26.19-81.173,43.306-116.286
				c2.905-5.954,20.974-34.359,27.662-50.336c12.644-30.203,24.92-70.058,33.675-100.918
				C563.334,1422.064,583.371,1370.575,583.371,1370.575z"/>
			<path style="fill:#FFB27D;" d="M702.152,1302.582c-33.182-7.616-11.983-54.243-10.06-53.423
				c14.22-5.406,10.665-1.075,21.887-17.022c1.06-1.505,3.062-6.695,3.062-6.695l20.38,17.868c0,0-3.468,7.847-8.675,13.757
				c-7.069,8.023-13.348,9.405-12.93,11.207C717.457,1269.563,711.004,1304.615,702.152,1302.582z"/>
			<path style="fill:#6980E0;" d="M723.103,1267.945c0,0,5.835,11.514,8.947,21.486s10.9,41.691,10.9,41.691
				s-16.062,18.329-38.405,17.259c0,0-12.015-18.806-7.78-35.79C700.999,1295.609,723.103,1267.945,723.103,1267.945z"/>
			<path style="fill:#ED985F;" d="M737.42,1243.314c0,0-0.93,5.311-8.674,13.756c-10.488-10.174-12.685-23.498-11.709-31.624
				L737.42,1243.314z"/>
			<path style="fill:#FFB27D;" d="M737.985,1252.264c0,0-30.766-17.119-19.811-36.115c10.957-18.995,14.364-33.998,34.472-23.871
				c20.106,10.128,19.708,19.558,17.593,26.787C768.125,1226.295,746.271,1256.228,737.985,1252.264z"/>
			<path style="fill:#2B478B;" d="M775.436,1207.986c-1.409-8.434-5.693-9.24-8.681-8.677
				c-11.362-18.79-29.924-11.456-29.924-11.456c-9.915,12.441-24.25,14.564-24.25,14.564s3.571,6.644,18.28,10.756
				c4.493,1.255,9.594,0.495,14.512-1.161c-10.206,5.69-20.878,7.87-20.878,7.87c19.385,1.774,37.828-15.947,39.742-17.844
				c0.893,2.747,2.462,8.497,1.523,12.7c-1.275,5.713-6.348,16.06-3.252,17.397C762.51,1232.137,777.55,1220.635,775.436,1207.986z"
				/>
			<path style="fill:#2C4977;" d="M494.196,1693.509h-54.471c0,0-1.306-8.303,1.54-14.601c2.727-6.043,6.996-8.79,5.974-16.102
				c3.462,3.563,9.103,7.554,16.978,6.495c0.965,1.563,6.228,9.936,9.451,12.251C477.227,1684.11,493.101,1683.199,494.196,1693.509
				z"/>
			<path style="fill:#8C9DF4;" d="M706.059,1339.547c-7.01,2.443-16.844,3.788-26.906,4.879
				c-14.324,1.564-29.113,2.629-36.858,5.725c-1.514,0.6-5.919,2.443-10.333,5.641v0.008c0,0-0.109,0.067-0.304,0.229
				c-1.464,1.065-2.926,2.3-4.271,3.686c-2.054,2.114-3.847,4.584-4.997,7.416c-2.841,7.019,0.922,26.476,3.332,37.113
				c0.973,4.277-1.048,8.7-4.947,10.722c-5.444,2.815-10.797,5.419-16.057,7.796c-0.278,0.126-0.55,0.245-0.828,0.371
				c0.05-1.082,0.067-2.156,0.067-3.204c0.008-7.34-0.921-13.444-0.921-13.444c-1.295,7.406-6.174,15.406-10.723,21.562
				c-73.1,29.333-124.172,16.581-123.335,1.971c2.884-50.734,37.095-93.884,37.095-93.884
				c63.807-74.199,192.874-93.731,192.874-93.731s6.182-0.744,13.641,8.22c10.729,12.911,11.263,16.276,11.263,16.276
				S726.682,1332.352,706.059,1339.547z"/>
			<path style="fill:#6980E0;" d="M679.146,1344.425c-14.321,1.563-29.109,2.633-36.857,5.722
				c-3.165-47.305,19.158-82.885,19.158-82.885S676.011,1326.523,679.146,1344.425z"/>
			<path style="fill:#FFB27D;" d="M694.19,1258.109c0,0-35.898,3.547-38.774,26.871c-2.879,23.325,34.415,118.329,39.756,126.932
				c9.723,15.662,66.979,69.347,66.979,69.347l10.553-6.396c0,0-40.612-68.752-46.9-75.186
				C715.931,1389.575,706.346,1266.188,694.19,1258.109z"/>
			<path style="fill:#8C9DF4;" d="M712.582,1302.67c0,0,3.688-60.141-42.344-45.6c-46.031,14.542,7.144,117.983,7.144,117.983
				s27.016-1.334,36.597-24.907L712.582,1302.67z"/>
			<path style="fill:#6980E0;" d="M625.721,1404.242c0.973,4.277-1.048,8.7-4.947,10.722c-5.444,2.815-10.797,5.419-16.057,7.796
				c-0.278-0.897-0.532-1.835-0.761-2.833c-0.829-3.703-1.209-8.135-0.921-13.444c1.216-22.458,16.513-39.463,24.351-46.77
				c-2.054,2.114-3.847,4.584-4.997,7.416C619.548,1374.147,623.31,1393.604,625.721,1404.242z"/>
			<path style="fill:#6980E0;" d="M698.946,1242.399c0,0,5.62-7.104,9.419-6.875c0,0,15.36,21.504,15.484,31.371
				C723.85,1266.896,704.691,1241.401,698.946,1242.399z"/>
			<path style="fill:#ED985F;" d="M846.31,1450.486c0,0-8.167,0.146-9.931-0.108c-1.729-0.249-4.044-1.001-6.369-1.083
				c-2.286-0.085-4.388,0.656-6.537,1.098c-0.319,0.065-0.646,0.094-0.972,0.094h-13.547c0,0-1.358-0.65-2.847-3.041
				c-0.642-1.035-0.729-3.502-2.191-4.314c-8.201-4.578,13.629-1.986,13.629-1.986s13.706-0.249,14.972,0.695
				C834.769,1443.533,846.82,1449.836,846.31,1450.486z"/>
			<path style="fill:#ED985F;" d="M808.957,1450.489c0,0,8.315,2.401,10.575,3.941l2.387,1.507c0,0,1.381-1.541-0.795-3.253
				c-1.147-0.903-4.314-3.544-4.417-6.575C816.604,1443.079,807.216,1445.727,808.957,1450.489z"/>
			<path style="fill:#FFB27D;" d="M772.703,1474.862c0,0,5.942,5.281,10.463,6.396c4.52,1.114,9.656,14.059,10.478,15.907
				c0.823,1.85-4.314-0.822-6.368-3.972c-2.056-3.151-3.459-4.384-4.058-3.698c-0.6,0.685,0.359,9.313,3.783,14.107
				c3.425,4.795,5.479,9.041,3.013,8.767c-2.465-0.273-17.12-3.835-20.134-12.738c-3.013-8.903-0.803-9.216-7.729-18.373
				C755.223,1472.101,772.703,1474.862,772.703,1474.862z"/>
		</g>
	</g>
	<g>
		<g>
			<path style="fill:#6980E0;" d="M1792.318,1666.078c0,7.541-3.087,14.395-8.062,19.369s-11.828,8.062-19.37,8.062h-129.528
				c-15.082,0-27.421-12.349-27.421-27.431c0-7.541,3.087-14.395,8.053-19.369c4.975-4.965,11.828-8.053,19.368-8.053h129.528
				C1779.97,1638.656,1792.318,1650.996,1792.318,1666.078z"/>
			<path style="fill:#8C9DF4;" d="M1725.499,1666.078c0,7.541-3.087,14.395-8.053,19.369c-4.975,4.975-11.827,8.062-19.369,8.062
				h-62.719c-15.082,0-27.421-12.349-27.421-27.431c0-7.541,3.087-14.395,8.053-19.369c4.975-4.965,11.828-8.053,19.368-8.053
				h62.719C1713.159,1638.656,1725.499,1650.996,1725.499,1666.078z"/>
			<path style="opacity:0.4;fill:#E9F3FE;" d="M1767.082,1653.389h-123.553c-2.138,0-3.887-1.75-3.887-3.887v-0.877
				c0-2.138,1.749-3.887,3.887-3.887h123.553c2.138,0,3.887,1.749,3.887,3.887v0.877
				C1770.969,1651.639,1769.22,1653.389,1767.082,1653.389z"/>
		</g>
		<g>
			<path style="fill:#EF7E29;" d="M1681.787,1589.895c3.582,7.148,3.912,15.11,1.559,22.188c-2.352,7.077-7.382,13.259-14.528,16.84
				l-122.771,61.524c-14.295,7.163-31.856,1.32-39.021-12.976c-3.581-7.147-3.911-15.108-1.566-22.184
				c2.356-7.068,7.386-13.25,14.533-16.831l122.771-61.524C1657.059,1569.77,1674.624,1575.6,1681.787,1589.895z"/>
			<path style="fill:#F99746;" d="M1618.454,1621.633c3.582,7.147,3.911,15.109,1.568,22.183
				c-2.354,7.078-7.382,13.259-14.53,16.841l-59.445,29.791c-14.295,7.163-31.856,1.32-39.021-12.976
				c-3.581-7.147-3.911-15.108-1.566-22.184c2.356-7.068,7.386-13.25,14.533-16.831l59.445-29.79
				C1593.734,1601.503,1611.29,1607.337,1618.454,1621.633z"/>
			<path style="opacity:0.5;fill:#FFE2CC;" d="M1651.84,1589.854l-117.104,58.685c-2.026,1.016-4.515,0.188-5.53-1.838l-0.417-0.831
				c-1.015-2.026-0.188-4.515,1.839-5.53l117.104-58.685c2.026-1.016,4.515-0.188,5.53,1.838l0.417,0.83
				C1654.693,1586.351,1653.867,1588.839,1651.84,1589.854z"/>
		</g>
	</g>
	<path style="fill:#233862;" d="M2499.703,1700.834H216.515c-1.566,0-2.849-1.281-2.849-2.848v-1.629
		c0-1.566,1.282-2.849,2.849-2.849h2283.188c1.566,0,2.848,1.282,2.848,2.849v1.629
		C2502.551,1699.553,2501.27,1700.834,2499.703,1700.834z"/>
</g>
</svg>
