<?xml version="1.0" encoding="utf-8"?>
<!-- Generator: Adobe Illustrator 27.5.0, SVG Export Plug-In . SVG Version: 6.00 Build 0)  -->
<svg version="1.1" xmlns="http://www.w3.org/2000/svg" xmlns:xlink="http://www.w3.org/1999/xlink" x="0px" y="0px"
	 viewBox="0 0 500 500" style="enable-background:new 0 0 500 500;" xml:space="preserve">
<g id="BACKGROUND">
	<rect style="fill:#FFFFFF;" width="500" height="500"/>
</g>
<g id="OBJECTS">
	<g>
		<defs>
			<path id="SVGID_1_" d="M40.528,136.966c8.224-19.882,37.046-8.784,69.538-32.918c39.328-29.212,33.836-72.754,61.131-77.607
				c18.41-3.274,21.97,16.347,51.377,23.851c46.613,11.894,76.053-27.61,104.218-11.392c17.787,10.242,8.124,27.194,27.621,47.778
				c33.222,35.074,86.762,12.758,98.593,37.278c10.34,21.43-28.959,41.781-24.127,82.436c4.188,35.234,36.874,46.612,30.657,67.936
				c-6.486,22.247-43.781,15.752-55.717,41.697c-12.249,26.623,19.756,49.254,7.803,73.817
				c-11.662,23.966-46.107,10.592-76.788,41.707c-22.792,23.115-16.929,43.826-33.076,48.575
				c-23.607,6.943-37.016-37.074-84.199-48.478c-38.698-9.353-56.056,13.881-78.487-0.943
				c-23.279-15.385-8.213-42.807-34.818-78.359c-24.178-32.308-48.437-25.454-57.078-50.314
				c-10.487-30.172,23.281-45.927,19.785-89.251C63.685,172.186,31.789,158.092,40.528,136.966z"/>
		</defs>
		<use xlink:href="#SVGID_1_"  style="overflow:visible;fill:#FFF899;"/>
		<clipPath id="SVGID_00000168076062964643008440000012732021977043505029_">
			<use xlink:href="#SVGID_1_"  style="overflow:visible;"/>
		</clipPath>
		<g style="clip-path:url(#SVGID_00000168076062964643008440000012732021977043505029_);">
			<path style="fill:none;stroke:#EDE357;stroke-miterlimit:10;" d="M45.094,163.002c22.089-12.054,56.528-27.16,100.17-30.674
				c34.148-2.75,50.602,3.476,73.085,2.906c33.78-0.857,82.301-17.086,141.64-90.436"/>
			<path style="fill:none;stroke:#EDE357;stroke-miterlimit:10;" d="M477.802,314.311c-20.346,14.806-52.546,34.234-95.368,43.357
				c-33.507,7.138-50.627,3.089-72.848,6.559c-33.386,5.214-79.405,27.575-128.772,107.975"/>
			<path style="fill:none;stroke:#EDE357;stroke-miterlimit:10;" d="M438.809,101.185c-40.226,6.816-160.314,32.574-255.144,138.879
				c-57.521,64.482-82.176,132.175-93.204,172.124"/>
			<g>
				<path style="fill:#EDE357;" d="M353.369,320.97c-0.879,2.892-3.935,4.525-6.827,3.646c-2.892-0.878-4.525-3.935-3.646-6.827
					c0.879-2.892,3.935-4.525,6.827-3.646C352.616,315.021,354.248,318.078,353.369,320.97z"/>
				<g>
					<path style="fill:#EDE357;" d="M353.854,305.362c-0.206,0.677-0.922,1.06-1.599,0.854c-0.677-0.206-1.06-0.922-0.854-1.599
						c0.206-0.677,0.922-1.06,1.599-0.854C353.677,303.969,354.059,304.685,353.854,305.362z"/>
					<polygon style="fill:#EDE357;" points="347.64,316.238 350.409,317.079 352.602,304.99 					"/>
				</g>
				<g>
					<path style="fill:#EDE357;" d="M342.267,305.422c0.333,0.624,0.098,1.401-0.527,1.734c-0.624,0.333-1.401,0.098-1.734-0.527
						c-0.333-0.624-0.097-1.401,0.527-1.734C341.157,304.562,341.933,304.798,342.267,305.422z"/>
					<polygon style="fill:#EDE357;" points="345.564,317.506 348.116,316.143 341.119,306.044 					"/>
				</g>
				<g>
					<path style="fill:#EDE357;" d="M334.116,313.658c0.677,0.206,1.06,0.922,0.854,1.599c-0.206,0.677-0.922,1.06-1.599,0.854
						c-0.677-0.206-1.06-0.922-0.854-1.599C332.723,313.835,333.439,313.452,334.116,313.658z"/>
					<polygon style="fill:#EDE357;" points="344.992,319.871 345.833,317.102 333.744,314.909 					"/>
				</g>
				<g>
					<path style="fill:#EDE357;" d="M334.176,325.245c0.624-0.333,1.401-0.098,1.734,0.527c0.333,0.624,0.098,1.401-0.527,1.734
						c-0.624,0.333-1.401,0.098-1.734-0.527C333.316,326.355,333.552,325.578,334.176,325.245z"/>
					<polygon style="fill:#EDE357;" points="346.26,321.948 344.897,319.396 334.798,326.393 					"/>
				</g>
				<g>
					<path style="fill:#EDE357;" d="M342.412,333.396c0.206-0.677,0.922-1.06,1.599-0.854c0.677,0.206,1.06,0.922,0.854,1.599
						c-0.206,0.677-0.922,1.06-1.599,0.854C342.588,334.789,342.206,334.073,342.412,333.396z"/>
					<polygon style="fill:#EDE357;" points="348.625,322.52 345.856,321.679 343.663,333.768 					"/>
				</g>
				<g>
					<path style="fill:#EDE357;" d="M353.999,333.336c-0.333-0.624-0.098-1.401,0.527-1.734c0.624-0.333,1.401-0.098,1.734,0.527
						c0.333,0.624,0.098,1.401-0.527,1.734C355.109,334.196,354.332,333.96,353.999,333.336z"/>
					<polygon style="fill:#EDE357;" points="350.702,321.252 348.149,322.615 355.146,332.714 					"/>
				</g>
				<g>
					<path style="fill:#EDE357;" d="M362.149,325.1c-0.677-0.206-1.06-0.922-0.854-1.599c0.206-0.677,0.922-1.06,1.599-0.854
						c0.677,0.206,1.06,0.922,0.854,1.599C363.543,324.923,362.827,325.306,362.149,325.1z"/>
					<polygon style="fill:#EDE357;" points="351.274,318.887 350.433,321.656 362.521,323.849 					"/>
				</g>
				<g>
					<path style="fill:#EDE357;" d="M362.089,313.513c-0.624,0.333-1.401,0.098-1.734-0.527c-0.333-0.625-0.098-1.401,0.527-1.734
						c0.624-0.333,1.401-0.098,1.734,0.527C362.95,312.403,362.714,313.18,362.089,313.513z"/>
					<polygon style="fill:#EDE357;" points="350.006,316.81 351.369,319.362 361.467,312.365 					"/>
				</g>
			</g>
			<g>
				<path style="fill:#EDE357;" d="M399.187,195.217c-0.647,2.129-2.897,3.33-5.025,2.684c-2.129-0.647-3.33-2.897-2.684-5.025
					c0.647-2.129,2.897-3.33,5.025-2.684C398.632,190.838,399.833,193.088,399.187,195.217z"/>
				<g>
					<path style="fill:#EDE357;" d="M399.543,183.729c-0.151,0.499-0.678,0.78-1.177,0.628c-0.499-0.151-0.78-0.678-0.629-1.177
						c0.152-0.499,0.678-0.78,1.177-0.628C399.413,182.704,399.694,183.231,399.543,183.729z"/>
					<polygon style="fill:#EDE357;" points="394.97,191.734 397.008,192.353 398.622,183.456 					"/>
				</g>
				<g>
					<path style="fill:#EDE357;" d="M391.014,183.773c0.245,0.46,0.072,1.031-0.388,1.277c-0.46,0.245-1.031,0.072-1.277-0.388
						c-0.246-0.46-0.072-1.031,0.388-1.277C390.197,183.14,390.769,183.314,391.014,183.773z"/>
					<polygon style="fill:#EDE357;" points="393.441,192.668 395.32,191.664 390.17,184.231 					"/>
				</g>
				<g>
					<path style="fill:#EDE357;" d="M385.015,189.835c0.499,0.151,0.78,0.678,0.628,1.177c-0.151,0.499-0.678,0.78-1.177,0.628
						c-0.499-0.151-0.78-0.678-0.629-1.177C383.99,189.965,384.517,189.684,385.015,189.835z"/>
					<polygon style="fill:#EDE357;" points="393.02,194.408 393.639,192.37 384.741,190.756 					"/>
				</g>
				<g>
					<path style="fill:#EDE357;" d="M385.059,198.364c0.46-0.246,1.031-0.072,1.277,0.388c0.245,0.46,0.072,1.031-0.388,1.277
						c-0.46,0.245-1.031,0.072-1.277-0.388C384.426,199.181,384.6,198.609,385.059,198.364z"/>
					<polygon style="fill:#EDE357;" points="393.954,195.937 392.95,194.058 385.517,199.209 					"/>
				</g>
				<g>
					<path style="fill:#EDE357;" d="M391.121,204.363c0.152-0.499,0.678-0.78,1.177-0.629c0.499,0.151,0.78,0.678,0.628,1.177
						c-0.151,0.498-0.678,0.78-1.177,0.628C391.251,205.389,390.97,204.862,391.121,204.363z"/>
					<polygon style="fill:#EDE357;" points="395.694,196.358 393.656,195.739 392.042,204.637 					"/>
				</g>
				<g>
					<path style="fill:#EDE357;" d="M399.65,204.319c-0.246-0.46-0.072-1.031,0.388-1.277c0.46-0.245,1.031-0.072,1.277,0.388
						c0.245,0.46,0.072,1.031-0.388,1.277C400.467,204.952,399.895,204.779,399.65,204.319z"/>
					<polygon style="fill:#EDE357;" points="397.223,195.425 395.344,196.428 400.495,203.861 					"/>
				</g>
				<g>
					<path style="fill:#EDE357;" d="M405.649,198.257c-0.498-0.151-0.78-0.678-0.628-1.177c0.151-0.498,0.678-0.78,1.177-0.628
						c0.498,0.152,0.78,0.678,0.628,1.177C406.675,198.127,406.148,198.408,405.649,198.257z"/>
					<polygon style="fill:#EDE357;" points="397.644,193.684 397.025,195.722 405.923,197.336 					"/>
				</g>
				<g>
					<path style="fill:#EDE357;" d="M405.605,189.729c-0.46,0.245-1.031,0.072-1.277-0.388c-0.245-0.46-0.072-1.031,0.388-1.277
						c0.46-0.245,1.031-0.072,1.277,0.388C406.238,188.911,406.064,189.483,405.605,189.729z"/>
					<polygon style="fill:#EDE357;" points="396.711,192.155 397.714,194.034 405.147,188.884 					"/>
				</g>
			</g>
			<g>
				<path style="fill:#EDE357;" d="M90.904,305.915c-0.647,2.129-2.897,3.33-5.025,2.684c-2.129-0.647-3.33-2.897-2.684-5.025
					c0.647-2.129,2.897-3.33,5.025-2.684C90.349,301.536,91.55,303.786,90.904,305.915z"/>
				<g>
					<path style="fill:#EDE357;" d="M91.26,294.427c-0.151,0.499-0.678,0.78-1.177,0.629c-0.498-0.151-0.78-0.678-0.629-1.177
						c0.152-0.499,0.678-0.78,1.177-0.628C91.13,293.402,91.411,293.929,91.26,294.427z"/>
					<polygon style="fill:#EDE357;" points="86.687,302.432 88.725,303.051 90.339,294.153 					"/>
				</g>
				<g>
					<path style="fill:#EDE357;" d="M82.731,294.471c0.245,0.46,0.072,1.031-0.388,1.277c-0.46,0.246-1.031,0.072-1.277-0.388
						s-0.072-1.031,0.388-1.277C81.914,293.838,82.486,294.012,82.731,294.471z"/>
					<polygon style="fill:#EDE357;" points="85.158,303.366 87.037,302.362 81.887,294.929 					"/>
				</g>
				<g>
					<path style="fill:#EDE357;" d="M76.732,300.533c0.499,0.151,0.78,0.678,0.629,1.177c-0.151,0.499-0.678,0.78-1.177,0.629
						c-0.499-0.152-0.78-0.678-0.629-1.177C75.707,300.663,76.234,300.382,76.732,300.533z"/>
					<polygon style="fill:#EDE357;" points="84.737,305.106 85.356,303.068 76.458,301.454 					"/>
				</g>
				<g>
					<path style="fill:#EDE357;" d="M76.776,309.062c0.46-0.245,1.031-0.072,1.277,0.388c0.245,0.46,0.072,1.031-0.388,1.277
						c-0.46,0.246-1.031,0.072-1.277-0.388S76.317,309.307,76.776,309.062z"/>
					<polygon style="fill:#EDE357;" points="85.671,306.635 84.667,304.756 77.234,309.907 					"/>
				</g>
				<g>
					<path style="fill:#EDE357;" d="M82.838,315.061c0.151-0.499,0.678-0.78,1.177-0.629c0.499,0.151,0.78,0.678,0.629,1.177
						c-0.151,0.499-0.678,0.78-1.177,0.629C82.968,316.086,82.687,315.56,82.838,315.061z"/>
					<polygon style="fill:#EDE357;" points="87.411,307.056 85.373,306.437 83.759,315.335 					"/>
				</g>
				<g>
					<path style="fill:#EDE357;" d="M91.367,315.017c-0.245-0.46-0.072-1.031,0.388-1.277s1.031-0.072,1.277,0.388
						c0.245,0.46,0.072,1.031-0.388,1.277C92.184,315.65,91.612,315.476,91.367,315.017z"/>
					<polygon style="fill:#EDE357;" points="88.94,306.123 87.061,307.126 92.212,314.559 					"/>
				</g>
				<g>
					<path style="fill:#EDE357;" d="M97.366,308.955c-0.499-0.151-0.78-0.678-0.628-1.177c0.151-0.499,0.678-0.78,1.177-0.629
						c0.499,0.151,0.78,0.678,0.629,1.177C98.392,308.825,97.865,309.106,97.366,308.955z"/>
					<polygon style="fill:#EDE357;" points="89.361,304.382 88.742,306.42 97.64,308.034 					"/>
				</g>
				<g>
					<path style="fill:#EDE357;" d="M97.322,300.426c-0.46,0.246-1.031,0.072-1.277-0.388c-0.245-0.46-0.072-1.031,0.388-1.277
						s1.031-0.072,1.277,0.388C97.955,299.609,97.781,300.181,97.322,300.426z"/>
					<polygon style="fill:#EDE357;" points="88.428,302.853 89.431,304.732 96.864,299.582 					"/>
				</g>
			</g>
			<g>
				
					<ellipse transform="matrix(0.8795 -0.4759 0.4759 0.8795 -27.2993 100.6747)" style="fill:#EDE357;" cx="185.151" cy="104.245" rx="5.473" ry="5.473"/>
				<g>
					<path style="fill:#EDE357;" d="M190.872,90.228c-0.206,0.677-0.922,1.06-1.599,0.854c-0.677-0.206-1.06-0.922-0.854-1.599
						c0.206-0.677,0.922-1.06,1.599-0.854C190.695,88.835,191.078,89.551,190.872,90.228z"/>
					<polygon style="fill:#EDE357;" points="184.659,101.104 187.427,101.945 189.621,89.856 					"/>
				</g>
				<g>
					<path style="fill:#EDE357;" d="M179.285,90.288c0.333,0.624,0.098,1.401-0.527,1.734c-0.624,0.333-1.401,0.098-1.734-0.527
						c-0.333-0.624-0.098-1.401,0.527-1.734C178.175,89.428,178.951,89.664,179.285,90.288z"/>
					<polygon style="fill:#EDE357;" points="182.582,102.372 185.134,101.009 178.137,90.91 					"/>
				</g>
				<g>
					<path style="fill:#EDE357;" d="M171.134,98.524c0.677,0.206,1.06,0.922,0.854,1.599c-0.206,0.677-0.922,1.06-1.599,0.854
						c-0.677-0.206-1.06-0.922-0.854-1.599C169.741,98.7,170.457,98.318,171.134,98.524z"/>
					<polygon style="fill:#EDE357;" points="182.01,104.737 182.851,101.968 170.762,99.775 					"/>
				</g>
				<g>
					<path style="fill:#EDE357;" d="M171.194,110.111c0.625-0.333,1.401-0.098,1.735,0.527c0.333,0.624,0.097,1.401-0.527,1.734
						c-0.625,0.333-1.401,0.098-1.734-0.527C170.334,111.221,170.57,110.444,171.194,110.111z"/>
					<polygon style="fill:#EDE357;" points="183.278,106.814 181.915,104.261 171.816,111.259 					"/>
				</g>
				<g>
					<path style="fill:#EDE357;" d="M179.43,118.261c0.206-0.677,0.922-1.06,1.599-0.854c0.677,0.206,1.06,0.922,0.854,1.599
						c-0.206,0.677-0.922,1.06-1.599,0.854C179.607,119.655,179.224,118.939,179.43,118.261z"/>
					<polygon style="fill:#EDE357;" points="185.643,107.386 182.874,106.545 180.681,118.633 					"/>
				</g>
				<g>
					<path style="fill:#EDE357;" d="M191.017,118.201c-0.333-0.625-0.098-1.401,0.527-1.734c0.624-0.334,1.401-0.098,1.734,0.527
						c0.334,0.625,0.098,1.401-0.527,1.735C192.127,119.062,191.35,118.826,191.017,118.201z"/>
					<polygon style="fill:#EDE357;" points="187.72,106.118 185.167,107.481 192.165,117.58 					"/>
				</g>
				<g>
					<path style="fill:#EDE357;" d="M199.168,109.966c-0.677-0.206-1.06-0.922-0.854-1.599c0.206-0.677,0.922-1.06,1.599-0.854
						c0.677,0.206,1.06,0.922,0.854,1.599C200.561,109.789,199.845,110.171,199.168,109.966z"/>
					<polygon style="fill:#EDE357;" points="188.292,103.753 187.451,106.521 199.54,108.714 					"/>
				</g>
				<g>
					<path style="fill:#EDE357;" d="M199.108,98.379c-0.624,0.333-1.401,0.098-1.734-0.527c-0.333-0.624-0.098-1.401,0.527-1.734
						c0.624-0.333,1.401-0.098,1.734,0.527C199.968,97.269,199.732,98.045,199.108,98.379z"/>
					<polygon style="fill:#EDE357;" points="187.024,101.676 188.387,104.228 198.486,97.231 					"/>
				</g>
			</g>
			<path style="fill:#EDE357;" d="M106.776,158.597c-13.038,4.458-26.763,17.61-25.056,33.016
				c0.826,7.461,5.508,17.586,13.499,19.684c18.614,4.886,49.695-35.218,42.148-48.973
				C133.15,154.641,116.862,155.148,106.776,158.597z"/>
			<path style="fill:#EDE357;" d="M296.334,378.326c-9.609,2.616-19.497,11.001-17.808,21.303
				c0.818,4.989,4.584,11.855,10.605,13.467c14.022,3.754,36.135-22.104,30.132-31.465
				C315.909,376.403,303.768,376.302,296.334,378.326z"/>
			<path style="fill:#EDE357;" d="M158.214,179.21c5.245-2.857,10.344-9.675,8.86-16.501c-0.719-3.306-3.187-7.561-6.643-7.984
				c-8.049-0.987-19.082,19.098-15.231,24.801C147.351,182.711,154.156,181.42,158.214,179.21z"/>
			<path style="fill:#EDE357;" d="M334.691,398.877c4.072-2.219,8.031-7.511,6.879-12.811c-0.558-2.567-2.474-5.87-5.157-6.199
				c-6.249-0.767-14.815,14.828-11.825,19.255C326.257,401.595,331.541,400.593,334.691,398.877z"/>
			<path style="fill:#EDE357;" d="M399.361,342.143c4.072-2.219,8.031-7.511,6.879-12.811c-0.558-2.567-2.474-5.87-5.157-6.199
				c-6.249-0.767-14.815,14.828-11.825,19.255C390.928,344.861,396.211,343.859,399.361,342.143z"/>
		</g>
	</g>
	<g>
		<defs>
			<rect id="SVGID_00000136370352472508633090000002660197263405589147_" x="102.63" y="45.8" width="259.2" height="454.2"/>
		</defs>
		<clipPath id="SVGID_00000057839437371270248200000009526520055102564995_">
			<use xlink:href="#SVGID_00000136370352472508633090000002660197263405589147_"  style="overflow:visible;"/>
		</clipPath>
		<g style="clip-path:url(#SVGID_00000057839437371270248200000009526520055102564995_);">
			<path style="fill:#FA8DE3;" d="M345.281,427.722c1.939,7.638,2.635,16.566,1.565,17.462c-2.088,1.748-3.284-2.52-5.917-13.089
				l-1.342,0.005c1.185,8.17,1.395,20.308-1.948,21.149c-1.646,0.414-3.769-8.772-5.043-19.688
				c-1.008,7.81-0.899,23.841-3.992,24.779c-4.967,1.507-2.678-25.48-2.678-25.48c-1.019,7.734-1.812,16.407-5.003,19.664
				c-3.426,3.496-2.513-9.6-1.259-19.836c-6.431,6.391-13.362,5.616-11.386,2.998c2.52-3.339,6.395-8.717,6.395-8.717l6.495-16.466
				l23.118-5.195L345.281,427.722z"/>
			<g>
				<path style="fill:#473498;" d="M347.349,422.363c2.853-0.031,5.106-2.517,5.038-5.568c-0.62-28.015-4.904-63.888-4.958-75.995
					c-0.053-11.888,2.16-22.92-11.28-65.16c-6.939-21.808-9.685-30.864-10.112-31.614l-49.345,7.25
					c17.77,31.248,30.561,78.293,31.497,88.084c-2.206,18.902,1.982,59.702,2.382,77.849c0.068,3.067,2.452,5.529,5.32,5.497
					L347.349,422.363z"/>
			</g>
		</g>
		<g style="clip-path:url(#SVGID_00000057839437371270248200000009526520055102564995_);">
			<polygon style="fill:#A1478E;" points="321.607,678.844 318.07,527.61 294.87,355.32 236.763,348.622 236.055,341.669 
				169.381,347.895 187.687,527.475 164.945,666.776 231.132,676.673 251.615,551.213 254.633,680.28 			"/>
			<g>
				<path style="fill:#473498;" d="M180.57,251.97c-5.833,21.999-15.865,95.204-7.92,147.24c0.596,3.905,5.992,8.29,9.41,9.048
					c19.624,4.351,83.277,6.426,115.15-10.848c2.79-1.512,4.68-4.578,4.92-8.073c1.543-22.497,1.56-97.047-2.992-143.75
					c-0.468-4.805-4.62-8.043-8.88-7.678l-97.544,8.354C189.184,246.566,181.594,248.108,180.57,251.97z"/>
				<path style="fill:#473498;" d="M155.91,276.138c17.535,32.312,53.844,33.345,93.192,33.345c38.35,0,59.029-34.483,76.936-65.457
					c-12-28.795-53.431-39.781-87.808-38.946C234.606,205.168,170.095,197.451,155.91,276.138z"/>
				<g>
					<path style="fill:none;stroke:#322A57;stroke-linecap:round;stroke-miterlimit:10;" d="M308.779,252.237
						c0,0-11.555,49.038-28.669,61.443"/>
					<path style="fill:none;stroke:#322A57;stroke-linecap:round;stroke-miterlimit:10;" d="M311.532,254.369
						c0,0,0.66,12.021-6.372,32.595"/>
				</g>
				<path style="fill:#FA8DE3;" d="M254.19,240c0,0,11.88,0,12.748-19.641l6.029-62.917l-33.476,9.334l-6.883,42.241
					C230.914,225.669,241.18,238.678,254.19,240z"/>
				<path style="fill:#FA8DE3;" d="M227.572,166.501c0.373,6.154,5.665,10.84,11.819,10.467c6.154-0.373,10.841-5.665,10.467-11.819
					c-0.373-6.154-5.665-10.84-11.819-10.467C231.885,155.055,227.199,160.346,227.572,166.501z"/>
				<g>
					<path style="fill:#A747AD;" d="M238.766,169.963c-0.201,0-0.393-0.119-0.475-0.316c-1.767-4.209-5.52-3.593-5.556-3.587
						c-0.277,0.054-0.548-0.137-0.597-0.417c-0.05-0.28,0.137-0.547,0.417-0.597c0.045-0.009,4.604-0.758,6.686,4.203
						c0.11,0.262-0.013,0.564-0.276,0.674C238.9,169.95,238.832,169.963,238.766,169.963z"/>
					<path style="fill:#A747AD;" d="M234.267,171.076c-0.245,0-0.462-0.175-0.507-0.425c-0.013-0.073-0.306-1.794,0.653-3.062
						c0.546-0.723,1.37-1.143,2.446-1.251c0.289-0.02,0.535,0.179,0.564,0.461c0.028,0.283-0.178,0.536-0.462,0.564
						c-0.779,0.078-1.36,0.363-1.726,0.847c-0.68,0.899-0.464,2.246-0.461,2.259c0.05,0.28-0.137,0.548-0.417,0.598
						C234.328,171.073,234.297,171.076,234.267,171.076z"/>
				</g>
				<g>
					<g>
						<path style="fill:#6F63F2;" d="M234.144,224.431c-10.163,4.948-8.911,17.633-15.478,59.192
							c-6.009,38.023-10.488,49.113-2.737,56.653c6.407,6.233,18.745,7.682,26.677,2.866c11.887-7.217,5.375-23.344,12.483-62.492
							c5.436-29.942,12.974-41.046,5.58-50.206C254.902,223.3,242.495,220.365,234.144,224.431z"/>
						<g>
							<path style="fill:#6F63F2;" d="M221.402,342.252c-0.063,1.304-1.171,2.31-2.475,2.246c-1.304-0.063-2.309-1.171-2.246-2.474
								s1.171-2.31,2.475-2.247C220.459,339.841,221.465,340.948,221.402,342.252z"/>
							<path style="fill:#6F63F2;" d="M212.956,354.393c-0.548,0-1.069-0.131-1.538-0.393l0.437-0.781
								c0.888,0.496,2.024,0.336,3.2-0.456c1.172-0.788,1.099-2.911,1.047-4.46c-0.02-0.582-0.037-1.083,0.013-1.45
								c0.295-2.136,1.335-3.706,3.092-4.667l0.429,0.786c-1.494,0.816-2.381,2.164-2.634,4.004c-0.04,0.29-0.024,0.757-0.006,1.298
								c0.059,1.759,0.142,4.169-1.442,5.235C214.682,354.093,213.787,354.393,212.956,354.393z"/>
							<path style="fill:#6F63F2;" d="M210.763,352.564c-0.969,0-1.815-0.317-2.433-0.937l0.634-0.632
								c0.718,0.718,1.855,0.872,3.203,0.431c1.341-0.439,1.849-2.502,2.22-4.008c0.139-0.564,0.259-1.052,0.407-1.391
								c0.866-1.976,2.294-3.205,4.246-3.65l0.199,0.872c-1.66,0.38-2.879,1.435-3.624,3.137c-0.118,0.268-0.229,0.722-0.358,1.246
								c-0.421,1.709-0.997,4.05-2.81,4.645C211.86,352.469,211.293,352.564,210.763,352.564z"/>
							<path style="fill:#6F63F2;" d="M217.45,356.009c-0.236,0-0.468-0.064-0.686-0.192l0.454-0.772
								c0.12,0.071,0.225,0.086,0.346,0.054c0.3-0.083,0.661-0.469,0.988-1.06c0.579-1.046,0.289-3.259,0.096-4.722
								c-0.074-0.563-0.138-1.05-0.149-1.392c-0.071-2.099,0.321-3.804,1.164-5.072l0.745,0.497
								c-0.737,1.108-1.078,2.637-1.014,4.544c0.01,0.321,0.072,0.776,0.142,1.306c0.22,1.674,0.522,3.967-0.2,5.272
								c-0.464,0.836-0.98,1.337-1.535,1.489C217.683,355.993,217.566,356.009,217.45,356.009z"/>
						</g>
						<g>
							<path style="fill:#6F63F2;" d="M230.043,344.522c0.415,1.237-0.252,2.577-1.49,2.992c-1.238,0.415-2.577-0.252-2.992-1.49
								c-0.415-1.237,0.252-2.577,1.49-2.992C228.289,342.617,229.629,343.284,230.043,344.522z"/>
							<path style="fill:#6F63F2;" d="M225.446,359.124c-0.146,0-0.292-0.01-0.439-0.032l0.125-0.886
								c1.004,0.141,2.008-0.422,2.816-1.587c0.806-1.16-0.033-3.111-0.645-4.535c-0.23-0.535-0.428-0.997-0.514-1.357
								c-0.501-2.097-0.101-3.938,1.186-5.471l0.686,0.576c-1.095,1.303-1.432,2.881-1.001,4.688
								c0.068,0.284,0.252,0.713,0.466,1.21c0.694,1.618,1.646,3.833,0.557,5.4C227.781,358.429,226.645,359.124,225.446,359.124z"
								/>
							<path style="fill:#6F63F2;" d="M222.514,358.262c-0.432,0-0.851-0.086-1.246-0.26l0.362-0.818
								c0.93,0.41,2.046,0.139,3.141-0.761c1.091-0.897,0.814-3.003,0.613-4.541c-0.075-0.577-0.14-1.075-0.125-1.445
								c0.089-2.154,0.973-3.818,2.629-4.943l0.503,0.741c-1.408,0.956-2.161,2.383-2.238,4.239
								c-0.012,0.293,0.049,0.755,0.119,1.291c0.229,1.745,0.542,4.136-0.931,5.349C224.42,357.871,223.438,358.262,222.514,358.262
								z"/>
							<path style="fill:#6F63F2;" d="M230.88,358.863c-0.076,0-0.153-0.006-0.232-0.019l0.142-0.884
								c0.137,0.02,0.242-0.002,0.342-0.077c0.25-0.185,0.445-0.675,0.535-1.344c0.16-1.186-0.915-3.141-1.626-4.435
								c-0.273-0.498-0.509-0.928-0.644-1.242c-0.829-1.932-1.084-3.664-0.757-5.148l0.874,0.191
								c-0.285,1.299-0.048,2.848,0.706,4.604c0.127,0.294,0.349,0.697,0.606,1.164c0.814,1.481,1.928,3.508,1.728,4.985
								c-0.128,0.947-0.426,1.601-0.888,1.945C231.434,358.774,231.166,358.863,230.88,358.863z"/>
						</g>
						<g>
							<path style="fill:#6F63F2;" d="M240.16,343.628c0.673,1.118,0.312,2.57-0.807,3.243c-1.118,0.673-2.57,0.312-3.243-0.806
								c-0.673-1.118-0.312-2.57,0.807-3.243C238.035,342.149,239.487,342.51,240.16,343.628z"/>
							<path style="fill:#6F63F2;" d="M238.399,358.944l-0.071-0.893c1.015-0.081,1.869-0.846,2.406-2.158
								c0.535-1.306-0.705-3.03-1.611-4.288c-0.34-0.472-0.634-0.88-0.796-1.212c-0.943-1.94-0.952-3.824-0.027-5.6l0.794,0.415
								c-0.787,1.509-0.774,3.122,0.039,4.793c0.128,0.264,0.4,0.642,0.716,1.081c1.028,1.429,2.437,3.386,1.714,5.151
								C240.9,357.848,239.747,358.837,238.399,358.944z"/>
							<path style="fill:#6F63F2;" d="M235.107,358.748c-0.198,0-0.397-0.02-0.594-0.058l0.175-0.879
								c0.999,0.202,2.029-0.307,2.902-1.422c0.87-1.111,0.145-3.108-0.385-4.566c-0.199-0.547-0.37-1.019-0.436-1.383
								c-0.381-2.123,0.123-3.938,1.496-5.394l0.652,0.613c-1.168,1.239-1.594,2.795-1.267,4.623
								c0.052,0.289,0.211,0.728,0.396,1.236c0.601,1.654,1.425,3.921,0.249,5.424C237.379,358.112,236.243,358.748,235.107,358.748
								z"/>
							<path style="fill:#6F63F2;" d="M243.852,357.48l-0.052-0.893c0.137-0.008,0.235-0.055,0.318-0.149
								c0.204-0.234,0.288-0.755,0.231-1.429c-0.101-1.193-1.574-2.869-2.549-3.978c-0.375-0.427-0.698-0.795-0.897-1.073
								c-1.227-1.706-1.851-3.341-1.855-4.862l0.895-0.002c0.003,1.329,0.571,2.79,1.686,4.342c0.187,0.259,0.491,0.604,0.842,1.004
								c1.115,1.27,2.642,3.007,2.768,4.494c0.08,0.953-0.07,1.656-0.447,2.09C244.554,357.3,244.229,357.458,243.852,357.48z"/>
						</g>
					</g>
					<g>
						<path style="fill:#6F63F2;" d="M245.788,210.227c-8.897,6.973-5.008,19.112-2.7,61.123c2.112,38.438,0.062,50.22,9.224,55.964
							c7.574,4.748,19.941,3.573,26.684-2.801c10.106-9.553,0.352-23.953-0.922-63.719c-0.974-30.416,4.064-42.856-5.09-50.258
							C265.845,204.762,253.099,204.498,245.788,210.227z"/>
						<g>
							<path style="fill:#6F63F2;" d="M258.078,328.097c0.212,1.288-0.66,2.504-1.947,2.716c-1.288,0.212-2.504-0.66-2.716-1.948
								c-0.212-1.288,0.66-2.504,1.947-2.716C256.65,325.937,257.866,326.809,258.078,328.097z"/>
							<path style="fill:#6F63F2;" d="M251.684,341.814c-0.304,0-0.606-0.044-0.9-0.135l0.264-0.856
								c0.973,0.3,2.05-0.097,3.034-1.118c0.979-1.016,0.463-3.076,0.086-4.579c-0.141-0.564-0.263-1.052-0.291-1.421
								c-0.16-2.151,0.527-3.904,2.043-5.212l0.585,0.678c-1.289,1.112-1.873,2.615-1.735,4.468c0.022,0.293,0.135,0.745,0.266,1.27
								c0.428,1.708,1.014,4.045-0.31,5.419C253.789,341.299,252.719,341.814,251.684,341.814z"/>
							<path style="fill:#6F63F2;" d="M249.004,340.505c-0.633,0-1.224-0.166-1.737-0.498l0.487-0.751
								c0.852,0.552,1.997,0.466,3.223-0.251c1.219-0.711,1.282-2.835,1.328-4.386c0.017-0.581,0.032-1.083,0.105-1.446
								c0.431-2.113,1.569-3.614,3.383-4.461l0.379,0.811c-1.543,0.72-2.514,2.009-2.884,3.829
								c-0.059,0.287-0.073,0.753-0.089,1.293c-0.053,1.76-0.124,4.17-1.772,5.133C250.601,340.263,249.771,340.505,249.004,340.505
								z"/>
							<path style="fill:#6F63F2;" d="M256.833,342.405c-0.145,0-0.293-0.024-0.44-0.072l0.281-0.851
								c0.131,0.043,0.239,0.038,0.35-0.021c0.276-0.143,0.547-0.596,0.743-1.242c0.347-1.145-0.402-3.246-0.898-4.635
								c-0.191-0.536-0.356-0.999-0.438-1.331c-0.511-2.038-0.486-3.788,0.072-5.202l0.832,0.329
								c-0.488,1.237-0.501,2.803-0.036,4.656c0.078,0.31,0.234,0.745,0.413,1.247c0.567,1.59,1.344,3.768,0.912,5.195
								c-0.277,0.914-0.676,1.512-1.187,1.778C257.246,342.355,257.042,342.405,256.833,342.405z"/>
						</g>
						<g>
							<path style="fill:#6F63F2;" d="M267.003,328.5c0.665,1.123,0.295,2.572-0.828,3.238c-1.123,0.665-2.573,0.295-3.238-0.828
								c-0.665-1.123-0.295-2.573,0.828-3.238C264.888,327.007,266.338,327.377,267.003,328.5z"/>
							<path style="fill:#6F63F2;" d="M265.139,343.803l-0.064-0.893c1.014-0.072,1.874-0.832,2.42-2.142
								c0.544-1.302-0.686-3.035-1.583-4.3c-0.337-0.475-0.628-0.884-0.787-1.217c-0.93-1.947-0.926-3.83,0.01-5.6l0.792,0.42
								c-0.797,1.504-0.795,3.118,0.006,4.793c0.126,0.265,0.396,0.646,0.709,1.087c1.019,1.435,2.414,3.401,1.68,5.162
								C267.647,342.727,266.487,343.708,265.139,343.803z"/>
							<path style="fill:#6F63F2;" d="M261.87,343.586c-0.205,0-0.41-0.021-0.614-0.063l0.181-0.877
								c0.994,0.205,2.03-0.293,2.912-1.404c0.877-1.105,0.165-3.107-0.355-4.568c-0.195-0.548-0.364-1.021-0.427-1.386
								c-0.366-2.125,0.149-3.937,1.533-5.384l0.647,0.618c-1.176,1.231-1.612,2.784-1.297,4.615
								c0.05,0.289,0.206,0.729,0.388,1.238c0.59,1.658,1.398,3.93,0.213,5.425C264.13,342.958,262.998,343.586,261.87,343.586z"/>
							<path style="fill:#6F63F2;" d="M270.602,342.376l-0.047-0.893c0.138-0.008,0.236-0.052,0.318-0.147
								c0.206-0.234,0.294-0.754,0.241-1.428c-0.093-1.191-1.553-2.877-2.52-3.992c-0.372-0.43-0.694-0.803-0.892-1.082
								c-1.216-1.713-1.829-3.352-1.822-4.874l0.895,0.005c-0.006,1.33,0.551,2.795,1.657,4.352c0.186,0.261,0.489,0.61,0.839,1.013
								c1.106,1.275,2.62,3.023,2.736,4.508c0.073,0.954-0.082,1.657-0.462,2.089C271.306,342.201,270.979,342.358,270.602,342.376z
								"/>
						</g>
						<g>
							<path style="fill:#6F63F2;" d="M276.707,325.502c0.893,0.952,0.845,2.448-0.107,3.34c-0.952,0.893-2.448,0.845-3.34-0.107
								c-0.893-0.952-0.845-2.448,0.107-3.34C274.318,324.502,275.814,324.55,276.707,325.502z"/>
							<path style="fill:#6F63F2;" d="M278.202,340.847l-0.257-0.858c0.975-0.292,1.649-1.219,1.898-2.616
								c0.248-1.389-1.326-2.813-2.476-3.853c-0.431-0.391-0.804-0.728-1.032-1.019c-1.33-1.699-1.735-3.538-1.203-5.468
								l0.863,0.238c-0.452,1.642-0.1,3.215,1.045,4.677c0.181,0.231,0.528,0.544,0.929,0.907c1.305,1.181,3.093,2.798,2.756,4.676
								C280.417,339.25,279.497,340.46,278.202,340.847z"/>
							<path style="fill:#6F63F2;" d="M274.35,341.413l-0.014-0.895c1.018-0.015,1.919-0.725,2.539-2.001
								c0.616-1.27-0.512-3.067-1.336-4.381c-0.309-0.493-0.576-0.919-0.716-1.262c-0.819-1.996-0.708-3.876,0.328-5.589
								l0.767,0.464c-0.881,1.456-0.971,3.067-0.267,4.786c0.112,0.272,0.359,0.667,0.647,1.125
								c0.935,1.491,2.215,3.533,1.382,5.249C276.916,340.48,275.702,341.393,274.35,341.413z"/>
							<path style="fill:#6F63F2;" d="M283.225,338.269l-0.238-0.863c0.133-0.037,0.218-0.101,0.279-0.211
								c0.15-0.274,0.124-0.801-0.073-1.447c-0.35-1.145-2.143-2.475-3.328-3.355c-0.456-0.337-0.849-0.63-1.101-0.858
								c-1.559-1.411-2.512-2.88-2.834-4.365l0.874-0.189c0.282,1.299,1.144,2.607,2.56,3.889c0.237,0.215,0.606,0.487,1.033,0.805
								c1.358,1.006,3.217,2.385,3.651,3.812c0.28,0.914,0.28,1.635,0.002,2.139C283.874,337.946,283.588,338.169,283.225,338.269z"
								/>
						</g>
					</g>
					<g>
						<path style="fill:#6F63F2;" d="M231.654,183.631c9.553-0.763,9.438,12.501,24.938,15.393
							c22.862,4.265,23.683-0.312,30.593,7.039c2.274,2.42,2.108,9.04-2.137,12.815c-5.265,4.683,1.223,12.965,1.38,17.276
							c0.766,21.006-15.505,16.258-33.799,12.184c-13.215-2.943-33.887-10.334-42.59-18.725c-6.614-6.376-8.502-17.17,5.719-27.326
							C223.235,196.948,222.231,184.384,231.654,183.631z"/>
					</g>
					<path style="fill:none;stroke:#4E46AB;stroke-linecap:round;stroke-miterlimit:10;" d="M222.018,201.734
						c0,0,8.292,21.346,48.372,20.626"/>
				</g>
				<path style="fill:#FA8DE3;" d="M291.844,103.122c4.29,0.894,21.797,13.257,19.552,66.735
					c-0.496,11.819-5.061,23.504-7.441,28.368c-7.769,15.881-22.488,22.607-40.634,12.139
					c-28.145-16.236-22.848-63.182-22.68-70.091c0.316-12.973-1.352-28.261,9.737-33.427
					C262.2,101.338,264.834,97.494,291.844,103.122z"/>
				<path style="fill:none;stroke:#A747AD;stroke-linecap:round;stroke-miterlimit:10;" d="M242.55,178.14
					c0,0,1.469,9.022,6.735,17.985"/>
				<path style="fill:#FA8DE3;" d="M300.594,154.445c0.295,4.863,4.475,8.565,9.338,8.27c4.862-0.295,8.565-4.476,8.27-9.338
					c-0.295-4.862-4.476-8.565-9.338-8.27C304.001,145.402,300.299,149.583,300.594,154.445z"/>
				<g>
					<path style="fill:#322A57;" d="M263.964,156.294c1.739,1.122,6.126-0.104,7.872-2.077c2.564-2.897,1.035-4.775,0.474-4.275
						c-0.221,0.198-0.724,0.896-2.533,2.185c-1.277,0.91-2.582,1.338-3.19,1.532c-2.15,0.688-3.385,0.473-3.584,1.102
						C262.85,155.247,263.409,155.936,263.964,156.294z"/>
					<path style="fill:#322A57;" d="M296.989,150.661c0.485,2.011,3.947,3.788,6.58,3.858c3.435,0.092,5.124-1.567,4.008-2.249
						c-0.464-0.283-1.509-0.163-3.505-0.617c-1.529-0.347-2.793-0.813-3.366-1.091c-2.031-0.985-2.777-1.992-3.355-1.674
						C296.905,149.135,296.834,150.019,296.989,150.661z"/>
					<path style="fill:#A747AD;" d="M289.299,152.728l-0.379-4.074c-0.023-0.247,0.157-0.465,0.403-0.488
						c0.238-0.025,0.465,0.158,0.487,0.404l0.379,4.076c0.526,5.678,0.557,6.019,1.005,7.822l0,0c0.001,0,0.749,2.071,6.567,5.772
						c0.64,0.408,1.083,1.201,1.215,2.177c0.184,1.364-0.282,2.816-1.247,3.883c-2.08,2.296-4.946,2.637-6.082,2.677
						c-0.005,0-0.01,0-0.015,0c-0.24,0-0.44-0.19-0.448-0.432c-0.008-0.247,0.185-0.455,0.432-0.463
						c1.021-0.036,3.598-0.339,5.448-2.382c0.79-0.873,1.174-2.056,1.025-3.162c-0.096-0.704-0.398-1.28-0.808-1.541
						c-6.106-3.883-6.883-6.059-6.952-6.294"/>
					<path style="fill:#4A4A4A;" d="M271.799,161.988c0,1.219-0.764,2.208-1.706,2.208s-1.706-0.989-1.706-2.208
						c0-1.219,0.764-2.208,1.706-2.208S271.799,160.769,271.799,161.988z"/>
					<ellipse style="fill:#4A4A4A;" cx="301.909" cy="160.282" rx="1.706" ry="2.208"/>
				</g>
				<g>
					<path style="fill:#4A4A4A;" d="M288.816,189.207c-0.83,2.921-3.376,5.118-5.686,4.905c-2.31-0.212-3.51-2.752-2.68-5.674
						c0.83-2.921,3.376-5.117,5.686-4.905C288.446,183.745,289.646,186.286,288.816,189.207z"/>
					<path style="fill:#ED6D6D;" d="M285.82,193.354c-0.065-0.934-0.455-1.923-1.296-2.779c-1.004-1.022-2.504-1.688-4.081-2.1
						c-0.809,2.906,0.387,5.426,2.688,5.637C284.031,194.195,284.964,193.904,285.82,193.354z"/>
				</g>
				<path style="fill:#322A57;" d="M239.468,163.354c0,0,14.1-1.282,15.382-28.2c0,0,48.639,7.658,56.401-8.973
					c8.973-19.228-14.1-49.992-56.401-32.046C215.464,110.844,220.24,131.308,239.468,163.354z"/>
				<path style="fill:#FFFFFF;" d="M258.918,141.363c0,0-4.155,6.303-1.576,8.739C259.921,152.538,263.646,146.807,258.918,141.363z
					"/>
				<g>
					<path style="fill:#FFFFFF;" d="M319.332,196.446c0.127,2.5-1.797,4.63-4.297,4.758c-2.5,0.127-4.63-1.797-4.758-4.297
						c-0.127-2.5,1.797-4.63,4.297-4.758C317.074,192.022,319.204,193.946,319.332,196.446z"/>
					<path style="fill:#FFFFFF;" d="M320.812,190.224c0.127,2.5-1.797,4.63-4.297,4.758c-2.5,0.127-4.631-1.797-4.758-4.297
						c-0.127-2.5,1.797-4.63,4.297-4.758C318.555,185.8,320.685,187.724,320.812,190.224z"/>
					<path style="fill:#FFFFFF;" d="M324.984,194.173c0.127,2.5-1.797,4.63-4.297,4.758c-2.5,0.127-4.63-1.797-4.758-4.297
						c-0.127-2.5,1.797-4.63,4.297-4.758C322.727,189.749,324.857,191.673,324.984,194.173z"/>
					<path style="fill:#FFFFFF;" d="M287.046,189.194c0.87,0.174,25.921,6.213,25.921,6.213l3.152-5.727L287.046,189.194z"/>
				</g>
				<path style="fill:none;stroke:#A747AD;stroke-width:0.75;stroke-linecap:round;stroke-miterlimit:10;" d="M274.568,162.715
					c0,0-1.239,4.955-5.178,5.051"/>
				<path style="fill:none;stroke:#A747AD;stroke-width:0.75;stroke-linecap:round;stroke-miterlimit:10;" d="M301.108,165.335
					c0,0-3.903-0.952-3.774-4.959"/>
			</g>
			<path style="fill:none;stroke:#322A57;stroke-miterlimit:10;" d="M252.337,132.597c0,0,52.185,18.302,52.679-6.925"/>
			<g>
				<path style="fill:none;stroke:#322A57;stroke-linecap:round;stroke-miterlimit:10;" d="M228.289,122.455
					c-0.533-0.818,7.101-21.635,32.709-34.714"/>
				<path style="fill:none;stroke:#322A57;stroke-linecap:round;stroke-miterlimit:10;" d="M236.636,118.996
					c0,0-2.683-12.696,5.36-23.413"/>
			</g>
			<path style="fill:none;stroke:#652B69;stroke-linecap:round;stroke-miterlimit:10;" d="M270.635,432.175
				c0,0-13.65,16.862-21.679,22.482l1.634,102.863"/>
			<path style="fill:none;stroke:#4E46AB;stroke-linecap:round;stroke-miterlimit:10;" d="M225.03,239.55
				c0,0,17.52,11.13,37.67,11.162"/>
			
				<line style="fill:none;stroke:#4E46AB;stroke-linecap:round;stroke-miterlimit:10;" x1="250.923" y1="325.385" x2="252.63" y2="249.96"/>
		</g>
		<g style="clip-path:url(#SVGID_00000057839437371270248200000009526520055102564995_);">
			<path style="fill:#FA8DE3;" d="M253.29,375.54c8.359,3.309,18.36,5.4,19.53,4.32c2.283-2.108-2.372-4.084-13.946-8.606
				l0.202-1.517c9.072,2.533,22.774,4.543,24.214,0.883c0.709-1.802-9.375-5.545-21.54-8.58c8.984-0.001,27.107,2.463,28.62-0.9
				c2.43-5.4-28.44-6.75-28.44-6.75c8.9-0.024,18.829,0.345,22.98-2.79c4.456-3.365-10.496-4.245-22.26-4.32
				c8.17-6.343,8.305-14.299,5.054-12.446c-4.146,2.364-10.797,5.963-10.797,5.963l-19.58,4.945l-9.253,25.4L253.29,375.54z"/>
			<path style="fill:#473498;" d="M191.19,220.56l12.869,53.665c-9.716,5.89-27.415,12.346-34.59,26.97
				c4.456,3.695,15.416,11.003,40.495,20.756c14.796,5.753,28.853,10.147,35.861,12.239c2.573,0.768,4.049,3.452,3.333,6.04
				l-9.904,35.777c-0.736,2.659-3.502,4.201-6.148,3.417c-9.17-2.715-29.968-9.201-50.508-17.875
				c-16.943-7.155-29.846-14.117-39.447-21.283c-22.823-17.035-24.117-34.15-21.184-45.508
				C132.006,255.881,186.076,223.629,191.19,220.56z"/>
			<path style="fill:none;stroke:#322A57;stroke-linecap:round;stroke-miterlimit:10;" d="M199.768,316.505
				c0,0-29.921-9.608-38.579-23.825"/>
			<path style="fill:none;stroke:#322A57;stroke-linecap:round;stroke-miterlimit:10;" d="M169.68,301.335
				c0,0,0.36-5.535,12.39-13.935"/>
		</g>
		
			<path style="clip-path:url(#SVGID_00000057839437371270248200000009526520055102564995_);fill:none;stroke:#322A57;stroke-linecap:round;stroke-miterlimit:10;" d="
			M310.35,340.08c0,0,5.4-6.84,13.68-6.48"/>
		
			<path style="clip-path:url(#SVGID_00000057839437371270248200000009526520055102564995_);fill:none;stroke:#322A57;stroke-linecap:round;stroke-miterlimit:10;" d="
			M170.52,355.8c0,0,39.36,16.32,69.6,17.76"/>
	</g>
	<path style="fill:none;stroke:#4E46AB;stroke-linecap:round;stroke-miterlimit:10;" d="M238.68,226.44c0,0,18.72,6,29.52-0.72"/>
</g>
</svg>
