<svg xmlns="http://www.w3.org/2000/svg" xmlns:xlink="http://www.w3.org/1999/xlink" width="1080" zoomAndPan="magnify" viewBox="0 0 810 809.999993" height="1080" preserveAspectRatio="xMidYMid meet" version="1.0"><defs><g/><clipPath id="e4ff77eec6"><path d="M 758.984375 493.203125 L 810 493.203125 L 810 591.878906 L 758.984375 591.878906 Z M 758.984375 493.203125 " clip-rule="nonzero"/></clipPath><clipPath id="990edfd550"><path d="M 0.984375 0.203125 L 52 0.203125 L 52 98.878906 L 0.984375 98.878906 Z M 0.984375 0.203125 " clip-rule="nonzero"/></clipPath><clipPath id="c782d57813"><rect x="0" width="52" y="0" height="99"/></clipPath><clipPath id="69f60e4520"><path d="M 758.984375 355.664062 L 810 355.664062 L 810 454.335938 L 758.984375 454.335938 Z M 758.984375 355.664062 " clip-rule="nonzero"/></clipPath><clipPath id="e1a1902fd2"><path d="M 0.984375 0.664062 L 52 0.664062 L 52 99.335938 L 0.984375 99.335938 Z M 0.984375 0.664062 " clip-rule="nonzero"/></clipPath><clipPath id="b58f3ecfa5"><rect x="0" width="52" y="0" height="100"/></clipPath><clipPath id="278ff68e5e"><path d="M 758.984375 218.121094 L 810 218.121094 L 810 316.796875 L 758.984375 316.796875 Z M 758.984375 218.121094 " clip-rule="nonzero"/></clipPath><clipPath id="26b621067a"><path d="M 0.984375 0.121094 L 52 0.121094 L 52 98.796875 L 0.984375 98.796875 Z M 0.984375 0.121094 " clip-rule="nonzero"/></clipPath><clipPath id="ce309df2a4"><rect x="0" width="52" y="0" height="99"/></clipPath><clipPath id="b3e486238c"><path d="M 0 493.203125 L 51.015625 493.203125 L 51.015625 591.878906 L 0 591.878906 Z M 0 493.203125 " clip-rule="nonzero"/></clipPath><clipPath id="fe3d70127c"><path d="M 0 0.203125 L 51 0.203125 L 51 98.878906 L 0 98.878906 Z M 0 0.203125 " clip-rule="nonzero"/></clipPath><clipPath id="33d1fe3818"><rect x="0" width="52" y="0" height="99"/></clipPath><clipPath id="859aaa1f99"><path d="M 0 355.664062 L 51.015625 355.664062 L 51.015625 454.335938 L 0 454.335938 Z M 0 355.664062 " clip-rule="nonzero"/></clipPath><clipPath id="7ed4a82ad6"><path d="M 0 0.664062 L 51 0.664062 L 51 99.335938 L 0 99.335938 Z M 0 0.664062 " clip-rule="nonzero"/></clipPath><clipPath id="10170ca880"><rect x="0" width="52" y="0" height="100"/></clipPath><clipPath id="918f13c2b7"><path d="M 0 218.121094 L 51.015625 218.121094 L 51.015625 316.796875 L 0 316.796875 Z M 0 218.121094 " clip-rule="nonzero"/></clipPath><clipPath id="dc8821d6a3"><path d="M 0 0.121094 L 51 0.121094 L 51 98.796875 L 0 98.796875 Z M 0 0.121094 " clip-rule="nonzero"/></clipPath><clipPath id="a8091a86cd"><rect x="0" width="52" y="0" height="99"/></clipPath><clipPath id="84f9e3ac60"><path d="M 493.203125 754.429688 L 591.875 754.429688 L 591.875 810 L 493.203125 810 Z M 493.203125 754.429688 " clip-rule="nonzero"/></clipPath><clipPath id="f4a28a1054"><path d="M 0.203125 0.429688 L 98.875 0.429688 L 98.875 56 L 0.203125 56 Z M 0.203125 0.429688 " clip-rule="nonzero"/></clipPath><clipPath id="828aaea8c5"><rect x="0" width="99" y="0" height="56"/></clipPath><clipPath id="0db9bcd161"><path d="M 355.664062 754.429688 L 454.335938 754.429688 L 454.335938 810 L 355.664062 810 Z M 355.664062 754.429688 " clip-rule="nonzero"/></clipPath><clipPath id="bf0592e120"><path d="M 0.664062 0.429688 L 99.335938 0.429688 L 99.335938 56 L 0.664062 56 Z M 0.664062 0.429688 " clip-rule="nonzero"/></clipPath><clipPath id="02f7bce8da"><rect x="0" width="100" y="0" height="56"/></clipPath><clipPath id="eca57fdc19"><path d="M 218.121094 754.429688 L 316.792969 754.429688 L 316.792969 810 L 218.121094 810 Z M 218.121094 754.429688 " clip-rule="nonzero"/></clipPath><clipPath id="8e4374b8bd"><path d="M 0.121094 0.429688 L 98.792969 0.429688 L 98.792969 56 L 0.121094 56 Z M 0.121094 0.429688 " clip-rule="nonzero"/></clipPath><clipPath id="6a5339d7ea"><rect x="0" width="99" y="0" height="56"/></clipPath><clipPath id="c2d94a2b8b"><path d="M 220.976562 256.527344 L 589.226562 256.527344 L 589.226562 609.777344 L 220.976562 609.777344 Z M 220.976562 256.527344 " clip-rule="nonzero"/></clipPath><clipPath id="35acf75ff4"><rect x="0" width="494" y="0" height="151"/></clipPath><clipPath id="f50cca1207"><path d="M 250.722656 691 L 318.132812 691 L 318.132812 694.679688 L 250.722656 694.679688 Z M 545.996094 691 L 658 691 L 658 694.679688 L 545.996094 694.679688 Z M 341.132812 691 L 509.824219 691 L 509.824219 694.679688 L 341.132812 694.679688 Z M 532.820312 691 L 533.359375 691 L 533.359375 694.679688 L 532.820312 694.679688 Z M 152 691 L 239.386719 691 L 239.386719 694.679688 L 152 694.679688 Z M 152 694.679688 L 658 694.679688 L 658 695 L 152 695 Z M 152 694.679688 " clip-rule="nonzero"/></clipPath><clipPath id="e0cf59dc83"><path d="M 0.136719 0.71875 L 391.863281 0.71875 L 391.863281 392.449219 L 0.136719 392.449219 Z M 0.136719 0.71875 " clip-rule="nonzero"/></clipPath><clipPath id="8d1e5f776c"><rect x="0" width="392" y="0" height="393"/></clipPath></defs><rect x="-81" width="972" fill="#ffffff" y="-80.999999" height="971.999992" fill-opacity="1"/><rect x="-81" width="972" fill="#fafafa" y="-80.999999" height="971.999992" fill-opacity="1"/><path stroke-linecap="butt" transform="matrix(0, 0.75, -0.75, 0, 104.636535, 55.57033)" fill="none" stroke-linejoin="miter" d="M -0.0000233391 2.499755 L 931.82294 2.499755 " stroke="#262128" stroke-width="5" stroke-opacity="1" stroke-miterlimit="4"/><path stroke-linecap="butt" transform="matrix(0, 0.75, -0.75, 0, 709.107088, 55.57033)" fill="none" stroke-linejoin="miter" d="M -0.0000233391 2.502159 L 931.82294 2.502159 " stroke="#262128" stroke-width="5" stroke-opacity="1" stroke-miterlimit="4"/><g clip-path="url(#e4ff77eec6)"><g transform="matrix(1, 0, 0, 1, 758, 493)"><g clip-path="url(#c782d57813)"><g clip-path="url(#990edfd550)"><path fill="#87c173" d="M 0.984375 0.203125 L 709.425781 0.203125 L 709.425781 98.878906 L 0.984375 98.878906 Z M 0.984375 0.203125 " fill-opacity="1" fill-rule="nonzero"/></g></g></g></g><g clip-path="url(#69f60e4520)"><g transform="matrix(1, 0, 0, 1, 758, 355)"><g clip-path="url(#b58f3ecfa5)"><g clip-path="url(#e1a1902fd2)"><path fill="#87c173" d="M 0.984375 0.664062 L 709.425781 0.664062 L 709.425781 99.335938 L 0.984375 99.335938 Z M 0.984375 0.664062 " fill-opacity="1" fill-rule="nonzero"/></g></g></g></g><g clip-path="url(#278ff68e5e)"><g transform="matrix(1, 0, 0, 1, 758, 218)"><g clip-path="url(#ce309df2a4)"><g clip-path="url(#26b621067a)"><path fill="#87c173" d="M 0.984375 0.121094 L 709.425781 0.121094 L 709.425781 98.796875 L 0.984375 98.796875 Z M 0.984375 0.121094 " fill-opacity="1" fill-rule="nonzero"/></g></g></g></g><g clip-path="url(#b3e486238c)"><g transform="matrix(1, 0, 0, 1, 0, 493)"><g clip-path="url(#33d1fe3818)"><g clip-path="url(#fe3d70127c)"><path fill="#87c173" d="M -657.597656 0.203125 L 50.84375 0.203125 L 50.84375 98.878906 L -657.597656 98.878906 Z M -657.597656 0.203125 " fill-opacity="1" fill-rule="nonzero"/></g></g></g></g><g clip-path="url(#859aaa1f99)"><g transform="matrix(1, 0, 0, 1, 0, 355)"><g clip-path="url(#10170ca880)"><g clip-path="url(#7ed4a82ad6)"><path fill="#87c173" d="M -657.597656 0.664062 L 50.84375 0.664062 L 50.84375 99.335938 L -657.597656 99.335938 Z M -657.597656 0.664062 " fill-opacity="1" fill-rule="nonzero"/></g></g></g></g><g clip-path="url(#918f13c2b7)"><g transform="matrix(1, 0, 0, 1, 0, 218)"><g clip-path="url(#a8091a86cd)"><g clip-path="url(#dc8821d6a3)"><path fill="#87c173" d="M -657.597656 0.121094 L 50.84375 0.121094 L 50.84375 98.796875 L -657.597656 98.796875 Z M -657.597656 0.121094 " fill-opacity="1" fill-rule="nonzero"/></g></g></g></g><g clip-path="url(#84f9e3ac60)"><g transform="matrix(1, 0, 0, 1, 493, 754)"><g clip-path="url(#828aaea8c5)"><g clip-path="url(#f4a28a1054)"><path fill="#87c173" d="M 0.203125 709.042969 L 0.203125 0.601562 L 98.875 0.601562 L 98.875 709.042969 Z M 0.203125 709.042969 " fill-opacity="1" fill-rule="nonzero"/></g></g></g></g><g clip-path="url(#0db9bcd161)"><g transform="matrix(1, 0, 0, 1, 355, 754)"><g clip-path="url(#02f7bce8da)"><g clip-path="url(#bf0592e120)"><path fill="#87c173" d="M 0.664062 709.042969 L 0.664062 0.601562 L 99.335938 0.601562 L 99.335938 709.042969 Z M 0.664062 709.042969 " fill-opacity="1" fill-rule="nonzero"/></g></g></g></g><g clip-path="url(#eca57fdc19)"><g transform="matrix(1, 0, 0, 1, 218, 754)"><g clip-path="url(#6a5339d7ea)"><g clip-path="url(#8e4374b8bd)"><path fill="#87c173" d="M 0.121094 709.042969 L 0.121094 0.601562 L 98.792969 0.601562 L 98.792969 709.042969 Z M 0.121094 709.042969 " fill-opacity="1" fill-rule="nonzero"/></g></g></g></g><g clip-path="url(#c2d94a2b8b)"><path fill="#000000" d="M 534.140625 367.570312 L 554.429688 367.570312 L 554.429688 387.84375 L 534.140625 387.84375 Z M 290.566406 415.558594 L 310.859375 415.558594 L 310.859375 395.285156 L 290.566406 395.285156 Z M 290.566406 387.84375 L 310.859375 387.84375 L 310.859375 367.570312 L 290.566406 367.570312 Z M 220.976562 498.703125 L 241.265625 498.703125 L 241.265625 422.996094 L 220.976562 422.996094 Z M 568.933594 284.425781 L 568.933594 304.699219 L 589.226562 304.699219 L 589.226562 284.425781 Z M 554.429688 256.710938 L 534.140625 256.710938 L 534.140625 276.988281 L 554.429688 276.988281 Z M 464.546875 332.414062 L 484.839844 332.414062 L 484.839844 312.140625 L 464.546875 312.140625 Z M 360.160156 360.128906 L 380.449219 360.128906 L 380.449219 339.855469 L 360.160156 339.855469 Z M 499.34375 581.84375 L 519.632812 581.84375 L 519.632812 561.570312 L 499.34375 561.570312 Z M 360.160156 554.132812 L 380.449219 554.132812 L 380.449219 533.855469 L 360.160156 533.855469 Z M 325.363281 554.132812 L 345.65625 554.132812 L 345.65625 533.855469 L 325.363281 533.855469 Z M 429.75 498.703125 L 450.042969 498.703125 L 450.042969 478.425781 L 429.75 478.425781 Z M 429.75 470.988281 L 450.042969 470.988281 L 450.042969 450.710938 L 429.75 450.710938 Z M 394.957031 498.703125 L 415.246094 498.703125 L 415.246094 478.425781 L 394.957031 478.425781 Z M 583.6875 395.285156 L 574.472656 395.285156 C 571.414062 395.285156 568.933594 397.761719 568.933594 400.816406 L 568.933594 410.023438 C 568.933594 413.082031 571.414062 415.558594 574.472656 415.558594 L 583.6875 415.558594 C 586.746094 415.558594 589.226562 413.082031 589.226562 410.023438 L 589.226562 400.816406 C 589.226562 397.761719 586.746094 395.285156 583.6875 395.285156 Z M 583.6875 367.570312 L 574.472656 367.570312 C 571.414062 367.570312 568.933594 370.046875 568.933594 373.101562 L 568.933594 382.308594 C 568.933594 385.367188 571.414062 387.84375 574.472656 387.84375 L 583.6875 387.84375 C 586.746094 387.84375 589.226562 385.367188 589.226562 382.308594 L 589.226562 373.101562 C 589.226562 370.046875 586.746094 367.570312 583.6875 367.570312 Z M 548.890625 422.996094 L 539.679688 422.996094 C 536.621094 422.996094 534.140625 425.476562 534.140625 428.53125 L 534.140625 437.738281 C 534.140625 440.796875 536.621094 443.273438 539.679688 443.273438 L 548.890625 443.273438 C 551.949219 443.273438 554.429688 440.796875 554.429688 437.738281 L 554.429688 428.53125 C 554.429688 425.476562 551.949219 422.996094 548.890625 422.996094 Z M 514.097656 395.285156 L 504.882812 395.285156 C 501.824219 395.285156 499.34375 397.761719 499.34375 400.816406 L 499.34375 410.023438 C 499.34375 413.082031 501.824219 415.558594 504.882812 415.558594 L 514.097656 415.558594 C 517.15625 415.558594 519.632812 413.082031 519.632812 410.023438 L 519.632812 400.816406 C 519.632812 397.761719 517.15625 395.285156 514.097656 395.285156 Z M 479.300781 422.996094 L 470.085938 422.996094 C 467.027344 422.996094 464.546875 425.476562 464.546875 428.53125 L 464.546875 437.738281 C 464.546875 440.796875 467.027344 443.273438 470.085938 443.273438 L 479.300781 443.273438 C 482.359375 443.273438 484.839844 440.796875 484.839844 437.738281 L 484.839844 428.53125 C 484.839844 425.476562 482.359375 422.996094 479.300781 422.996094 Z M 479.300781 395.285156 L 470.085938 395.285156 C 467.027344 395.285156 464.546875 397.761719 464.546875 400.816406 L 464.546875 410.023438 C 464.546875 413.082031 467.027344 415.558594 470.085938 415.558594 L 479.300781 415.558594 C 482.359375 415.558594 484.839844 413.082031 484.839844 410.023438 L 484.839844 400.816406 C 484.839844 397.761719 482.359375 395.285156 479.300781 395.285156 Z M 479.300781 367.570312 L 470.085938 367.570312 C 467.027344 367.570312 464.546875 370.046875 464.546875 373.101562 L 464.546875 382.308594 C 464.546875 385.367188 467.027344 387.84375 470.085938 387.84375 L 479.300781 387.84375 C 482.359375 387.84375 484.839844 385.367188 484.839844 382.308594 L 484.839844 373.101562 C 484.839844 370.046875 482.359375 367.570312 479.300781 367.570312 Z M 444.503906 422.996094 L 435.289062 422.996094 C 432.230469 422.996094 429.75 425.476562 429.75 428.53125 L 429.75 437.738281 C 429.75 440.796875 432.230469 443.273438 435.289062 443.273438 L 444.503906 443.273438 C 447.5625 443.273438 450.042969 440.796875 450.042969 437.738281 L 450.042969 428.53125 C 450.042969 425.476562 447.5625 422.996094 444.503906 422.996094 Z M 444.503906 395.285156 L 435.289062 395.285156 C 432.230469 395.285156 429.75 397.761719 429.75 400.816406 L 429.75 410.023438 C 429.75 413.082031 432.230469 415.558594 435.289062 415.558594 L 444.503906 415.558594 C 447.5625 415.558594 450.042969 413.082031 450.042969 410.023438 L 450.042969 400.816406 C 450.042969 397.761719 447.5625 395.285156 444.503906 395.285156 Z M 444.503906 367.570312 L 409.710938 367.570312 C 409.710938 367.570312 409.707031 367.570312 409.707031 367.570312 L 400.496094 367.570312 C 398.964844 367.570312 397.582031 368.1875 396.578125 369.191406 C 396.203125 369.566406 395.878906 369.996094 395.625 370.464844 C 395.453125 370.777344 395.3125 371.109375 395.203125 371.457031 C 395.152344 371.628906 395.105469 371.808594 395.066406 371.988281 C 394.996094 372.347656 394.957031 372.722656 394.957031 373.101562 L 394.957031 382.308594 C 394.957031 385.367188 397.433594 387.84375 400.496094 387.84375 L 444.503906 387.84375 C 447.5625 387.84375 450.042969 385.367188 450.042969 382.308594 L 450.042969 373.101562 C 450.042969 370.046875 447.5625 367.570312 444.503906 367.570312 Z M 409.707031 422.996094 L 400.496094 422.996094 C 397.433594 422.996094 394.957031 425.476562 394.957031 428.53125 L 394.957031 437.738281 C 394.957031 440.796875 397.433594 443.273438 400.496094 443.273438 L 409.707031 443.273438 C 412.765625 443.273438 415.246094 440.796875 415.246094 437.738281 L 415.246094 428.53125 C 415.246094 425.476562 412.765625 422.996094 409.707031 422.996094 Z M 374.914062 422.996094 L 365.699219 422.996094 C 362.640625 422.996094 360.160156 425.476562 360.160156 428.53125 L 360.160156 465.453125 C 360.160156 465.835938 360.199219 466.207031 360.273438 466.570312 C 360.308594 466.75 360.355469 466.925781 360.410156 467.097656 C 360.515625 467.445312 360.65625 467.777344 360.828125 468.089844 C 361 468.40625 361.199219 468.699219 361.425781 468.972656 C 362.441406 470.203125 363.976562 470.988281 365.699219 470.988281 L 374.914062 470.988281 C 376.632812 470.988281 378.171875 470.203125 379.1875 468.972656 C 379.410156 468.699219 379.613281 468.40625 379.78125 468.089844 C 379.953125 467.777344 380.09375 467.445312 380.203125 467.097656 C 380.257812 466.925781 380.300781 466.75 380.339844 466.570312 C 380.414062 466.207031 380.449219 465.835938 380.449219 465.453125 L 380.449219 428.53125 C 380.449219 425.476562 377.972656 422.996094 374.914062 422.996094 Z M 374.914062 367.570312 L 365.699219 367.570312 C 362.640625 367.570312 360.160156 370.046875 360.160156 373.101562 L 360.160156 382.308594 C 360.160156 385.367188 362.640625 387.84375 365.699219 387.84375 L 374.914062 387.84375 C 377.972656 387.84375 380.449219 385.367188 380.449219 382.308594 L 380.449219 373.101562 C 380.449219 370.046875 377.972656 367.570312 374.914062 367.570312 Z M 340.117188 422.996094 L 330.902344 422.996094 C 327.84375 422.996094 325.363281 425.476562 325.363281 428.53125 L 325.363281 437.738281 C 325.363281 440.796875 327.84375 443.273438 330.902344 443.273438 L 340.117188 443.273438 C 343.175781 443.273438 345.65625 440.796875 345.65625 437.738281 L 345.65625 428.53125 C 345.65625 425.476562 343.175781 422.996094 340.117188 422.996094 Z M 340.117188 395.285156 L 330.902344 395.285156 C 327.84375 395.285156 325.363281 397.761719 325.363281 400.816406 L 325.363281 410.023438 C 325.363281 413.082031 327.84375 415.558594 330.902344 415.558594 L 340.117188 415.558594 C 343.175781 415.558594 345.65625 413.082031 345.65625 410.023438 L 345.65625 400.816406 C 345.65625 397.761719 343.175781 395.285156 340.117188 395.285156 Z M 340.117188 367.570312 L 330.902344 367.570312 C 327.84375 367.570312 325.363281 370.046875 325.363281 373.101562 L 325.363281 382.308594 C 325.363281 385.367188 327.84375 387.84375 330.902344 387.84375 L 340.117188 387.84375 C 343.175781 387.84375 345.65625 385.367188 345.65625 382.308594 L 345.65625 373.101562 C 345.65625 370.046875 343.175781 367.570312 340.117188 367.570312 Z M 305.320312 422.996094 L 296.105469 422.996094 C 293.046875 422.996094 290.566406 425.476562 290.566406 428.53125 L 290.566406 437.738281 C 290.566406 440.796875 293.046875 443.273438 296.105469 443.273438 L 305.320312 443.273438 C 308.378906 443.273438 310.859375 440.796875 310.859375 437.738281 L 310.859375 428.53125 C 310.859375 425.476562 308.378906 422.996094 305.320312 422.996094 Z M 261.3125 443.273438 L 270.523438 443.273438 C 273.582031 443.273438 276.0625 440.796875 276.0625 437.738281 L 276.0625 428.53125 C 276.0625 425.476562 273.582031 422.996094 270.523438 422.996094 L 261.3125 422.996094 C 258.253906 422.996094 255.773438 425.476562 255.773438 428.53125 L 255.773438 437.738281 C 255.773438 440.796875 258.253906 443.273438 261.3125 443.273438 Z M 261.3125 415.558594 L 270.523438 415.558594 C 273.582031 415.558594 276.0625 413.082031 276.0625 410.023438 L 276.0625 400.816406 C 276.0625 397.761719 273.582031 395.285156 270.523438 395.285156 L 261.3125 395.285156 C 258.253906 395.285156 255.773438 397.761719 255.773438 400.816406 L 255.773438 410.023438 C 255.773438 413.082031 258.253906 415.558594 261.3125 415.558594 Z M 261.3125 387.84375 L 270.523438 387.84375 C 273.582031 387.84375 276.0625 385.367188 276.0625 382.308594 L 276.0625 373.101562 C 276.0625 370.046875 273.582031 367.570312 270.523438 367.570312 L 261.3125 367.570312 C 258.253906 367.570312 255.773438 370.046875 255.773438 373.101562 L 255.773438 382.308594 C 255.773438 385.367188 258.253906 387.84375 261.3125 387.84375 Z M 226.515625 387.84375 L 235.730469 387.84375 C 238.789062 387.84375 241.265625 385.367188 241.265625 382.308594 L 241.265625 373.101562 C 241.265625 370.046875 238.789062 367.570312 235.730469 367.570312 L 226.515625 367.570312 C 223.457031 367.570312 220.976562 370.046875 220.976562 373.101562 L 220.976562 382.308594 C 220.976562 385.367188 223.457031 387.84375 226.515625 387.84375 Z M 548.890625 339.855469 L 539.679688 339.855469 C 536.621094 339.855469 534.140625 342.332031 534.140625 345.386719 L 534.140625 354.59375 C 534.140625 357.652344 536.621094 360.128906 539.679688 360.128906 L 548.890625 360.128906 C 551.949219 360.128906 554.429688 357.652344 554.429688 354.59375 L 554.429688 345.386719 C 554.429688 342.332031 551.949219 339.855469 548.890625 339.855469 Z M 583.6875 312.140625 L 539.679688 312.140625 C 536.621094 312.140625 534.140625 314.617188 534.140625 317.675781 L 534.140625 326.882812 C 534.140625 329.9375 536.621094 332.414062 539.679688 332.414062 L 583.6875 332.414062 C 585.21875 332.414062 586.601562 331.796875 587.605469 330.792969 C 588.480469 329.917969 589.066406 328.75 589.199219 327.445312 C 589.214844 327.261719 589.226562 327.070312 589.226562 326.882812 L 589.226562 317.675781 C 589.226562 314.617188 586.746094 312.140625 583.6875 312.140625 Z M 514.097656 339.855469 L 504.882812 339.855469 C 501.824219 339.855469 499.34375 342.332031 499.34375 345.386719 L 499.34375 354.59375 C 499.34375 357.652344 501.824219 360.128906 504.882812 360.128906 L 514.097656 360.128906 C 517.15625 360.128906 519.632812 357.652344 519.632812 354.59375 L 519.632812 345.386719 C 519.632812 342.332031 517.15625 339.855469 514.097656 339.855469 Z M 514.097656 312.140625 L 504.882812 312.140625 C 501.824219 312.140625 499.34375 314.617188 499.34375 317.675781 L 499.34375 326.882812 C 499.34375 329.9375 501.824219 332.414062 504.882812 332.414062 L 514.097656 332.414062 C 517.15625 332.414062 519.632812 329.9375 519.632812 326.882812 L 519.632812 317.675781 C 519.632812 314.617188 517.15625 312.140625 514.097656 312.140625 Z M 514.097656 284.425781 L 504.882812 284.425781 C 501.824219 284.425781 499.34375 286.902344 499.34375 289.960938 L 499.34375 299.167969 C 499.34375 302.222656 501.824219 304.699219 504.882812 304.699219 L 514.097656 304.699219 C 517.15625 304.699219 519.632812 302.222656 519.632812 299.167969 L 519.632812 289.960938 C 519.632812 286.902344 517.15625 284.425781 514.097656 284.425781 Z M 514.097656 256.710938 L 504.882812 256.710938 C 501.824219 256.710938 499.34375 259.1875 499.34375 262.246094 L 499.34375 271.453125 C 499.34375 274.507812 501.824219 276.988281 504.882812 276.988281 L 514.097656 276.988281 C 517.15625 276.988281 519.632812 274.507812 519.632812 271.453125 L 519.632812 262.246094 C 519.632812 259.1875 517.15625 256.710938 514.097656 256.710938 Z M 479.300781 339.855469 L 470.085938 339.855469 C 467.027344 339.855469 464.546875 342.332031 464.546875 345.386719 L 464.546875 354.59375 C 464.546875 357.652344 467.027344 360.128906 470.085938 360.128906 L 479.300781 360.128906 C 482.359375 360.128906 484.839844 357.652344 484.839844 354.59375 L 484.839844 345.386719 C 484.839844 342.332031 482.359375 339.855469 479.300781 339.855469 Z M 435.289062 360.128906 L 444.503906 360.128906 C 447.5625 360.128906 450.042969 357.652344 450.042969 354.59375 L 450.042969 317.675781 C 450.042969 314.617188 447.5625 312.140625 444.503906 312.140625 L 435.289062 312.140625 C 432.230469 312.140625 429.75 314.617188 429.75 317.675781 L 429.75 354.59375 C 429.75 357.652344 432.230469 360.128906 435.289062 360.128906 Z M 435.289062 304.699219 L 444.503906 304.699219 C 447.5625 304.699219 450.042969 302.222656 450.042969 299.167969 L 450.042969 289.960938 C 450.042969 286.902344 447.5625 284.425781 444.503906 284.425781 L 435.289062 284.425781 C 432.230469 284.425781 429.75 286.902344 429.75 289.960938 L 429.75 299.167969 C 429.75 302.222656 432.230469 304.699219 435.289062 304.699219 Z M 435.289062 276.988281 L 444.503906 276.988281 C 447.5625 276.988281 450.042969 274.507812 450.042969 271.453125 L 450.042969 262.246094 C 450.042969 259.1875 447.5625 256.710938 444.503906 256.710938 L 435.289062 256.710938 C 432.230469 256.710938 429.75 259.1875 429.75 262.246094 L 429.75 271.453125 C 429.75 274.507812 432.230469 276.988281 435.289062 276.988281 Z M 409.707031 312.140625 L 400.496094 312.140625 C 397.433594 312.140625 394.957031 314.617188 394.957031 317.675781 L 394.957031 326.882812 C 394.957031 329.9375 397.433594 332.414062 400.496094 332.414062 L 409.707031 332.414062 C 412.765625 332.414062 415.246094 329.9375 415.246094 326.882812 L 415.246094 317.675781 C 415.246094 314.617188 412.765625 312.140625 409.707031 312.140625 Z M 374.914062 312.140625 L 365.699219 312.140625 C 362.640625 312.140625 360.160156 314.617188 360.160156 317.675781 L 360.160156 326.882812 C 360.160156 329.9375 362.640625 332.414062 365.699219 332.414062 L 374.914062 332.414062 C 377.972656 332.414062 380.449219 329.9375 380.449219 326.882812 L 380.449219 317.675781 C 380.449219 314.617188 377.972656 312.140625 374.914062 312.140625 Z M 365.699219 276.988281 L 374.914062 276.988281 C 377.972656 276.988281 380.449219 274.507812 380.449219 271.453125 L 380.449219 262.246094 C 380.449219 259.1875 377.972656 256.710938 374.914062 256.710938 L 365.699219 256.710938 C 362.640625 256.710938 360.160156 259.1875 360.160156 262.246094 L 360.160156 271.453125 C 360.160156 274.507812 362.640625 276.988281 365.699219 276.988281 Z M 340.117188 339.855469 L 330.902344 339.855469 C 327.84375 339.855469 325.363281 342.332031 325.363281 345.386719 L 325.363281 354.59375 C 325.363281 357.652344 327.84375 360.128906 330.902344 360.128906 L 340.117188 360.128906 C 343.175781 360.128906 345.65625 357.652344 345.65625 354.59375 L 345.65625 345.386719 C 345.65625 342.332031 343.175781 339.855469 340.117188 339.855469 Z M 340.117188 312.140625 L 330.902344 312.140625 C 327.84375 312.140625 325.363281 314.617188 325.363281 317.675781 L 325.363281 326.882812 C 325.363281 329.9375 327.84375 332.414062 330.902344 332.414062 L 340.117188 332.414062 C 343.175781 332.414062 345.65625 329.9375 345.65625 326.882812 L 345.65625 317.675781 C 345.65625 314.617188 343.175781 312.140625 340.117188 312.140625 Z M 330.902344 304.699219 L 409.707031 304.699219 C 409.898438 304.699219 410.089844 304.691406 410.273438 304.671875 C 411.765625 304.519531 413.078125 303.78125 413.980469 302.6875 C 414.773438 301.730469 415.246094 300.503906 415.246094 299.167969 L 415.246094 289.960938 C 415.246094 289.769531 415.238281 289.578125 415.21875 289.394531 C 415.085938 288.109375 414.515625 286.953125 413.65625 286.082031 C 413.644531 286.070312 413.636719 286.058594 413.625 286.046875 C 413.613281 286.035156 413.601562 286.023438 413.589844 286.015625 C 412.714844 285.15625 411.5625 284.585938 410.273438 284.453125 C 410.089844 284.433594 409.898438 284.425781 409.707031 284.425781 L 330.902344 284.425781 C 327.84375 284.425781 325.363281 286.902344 325.363281 289.960938 L 325.363281 299.167969 C 325.363281 302.222656 327.84375 304.699219 330.902344 304.699219 Z M 330.902344 276.988281 L 340.117188 276.988281 C 343.175781 276.988281 345.65625 274.507812 345.65625 271.453125 L 345.65625 262.246094 C 345.65625 259.1875 343.175781 256.710938 340.117188 256.710938 L 330.902344 256.710938 C 327.84375 256.710938 325.363281 259.1875 325.363281 262.246094 L 325.363281 271.453125 C 325.363281 274.507812 327.84375 276.988281 330.902344 276.988281 Z M 305.320312 284.425781 L 296.105469 284.425781 C 293.046875 284.425781 290.566406 286.902344 290.566406 289.960938 L 290.566406 299.167969 C 290.566406 302.222656 293.046875 304.699219 296.105469 304.699219 L 305.320312 304.699219 C 308.378906 304.699219 310.859375 302.222656 310.859375 299.167969 L 310.859375 289.960938 C 310.859375 286.902344 308.378906 284.425781 305.320312 284.425781 Z M 305.320312 256.710938 L 296.105469 256.710938 C 293.046875 256.710938 290.566406 259.1875 290.566406 262.246094 L 290.566406 271.453125 C 290.566406 274.507812 293.046875 276.988281 296.105469 276.988281 L 305.320312 276.988281 C 308.378906 276.988281 310.859375 274.507812 310.859375 271.453125 L 310.859375 262.246094 C 310.859375 259.1875 308.378906 256.710938 305.320312 256.710938 Z M 261.3125 360.128906 L 270.523438 360.128906 C 273.582031 360.128906 276.0625 357.652344 276.0625 354.59375 L 276.0625 345.386719 C 276.0625 342.332031 273.582031 339.855469 270.523438 339.855469 L 261.3125 339.855469 C 258.253906 339.855469 255.773438 342.332031 255.773438 345.386719 L 255.773438 354.59375 C 255.773438 357.652344 258.253906 360.128906 261.3125 360.128906 Z M 261.3125 304.699219 L 270.523438 304.699219 C 273.582031 304.699219 276.0625 302.222656 276.0625 299.167969 L 276.0625 289.960938 C 276.0625 286.902344 273.582031 284.425781 270.523438 284.425781 L 261.3125 284.425781 C 258.253906 284.425781 255.773438 286.902344 255.773438 289.960938 L 255.773438 299.167969 C 255.773438 302.222656 258.253906 304.699219 261.3125 304.699219 Z M 261.3125 276.988281 L 270.523438 276.988281 C 273.582031 276.988281 276.0625 274.507812 276.0625 271.453125 L 276.0625 262.246094 C 276.0625 259.1875 273.582031 256.710938 270.523438 256.710938 L 261.3125 256.710938 C 258.253906 256.710938 255.773438 259.1875 255.773438 262.246094 L 255.773438 271.453125 C 255.773438 274.507812 258.253906 276.988281 261.3125 276.988281 Z M 226.515625 360.128906 L 235.730469 360.128906 C 238.789062 360.128906 241.265625 357.652344 241.265625 354.59375 L 241.265625 345.386719 C 241.265625 342.332031 238.789062 339.855469 235.730469 339.855469 L 226.515625 339.855469 C 223.457031 339.855469 220.976562 342.332031 220.976562 345.386719 L 220.976562 354.59375 C 220.976562 357.652344 223.457031 360.128906 226.515625 360.128906 Z M 226.515625 332.414062 L 235.730469 332.414062 C 238.789062 332.414062 241.265625 329.9375 241.265625 326.882812 L 241.265625 317.675781 C 241.265625 314.617188 238.789062 312.140625 235.730469 312.140625 L 226.515625 312.140625 C 223.457031 312.140625 220.976562 314.617188 220.976562 317.675781 L 220.976562 326.882812 C 220.976562 329.9375 223.457031 332.414062 226.515625 332.414062 Z M 226.515625 276.988281 L 235.730469 276.988281 C 238.789062 276.988281 241.265625 274.507812 241.265625 271.453125 L 241.265625 262.246094 C 241.265625 259.1875 238.789062 256.710938 235.730469 256.710938 L 226.515625 256.710938 C 223.457031 256.710938 220.976562 259.1875 220.976562 262.246094 L 220.976562 271.453125 C 220.976562 274.507812 223.457031 276.988281 226.515625 276.988281 Z M 583.6875 561.570312 L 574.472656 561.570312 C 571.414062 561.570312 568.933594 564.046875 568.933594 567.105469 L 568.933594 576.3125 C 568.933594 579.367188 571.414062 581.84375 574.472656 581.84375 L 583.6875 581.84375 C 586.746094 581.84375 589.226562 579.367188 589.226562 576.3125 L 589.226562 567.105469 C 589.226562 564.046875 586.746094 561.570312 583.6875 561.570312 Z M 583.6875 533.855469 L 574.472656 533.855469 C 571.414062 533.855469 568.933594 536.332031 568.933594 539.390625 L 568.933594 548.597656 C 568.933594 551.652344 571.414062 554.132812 574.472656 554.132812 L 583.6875 554.132812 C 586.746094 554.132812 589.226562 551.652344 589.226562 548.597656 L 589.226562 539.390625 C 589.226562 536.332031 586.746094 533.855469 583.6875 533.855469 Z M 548.890625 589.285156 L 539.679688 589.285156 C 536.621094 589.285156 534.140625 591.761719 534.140625 594.820312 L 534.140625 604.027344 C 534.140625 607.082031 536.621094 609.558594 539.679688 609.558594 L 548.890625 609.558594 C 551.949219 609.558594 554.429688 607.082031 554.429688 604.027344 L 554.429688 594.820312 C 554.429688 591.761719 551.949219 589.285156 548.890625 589.285156 Z M 548.890625 533.855469 L 539.679688 533.855469 C 536.621094 533.855469 534.140625 536.332031 534.140625 539.390625 L 534.140625 548.597656 C 534.140625 551.652344 536.621094 554.132812 539.679688 554.132812 L 548.890625 554.132812 C 551.949219 554.132812 554.429688 551.652344 554.429688 548.597656 L 554.429688 539.390625 C 554.429688 536.332031 551.949219 533.855469 548.890625 533.855469 Z M 479.300781 589.285156 L 470.085938 589.285156 C 467.027344 589.285156 464.546875 591.761719 464.546875 594.820312 L 464.546875 604.027344 C 464.546875 607.082031 467.027344 609.558594 470.085938 609.558594 L 479.300781 609.558594 C 482.359375 609.558594 484.839844 607.082031 484.839844 604.027344 L 484.839844 594.820312 C 484.839844 591.761719 482.359375 589.285156 479.300781 589.285156 Z M 479.300781 561.570312 L 470.085938 561.570312 C 467.027344 561.570312 464.546875 564.046875 464.546875 567.105469 L 464.546875 576.3125 C 464.546875 579.367188 467.027344 581.84375 470.085938 581.84375 L 479.300781 581.84375 C 482.359375 581.84375 484.839844 579.367188 484.839844 576.3125 L 484.839844 567.105469 C 484.839844 564.046875 482.359375 561.570312 479.300781 561.570312 Z M 479.300781 533.855469 L 470.085938 533.855469 C 467.027344 533.855469 464.546875 536.332031 464.546875 539.390625 L 464.546875 548.597656 C 464.546875 551.652344 467.027344 554.132812 470.085938 554.132812 L 479.300781 554.132812 C 482.359375 554.132812 484.839844 551.652344 484.839844 548.597656 L 484.839844 539.390625 C 484.839844 536.332031 482.359375 533.855469 479.300781 533.855469 Z M 444.503906 589.285156 L 435.289062 589.285156 C 432.230469 589.285156 429.75 591.761719 429.75 594.820312 L 429.75 604.027344 C 429.75 607.082031 432.230469 609.558594 435.289062 609.558594 L 444.503906 609.558594 C 447.5625 609.558594 450.042969 607.082031 450.042969 604.027344 L 450.042969 594.820312 C 450.042969 591.761719 447.5625 589.285156 444.503906 589.285156 Z M 444.503906 561.570312 L 435.289062 561.570312 C 432.230469 561.570312 429.75 564.046875 429.75 567.105469 L 429.75 576.3125 C 429.75 579.367188 432.230469 581.84375 435.289062 581.84375 L 444.503906 581.84375 C 447.5625 581.84375 450.042969 579.367188 450.042969 576.3125 L 450.042969 567.105469 C 450.042969 564.046875 447.5625 561.570312 444.503906 561.570312 Z M 444.503906 533.855469 L 435.289062 533.855469 C 432.230469 533.855469 429.75 536.332031 429.75 539.390625 L 429.75 548.597656 C 429.75 551.652344 432.230469 554.132812 435.289062 554.132812 L 444.503906 554.132812 C 447.5625 554.132812 450.042969 551.652344 450.042969 548.597656 L 450.042969 539.390625 C 450.042969 536.332031 447.5625 533.855469 444.503906 533.855469 Z M 409.707031 589.285156 L 400.496094 589.285156 C 397.433594 589.285156 394.957031 591.761719 394.957031 594.820312 L 394.957031 604.027344 C 394.957031 607.082031 397.433594 609.558594 400.496094 609.558594 L 409.707031 609.558594 C 412.765625 609.558594 415.246094 607.082031 415.246094 604.027344 L 415.246094 594.820312 C 415.246094 591.761719 412.765625 589.285156 409.707031 589.285156 Z M 409.707031 533.855469 L 400.496094 533.855469 C 397.433594 533.855469 394.957031 536.332031 394.957031 539.390625 L 394.957031 548.597656 C 394.957031 551.652344 397.433594 554.132812 400.496094 554.132812 L 409.707031 554.132812 C 412.765625 554.132812 415.246094 551.652344 415.246094 548.597656 L 415.246094 539.390625 C 415.246094 536.332031 412.765625 533.855469 409.707031 533.855469 Z M 374.914062 589.285156 L 365.699219 589.285156 C 362.640625 589.285156 360.160156 591.761719 360.160156 594.820312 L 360.160156 604.027344 C 360.160156 607.082031 362.640625 609.558594 365.699219 609.558594 L 374.914062 609.558594 C 377.972656 609.558594 380.449219 607.082031 380.449219 604.027344 L 380.449219 594.820312 C 380.449219 591.761719 377.972656 589.285156 374.914062 589.285156 Z M 340.117188 589.285156 L 330.902344 589.285156 C 327.84375 589.285156 325.363281 591.761719 325.363281 594.820312 L 325.363281 604.027344 C 325.363281 607.082031 327.84375 609.558594 330.902344 609.558594 L 340.117188 609.558594 C 343.175781 609.558594 345.65625 607.082031 345.65625 604.027344 L 345.65625 594.820312 C 345.65625 591.761719 343.175781 589.285156 340.117188 589.285156 Z M 340.117188 561.570312 L 330.902344 561.570312 C 327.84375 561.570312 325.363281 564.046875 325.363281 567.105469 L 325.363281 576.3125 C 325.363281 579.367188 327.84375 581.84375 330.902344 581.84375 L 340.117188 581.84375 C 343.175781 581.84375 345.65625 579.367188 345.65625 576.3125 L 345.65625 567.105469 C 345.65625 564.046875 343.175781 561.570312 340.117188 561.570312 Z M 305.320312 589.285156 L 296.105469 589.285156 C 293.046875 589.285156 290.566406 591.761719 290.566406 594.820312 L 290.566406 604.027344 C 290.566406 607.082031 293.046875 609.558594 296.105469 609.558594 L 305.320312 609.558594 C 308.378906 609.558594 310.859375 607.082031 310.859375 604.027344 L 310.859375 594.820312 C 310.859375 591.761719 308.378906 589.285156 305.320312 589.285156 Z M 305.320312 533.855469 L 296.105469 533.855469 C 293.046875 533.855469 290.566406 536.332031 290.566406 539.390625 L 290.566406 548.597656 C 290.566406 551.652344 293.046875 554.132812 296.105469 554.132812 L 305.320312 554.132812 C 308.378906 554.132812 310.859375 551.652344 310.859375 548.597656 L 310.859375 539.390625 C 310.859375 536.332031 308.378906 533.855469 305.320312 533.855469 Z M 270.523438 589.285156 L 261.3125 589.285156 C 258.253906 589.285156 255.773438 591.761719 255.773438 594.820312 L 255.773438 604.027344 C 255.773438 607.082031 258.253906 609.558594 261.3125 609.558594 L 270.523438 609.558594 C 273.582031 609.558594 276.0625 607.082031 276.0625 604.027344 L 276.0625 594.820312 C 276.0625 591.761719 273.582031 589.285156 270.523438 589.285156 Z M 261.3125 581.84375 L 270.523438 581.84375 C 270.527344 581.84375 270.527344 581.84375 270.53125 581.84375 L 305.320312 581.84375 C 308.378906 581.84375 310.859375 579.367188 310.859375 576.3125 L 310.859375 567.105469 C 310.859375 564.046875 308.378906 561.570312 305.320312 561.570312 L 261.308594 561.570312 C 258.25 561.570312 255.773438 564.046875 255.773438 567.105469 L 255.773438 576.3125 C 255.773438 577.648438 256.246094 578.875 257.035156 579.832031 C 258.054688 581.0625 259.589844 581.84375 261.3125 581.84375 Z M 261.3125 554.132812 L 270.523438 554.132812 C 273.582031 554.132812 276.0625 551.652344 276.0625 548.597656 L 276.0625 539.390625 C 276.0625 536.332031 273.582031 533.855469 270.523438 533.855469 L 261.3125 533.855469 C 258.253906 533.855469 255.773438 536.332031 255.773438 539.390625 L 255.773438 548.597656 C 255.773438 551.652344 258.253906 554.132812 261.3125 554.132812 Z M 235.730469 589.285156 L 226.515625 589.285156 C 223.457031 589.285156 220.976562 591.761719 220.976562 594.820312 L 220.976562 604.027344 C 220.976562 607.082031 223.457031 609.558594 226.515625 609.558594 L 235.730469 609.558594 C 238.789062 609.558594 241.265625 607.082031 241.265625 604.027344 L 241.265625 594.820312 C 241.265625 591.761719 238.789062 589.285156 235.730469 589.285156 Z M 235.730469 533.855469 L 226.515625 533.855469 C 223.457031 533.855469 220.976562 536.332031 220.976562 539.390625 L 220.976562 548.597656 C 220.976562 551.652344 223.457031 554.132812 226.515625 554.132812 L 235.730469 554.132812 C 238.789062 554.132812 241.265625 551.652344 241.265625 548.597656 L 241.265625 539.390625 C 241.265625 536.332031 238.789062 533.855469 235.730469 533.855469 Z M 583.6875 478.425781 L 574.472656 478.425781 C 571.414062 478.425781 568.933594 480.90625 568.933594 483.960938 L 568.933594 493.167969 C 568.933594 496.222656 571.414062 498.703125 574.472656 498.703125 L 583.6875 498.703125 C 586.746094 498.703125 589.226562 496.222656 589.226562 493.167969 L 589.226562 483.960938 C 589.226562 480.90625 586.746094 478.425781 583.6875 478.425781 Z M 583.6875 450.710938 L 574.472656 450.710938 C 571.414062 450.710938 568.933594 453.191406 568.933594 456.246094 L 568.933594 465.453125 C 568.933594 468.511719 571.414062 470.988281 574.472656 470.988281 L 583.6875 470.988281 C 586.746094 470.988281 589.226562 468.511719 589.226562 465.453125 L 589.226562 456.246094 C 589.226562 453.191406 586.746094 450.710938 583.6875 450.710938 Z M 548.890625 506.140625 L 539.679688 506.140625 C 536.621094 506.140625 534.140625 508.617188 534.140625 511.675781 L 534.140625 520.882812 C 534.140625 523.9375 536.621094 526.417969 539.679688 526.417969 L 548.890625 526.417969 C 551.949219 526.417969 554.429688 523.9375 554.429688 520.882812 L 554.429688 511.675781 C 554.429688 508.617188 551.949219 506.140625 548.890625 506.140625 Z M 548.890625 478.425781 L 539.679688 478.425781 C 536.621094 478.425781 534.140625 480.90625 534.140625 483.960938 L 534.140625 493.167969 C 534.140625 496.222656 536.621094 498.703125 539.679688 498.703125 L 548.890625 498.703125 C 551.949219 498.703125 554.429688 496.222656 554.429688 493.167969 L 554.429688 483.960938 C 554.429688 480.90625 551.949219 478.425781 548.890625 478.425781 Z M 514.097656 506.140625 L 504.882812 506.140625 C 501.824219 506.140625 499.34375 508.617188 499.34375 511.675781 L 499.34375 520.882812 C 499.34375 523.9375 501.824219 526.417969 504.882812 526.417969 L 514.097656 526.417969 C 517.15625 526.417969 519.632812 523.9375 519.632812 520.882812 L 519.632812 511.675781 C 519.632812 508.617188 517.15625 506.140625 514.097656 506.140625 Z M 514.097656 478.425781 L 504.882812 478.425781 C 501.824219 478.425781 499.34375 480.90625 499.34375 483.960938 L 499.34375 493.167969 C 499.34375 496.222656 501.824219 498.703125 504.882812 498.703125 L 514.097656 498.703125 C 517.15625 498.703125 519.632812 496.222656 519.632812 493.167969 L 519.632812 483.960938 C 519.632812 480.90625 517.15625 478.425781 514.097656 478.425781 Z M 514.097656 450.710938 L 504.882812 450.710938 C 501.824219 450.710938 499.34375 453.191406 499.34375 456.246094 L 499.34375 465.453125 C 499.34375 468.511719 501.824219 470.988281 504.882812 470.988281 L 514.097656 470.988281 C 517.15625 470.988281 519.632812 468.511719 519.632812 465.453125 L 519.632812 456.246094 C 519.632812 453.191406 517.15625 450.710938 514.097656 450.710938 Z M 479.300781 506.140625 L 470.085938 506.140625 C 467.027344 506.140625 464.546875 508.617188 464.546875 511.675781 L 464.546875 520.882812 C 464.546875 523.9375 467.027344 526.417969 470.085938 526.417969 L 479.300781 526.417969 C 482.359375 526.417969 484.839844 523.9375 484.839844 520.882812 L 484.839844 511.675781 C 484.839844 508.617188 482.359375 506.140625 479.300781 506.140625 Z M 479.300781 478.425781 L 470.085938 478.425781 C 467.027344 478.425781 464.546875 480.90625 464.546875 483.960938 L 464.546875 493.167969 C 464.546875 496.222656 467.027344 498.703125 470.085938 498.703125 L 479.300781 498.703125 C 482.359375 498.703125 484.839844 496.222656 484.839844 493.167969 L 484.839844 483.960938 C 484.839844 480.90625 482.359375 478.425781 479.300781 478.425781 Z M 409.707031 450.710938 L 400.496094 450.710938 C 397.433594 450.710938 394.957031 453.191406 394.957031 456.246094 L 394.957031 465.453125 C 394.957031 468.511719 397.433594 470.988281 400.496094 470.988281 L 409.707031 470.988281 C 412.765625 470.988281 415.246094 468.511719 415.246094 465.453125 L 415.246094 456.246094 C 415.246094 453.191406 412.765625 450.710938 409.707031 450.710938 Z M 374.914062 506.140625 L 365.699219 506.140625 C 362.640625 506.140625 360.160156 508.617188 360.160156 511.675781 L 360.160156 520.882812 C 360.160156 523.9375 362.640625 526.417969 365.699219 526.417969 L 374.914062 526.417969 C 377.972656 526.417969 380.449219 523.9375 380.449219 520.882812 L 380.449219 511.675781 C 380.449219 508.617188 377.972656 506.140625 374.914062 506.140625 Z M 374.914062 478.425781 L 365.699219 478.425781 C 362.640625 478.425781 360.160156 480.90625 360.160156 483.960938 L 360.160156 493.167969 C 360.160156 496.222656 362.640625 498.703125 365.699219 498.703125 L 374.914062 498.703125 C 377.972656 498.703125 380.449219 496.222656 380.449219 493.167969 L 380.449219 483.960938 C 380.449219 480.90625 377.972656 478.425781 374.914062 478.425781 Z M 340.117188 506.140625 L 330.902344 506.140625 C 327.84375 506.140625 325.363281 508.617188 325.363281 511.675781 L 325.363281 520.882812 C 325.363281 523.9375 327.84375 526.417969 330.902344 526.417969 L 340.117188 526.417969 C 343.175781 526.417969 345.65625 523.9375 345.65625 520.882812 L 345.65625 511.675781 C 345.65625 508.617188 343.175781 506.140625 340.117188 506.140625 Z M 340.117188 478.425781 L 330.902344 478.425781 C 327.84375 478.425781 325.363281 480.90625 325.363281 483.960938 L 325.363281 493.167969 C 325.363281 496.222656 327.84375 498.703125 330.902344 498.703125 L 340.117188 498.703125 C 343.175781 498.703125 345.65625 496.222656 345.65625 493.167969 L 345.65625 483.960938 C 345.65625 480.90625 343.175781 478.425781 340.117188 478.425781 Z M 340.117188 450.710938 L 330.902344 450.710938 C 327.84375 450.710938 325.363281 453.191406 325.363281 456.246094 L 325.363281 465.453125 C 325.363281 468.511719 327.84375 470.988281 330.902344 470.988281 L 340.117188 470.988281 C 343.175781 470.988281 345.65625 468.511719 345.65625 465.453125 L 345.65625 456.246094 C 345.65625 453.191406 343.175781 450.710938 340.117188 450.710938 Z M 305.320312 450.710938 L 296.105469 450.710938 C 293.046875 450.710938 290.566406 453.191406 290.566406 456.246094 L 290.566406 465.453125 C 290.566406 468.511719 293.046875 470.988281 296.105469 470.988281 L 305.320312 470.988281 C 308.378906 470.988281 310.859375 468.511719 310.859375 465.453125 L 310.859375 456.246094 C 310.859375 453.191406 308.378906 450.710938 305.320312 450.710938 Z M 261.3125 526.417969 L 270.523438 526.417969 C 273.582031 526.417969 276.0625 523.9375 276.0625 520.882812 L 276.0625 511.675781 C 276.0625 508.617188 273.582031 506.140625 270.523438 506.140625 L 261.3125 506.140625 C 258.253906 506.140625 255.773438 508.617188 255.773438 511.675781 L 255.773438 520.882812 C 255.773438 523.9375 258.253906 526.417969 261.3125 526.417969 Z M 261.3125 470.988281 L 270.523438 470.988281 C 273.582031 470.988281 276.0625 468.511719 276.0625 465.453125 L 276.0625 456.246094 C 276.0625 453.191406 273.582031 450.710938 270.523438 450.710938 L 261.3125 450.710938 C 258.253906 450.710938 255.773438 453.191406 255.773438 456.246094 L 255.773438 465.453125 C 255.773438 468.511719 258.253906 470.988281 261.3125 470.988281 Z M 235.730469 506.140625 L 226.515625 506.140625 C 223.457031 506.140625 220.976562 508.617188 220.976562 511.675781 L 220.976562 520.882812 C 220.976562 523.9375 223.457031 526.417969 226.515625 526.417969 L 235.730469 526.417969 C 238.789062 526.417969 241.265625 523.9375 241.265625 520.882812 L 241.265625 511.675781 C 241.265625 508.617188 238.789062 506.140625 235.730469 506.140625 Z M 235.730469 506.140625 " fill-opacity="1" fill-rule="nonzero"/></g><g transform="matrix(1, 0, 0, 1, 158, 41)"><g clip-path="url(#35acf75ff4)"><g fill="#262128" fill-opacity="1"><g transform="translate(2.312973, 110.387335)"><g><path d="M 34.078125 0.75 C 28.546875 0.75 23.585938 -0.144531 19.203125 -1.9375 C 14.816406 -3.738281 11.3125 -6.398438 8.6875 -9.921875 C 6.0625 -13.441406 4.675781 -17.6875 4.53125 -22.65625 L 24.15625 -22.65625 C 24.445312 -19.84375 25.414062 -17.695312 27.0625 -16.21875 C 28.71875 -14.75 30.878906 -14.015625 33.546875 -14.015625 C 36.273438 -14.015625 38.429688 -14.644531 40.015625 -15.90625 C 41.597656 -17.164062 42.390625 -18.910156 42.390625 -21.140625 C 42.390625 -23.003906 41.757812 -24.546875 40.5 -25.765625 C 39.238281 -26.992188 37.691406 -28.003906 35.859375 -28.796875 C 34.023438 -29.585938 31.421875 -30.488281 28.046875 -31.5 C 23.148438 -33.007812 19.15625 -34.519531 16.0625 -36.03125 C 12.976562 -37.539062 10.320312 -39.769531 8.09375 -42.71875 C 5.863281 -45.664062 4.75 -49.507812 4.75 -54.25 C 4.75 -61.300781 7.300781 -66.820312 12.40625 -70.8125 C 17.507812 -74.800781 24.160156 -76.796875 32.359375 -76.796875 C 40.703125 -76.796875 47.425781 -74.800781 52.53125 -70.8125 C 57.632812 -66.820312 60.363281 -61.265625 60.71875 -54.140625 L 40.765625 -54.140625 C 40.628906 -56.585938 39.734375 -58.507812 38.078125 -59.90625 C 36.421875 -61.3125 34.296875 -62.015625 31.703125 -62.015625 C 29.472656 -62.015625 27.675781 -61.421875 26.3125 -60.234375 C 24.945312 -59.046875 24.265625 -57.335938 24.265625 -55.109375 C 24.265625 -52.671875 25.414062 -50.765625 27.71875 -49.390625 C 30.019531 -48.023438 33.613281 -46.554688 38.5 -44.984375 C 43.394531 -43.328125 47.367188 -41.742188 50.421875 -40.234375 C 53.484375 -38.722656 56.128906 -36.53125 58.359375 -33.65625 C 60.585938 -30.78125 61.703125 -27.078125 61.703125 -22.546875 C 61.703125 -18.234375 60.601562 -14.3125 58.40625 -10.78125 C 56.207031 -7.257812 53.023438 -4.457031 48.859375 -2.375 C 44.691406 -0.289062 39.765625 0.75 34.078125 0.75 Z M 34.078125 0.75 "/></g></g></g><g fill="#262128" fill-opacity="1"><g transform="translate(68.638526, 110.387335)"><g><path d="M 3.5625 -37.96875 C 3.5625 -45.445312 5.175781 -52.113281 8.40625 -57.96875 C 11.644531 -63.832031 16.15625 -68.398438 21.9375 -71.671875 C 27.726562 -74.941406 34.296875 -76.578125 41.640625 -76.578125 C 50.617188 -76.578125 58.304688 -74.203125 64.703125 -69.453125 C 71.109375 -64.710938 75.390625 -58.242188 77.546875 -50.046875 L 57.265625 -50.046875 C 55.765625 -53.210938 53.628906 -55.617188 50.859375 -57.265625 C 48.085938 -58.921875 44.941406 -59.75 41.421875 -59.75 C 35.734375 -59.75 31.128906 -57.769531 27.609375 -53.8125 C 24.085938 -49.863281 22.328125 -44.582031 22.328125 -37.96875 C 22.328125 -31.351562 24.085938 -26.066406 27.609375 -22.109375 C 31.128906 -18.148438 35.734375 -16.171875 41.421875 -16.171875 C 44.941406 -16.171875 48.085938 -17 50.859375 -18.65625 C 53.628906 -20.3125 55.765625 -22.722656 57.265625 -25.890625 L 77.546875 -25.890625 C 75.390625 -17.691406 71.109375 -11.234375 64.703125 -6.515625 C 58.304688 -1.804688 50.617188 0.546875 41.640625 0.546875 C 34.296875 0.546875 27.726562 -1.085938 21.9375 -4.359375 C 16.15625 -7.640625 11.644531 -12.191406 8.40625 -18.015625 C 5.175781 -23.835938 3.5625 -30.488281 3.5625 -37.96875 Z M 3.5625 -37.96875 "/></g></g></g><g fill="#262128" fill-opacity="1"><g transform="translate(150.817502, 110.387335)"><g><path d="M 53.828125 -13.375 L 25.5625 -13.375 L 21.03125 0 L 1.71875 0 L 29.125 -75.71875 L 50.484375 -75.71875 L 77.875 0 L 58.359375 0 Z M 49.078125 -27.609375 L 39.6875 -55.328125 L 30.421875 -27.609375 Z M 49.078125 -27.609375 "/></g></g></g><g fill="#262128" fill-opacity="1"><g transform="translate(230.300326, 110.387335)"><g><path d="M 74.421875 0 L 55.984375 0 L 25.125 -46.703125 L 25.125 0 L 6.6875 0 L 6.6875 -75.71875 L 25.125 -75.71875 L 55.984375 -28.796875 L 55.984375 -75.71875 L 74.421875 -75.71875 Z M 74.421875 0 "/></g></g></g><g fill="#262128" fill-opacity="1"><g transform="translate(311.40083, 110.387335)"><g/></g></g><g fill="#262128" fill-opacity="1"><g transform="translate(334.264282, 110.387335)"><g><path d="M 92.4375 -75.71875 L 92.4375 0 L 73.984375 0 L 73.984375 -45.40625 L 57.0625 0 L 42.171875 0 L 25.125 -45.515625 L 25.125 0 L 6.6875 0 L 6.6875 -75.71875 L 28.46875 -75.71875 L 49.71875 -23.296875 L 70.75 -75.71875 Z M 92.4375 -75.71875 "/></g></g></g><g fill="#262128" fill-opacity="1"><g transform="translate(433.267286, 110.387335)"><g><path d="M 25.125 -60.9375 L 25.125 -45.625 L 49.828125 -45.625 L 49.828125 -31.390625 L 25.125 -31.390625 L 25.125 -14.78125 L 53.0625 -14.78125 L 53.0625 0 L 6.6875 0 L 6.6875 -75.71875 L 53.0625 -75.71875 L 53.0625 -60.9375 Z M 25.125 -60.9375 "/></g></g></g></g></g><g clip-path="url(#f50cca1207)"><path fill="#262128" d="M 152.53125 691.25 L 657.457031 691.25 L 657.457031 694.25 L 152.53125 694.25 Z M 152.53125 691.25 " fill-opacity="1" fill-rule="nonzero"/></g><g fill="#262128" fill-opacity="1"><g transform="translate(152.52959, 688.998561)"><g><path d="M 26.375 -17.046875 L 21.765625 0 L 15.984375 0 L 13.296875 -11.0625 L 10.515625 0 L 4.765625 0 L 0.125 -17.046875 L 5.34375 -17.046875 L 7.765625 -4.859375 L 10.640625 -17.046875 L 16.171875 -17.046875 L 19.078125 -4.921875 L 21.453125 -17.046875 Z M 26.375 -17.046875 "/></g></g></g><g fill="#262128" fill-opacity="1"><g transform="translate(178.996729, 688.998561)"><g><path d="M 26.375 -17.046875 L 21.765625 0 L 15.984375 0 L 13.296875 -11.0625 L 10.515625 0 L 4.765625 0 L 0.125 -17.046875 L 5.34375 -17.046875 L 7.765625 -4.859375 L 10.640625 -17.046875 L 16.171875 -17.046875 L 19.078125 -4.921875 L 21.453125 -17.046875 Z M 26.375 -17.046875 "/></g></g></g><g fill="#262128" fill-opacity="1"><g transform="translate(205.463868, 688.998561)"><g><path d="M 26.375 -17.046875 L 21.765625 0 L 15.984375 0 L 13.296875 -11.0625 L 10.515625 0 L 4.765625 0 L 0.125 -17.046875 L 5.34375 -17.046875 L 7.765625 -4.859375 L 10.640625 -17.046875 L 16.171875 -17.046875 L 19.078125 -4.921875 L 21.453125 -17.046875 Z M 26.375 -17.046875 "/></g></g></g><g fill="#262128" fill-opacity="1"><g transform="translate(231.931006, 688.998561)"><g><path d="M 4.34375 0.25 C 3.425781 0.25 2.675781 -0.0195312 2.09375 -0.5625 C 1.507812 -1.101562 1.21875 -1.769531 1.21875 -2.5625 C 1.21875 -3.382812 1.507812 -4.066406 2.09375 -4.609375 C 2.675781 -5.160156 3.425781 -5.4375 4.34375 -5.4375 C 5.238281 -5.4375 5.972656 -5.160156 6.546875 -4.609375 C 7.128906 -4.066406 7.421875 -3.382812 7.421875 -2.5625 C 7.421875 -1.769531 7.128906 -1.101562 6.546875 -0.5625 C 5.972656 -0.0195312 5.238281 0.25 4.34375 0.25 Z M 4.34375 0.25 "/></g></g></g><g fill="#262128" fill-opacity="1"><g transform="translate(240.549632, 688.998561)"><g><path d="M 7.125 -14.640625 C 7.632812 -15.429688 8.335938 -16.070312 9.234375 -16.5625 C 10.128906 -17.050781 11.175781 -17.296875 12.375 -17.296875 C 13.78125 -17.296875 15.050781 -16.9375 16.1875 -16.21875 C 17.332031 -15.507812 18.234375 -14.492188 18.890625 -13.171875 C 19.554688 -11.847656 19.890625 -10.3125 19.890625 -8.5625 C 19.890625 -6.800781 19.554688 -5.253906 18.890625 -3.921875 C 18.234375 -2.585938 17.332031 -1.554688 16.1875 -0.828125 C 15.050781 -0.109375 13.78125 0.25 12.375 0.25 C 11.195312 0.25 10.15625 0.00390625 9.25 -0.484375 C 8.34375 -0.972656 7.632812 -1.609375 7.125 -2.390625 L 7.125 8.125 L 1.890625 8.125 L 1.890625 -17.046875 L 7.125 -17.046875 Z M 14.578125 -8.5625 C 14.578125 -9.863281 14.210938 -10.882812 13.484375 -11.625 C 12.765625 -12.375 11.875 -12.75 10.8125 -12.75 C 9.78125 -12.75 8.898438 -12.367188 8.171875 -11.609375 C 7.453125 -10.859375 7.09375 -9.832031 7.09375 -8.53125 C 7.09375 -7.226562 7.453125 -6.195312 8.171875 -5.4375 C 8.898438 -4.6875 9.78125 -4.3125 10.8125 -4.3125 C 11.851562 -4.3125 12.738281 -4.691406 13.46875 -5.453125 C 14.207031 -6.210938 14.578125 -7.25 14.578125 -8.5625 Z M 14.578125 -8.5625 "/></g></g></g><g fill="#262128" fill-opacity="1"><g transform="translate(261.30158, 688.998561)"><g><path d="M 12.28125 -17.234375 C 14.28125 -17.234375 15.875 -16.585938 17.0625 -15.296875 C 18.257812 -14.003906 18.859375 -12.226562 18.859375 -9.96875 L 18.859375 0 L 13.65625 0 L 13.65625 -9.265625 C 13.65625 -10.398438 13.359375 -11.28125 12.765625 -11.90625 C 12.179688 -12.539062 11.390625 -12.859375 10.390625 -12.859375 C 9.390625 -12.859375 8.59375 -12.539062 8 -11.90625 C 7.414062 -11.28125 7.125 -10.398438 7.125 -9.265625 L 7.125 0 L 1.890625 0 L 1.890625 -17.046875 L 7.125 -17.046875 L 7.125 -14.796875 C 7.65625 -15.546875 8.367188 -16.140625 9.265625 -16.578125 C 10.160156 -17.015625 11.164062 -17.234375 12.28125 -17.234375 Z M 12.28125 -17.234375 "/></g></g></g><g fill="#262128" fill-opacity="1"><g transform="translate(281.900715, 688.998561)"><g><path d="M 12.375 -17.234375 C 14.332031 -17.234375 15.898438 -16.585938 17.078125 -15.296875 C 18.265625 -14.003906 18.859375 -12.226562 18.859375 -9.96875 L 18.859375 0 L 13.65625 0 L 13.65625 -9.265625 C 13.65625 -10.398438 13.359375 -11.28125 12.765625 -11.90625 C 12.179688 -12.539062 11.390625 -12.859375 10.390625 -12.859375 C 9.390625 -12.859375 8.59375 -12.539062 8 -11.90625 C 7.414062 -11.28125 7.125 -10.398438 7.125 -9.265625 L 7.125 0 L 1.890625 0 L 1.890625 -22.609375 L 7.125 -22.609375 L 7.125 -14.765625 C 7.65625 -15.515625 8.378906 -16.113281 9.296875 -16.5625 C 10.210938 -17.007812 11.238281 -17.234375 12.375 -17.234375 Z M 12.375 -17.234375 "/></g></g></g><g fill="#262128" fill-opacity="1"><g transform="translate(302.49985, 688.998561)"><g><path d="M 8.828125 0.25 C 7.335938 0.25 6.015625 -0.00390625 4.859375 -0.515625 C 3.703125 -1.023438 2.785156 -1.722656 2.109375 -2.609375 C 1.429688 -3.492188 1.054688 -4.488281 0.984375 -5.59375 L 6.140625 -5.59375 C 6.203125 -5 6.476562 -4.519531 6.96875 -4.15625 C 7.457031 -3.789062 8.054688 -3.609375 8.765625 -3.609375 C 9.421875 -3.609375 9.925781 -3.734375 10.28125 -3.984375 C 10.632812 -4.242188 10.8125 -4.578125 10.8125 -4.984375 C 10.8125 -5.472656 10.554688 -5.832031 10.046875 -6.0625 C 9.546875 -6.300781 8.722656 -6.5625 7.578125 -6.84375 C 6.359375 -7.132812 5.335938 -7.4375 4.515625 -7.75 C 3.703125 -8.0625 3 -8.554688 2.40625 -9.234375 C 1.820312 -9.921875 1.53125 -10.847656 1.53125 -12.015625 C 1.53125 -12.992188 1.796875 -13.882812 2.328125 -14.6875 C 2.867188 -15.488281 3.664062 -16.125 4.71875 -16.59375 C 5.769531 -17.0625 7.019531 -17.296875 8.46875 -17.296875 C 10.601562 -17.296875 12.285156 -16.765625 13.515625 -15.703125 C 14.753906 -14.648438 15.460938 -13.242188 15.640625 -11.484375 L 10.8125 -11.484375 C 10.738281 -12.078125 10.476562 -12.546875 10.03125 -12.890625 C 9.59375 -13.242188 9.019531 -13.421875 8.3125 -13.421875 C 7.695312 -13.421875 7.226562 -13.300781 6.90625 -13.0625 C 6.582031 -12.832031 6.421875 -12.515625 6.421875 -12.109375 C 6.421875 -11.617188 6.679688 -11.25 7.203125 -11 C 7.722656 -10.757812 8.53125 -10.515625 9.625 -10.265625 C 10.882812 -9.941406 11.910156 -9.617188 12.703125 -9.296875 C 13.503906 -8.984375 14.203125 -8.472656 14.796875 -7.765625 C 15.398438 -7.066406 15.710938 -6.128906 15.734375 -4.953125 C 15.734375 -3.953125 15.453125 -3.054688 14.890625 -2.265625 C 14.335938 -1.484375 13.535156 -0.867188 12.484375 -0.421875 C 11.429688 0.0234375 10.210938 0.25 8.828125 0.25 Z M 8.828125 0.25 "/></g></g></g><g fill="#262128" fill-opacity="1"><g transform="translate(319.553732, 688.998561)"><g><path d="M 8.375 -17.296875 C 9.570312 -17.296875 10.625 -17.050781 11.53125 -16.5625 C 12.4375 -16.070312 13.132812 -15.429688 13.625 -14.640625 L 13.625 -17.046875 L 18.859375 -17.046875 L 18.859375 -0.03125 C 18.859375 1.539062 18.546875 2.960938 17.921875 4.234375 C 17.304688 5.503906 16.359375 6.515625 15.078125 7.265625 C 13.804688 8.023438 12.222656 8.40625 10.328125 8.40625 C 7.804688 8.40625 5.757812 7.804688 4.1875 6.609375 C 2.613281 5.421875 1.71875 3.804688 1.5 1.765625 L 6.65625 1.765625 C 6.820312 2.421875 7.207031 2.9375 7.8125 3.3125 C 8.425781 3.6875 9.179688 3.875 10.078125 3.875 C 11.160156 3.875 12.019531 3.5625 12.65625 2.9375 C 13.300781 2.320312 13.625 1.332031 13.625 -0.03125 L 13.625 -2.4375 C 13.113281 -1.644531 12.410156 -1 11.515625 -0.5 C 10.617188 0 9.570312 0.25 8.375 0.25 C 6.96875 0.25 5.691406 -0.109375 4.546875 -0.828125 C 3.410156 -1.554688 2.507812 -2.585938 1.84375 -3.921875 C 1.1875 -5.253906 0.859375 -6.800781 0.859375 -8.5625 C 0.859375 -10.3125 1.1875 -11.847656 1.84375 -13.171875 C 2.507812 -14.492188 3.410156 -15.507812 4.546875 -16.21875 C 5.691406 -16.9375 6.96875 -17.296875 8.375 -17.296875 Z M 13.625 -8.53125 C 13.625 -9.832031 13.257812 -10.859375 12.53125 -11.609375 C 11.8125 -12.367188 10.9375 -12.75 9.90625 -12.75 C 8.863281 -12.75 7.976562 -12.375 7.25 -11.625 C 6.53125 -10.882812 6.171875 -9.863281 6.171875 -8.5625 C 6.171875 -7.25 6.53125 -6.210938 7.25 -5.453125 C 7.976562 -4.691406 8.863281 -4.3125 9.90625 -4.3125 C 10.9375 -4.3125 11.8125 -4.6875 12.53125 -5.4375 C 13.257812 -6.195312 13.625 -7.226562 13.625 -8.53125 Z M 13.625 -8.53125 "/></g></g></g><g fill="#262128" fill-opacity="1"><g transform="translate(340.305681, 688.998561)"><g><path d="M 7.125 -14.21875 C 7.726562 -15.15625 8.488281 -15.890625 9.40625 -16.421875 C 10.320312 -16.960938 11.34375 -17.234375 12.46875 -17.234375 L 12.46875 -11.703125 L 11.03125 -11.703125 C 9.726562 -11.703125 8.75 -11.421875 8.09375 -10.859375 C 7.445312 -10.304688 7.125 -9.328125 7.125 -7.921875 L 7.125 0 L 1.890625 0 L 1.890625 -17.046875 L 7.125 -17.046875 Z M 7.125 -14.21875 "/></g></g></g><g fill="#262128" fill-opacity="1"><g transform="translate(353.386437, 688.998561)"><g><path d="M 0.859375 -8.5625 C 0.859375 -10.3125 1.1875 -11.847656 1.84375 -13.171875 C 2.507812 -14.492188 3.410156 -15.507812 4.546875 -16.21875 C 5.691406 -16.9375 6.96875 -17.296875 8.375 -17.296875 C 9.570312 -17.296875 10.625 -17.050781 11.53125 -16.5625 C 12.4375 -16.070312 13.132812 -15.429688 13.625 -14.640625 L 13.625 -17.046875 L 18.859375 -17.046875 L 18.859375 0 L 13.625 0 L 13.625 -2.421875 C 13.113281 -1.617188 12.40625 -0.972656 11.5 -0.484375 C 10.59375 0.00390625 9.539062 0.25 8.34375 0.25 C 6.957031 0.25 5.691406 -0.109375 4.546875 -0.828125 C 3.410156 -1.554688 2.507812 -2.585938 1.84375 -3.921875 C 1.1875 -5.253906 0.859375 -6.800781 0.859375 -8.5625 Z M 13.625 -8.53125 C 13.625 -9.832031 13.257812 -10.859375 12.53125 -11.609375 C 11.8125 -12.367188 10.9375 -12.75 9.90625 -12.75 C 8.863281 -12.75 7.976562 -12.375 7.25 -11.625 C 6.53125 -10.882812 6.171875 -9.863281 6.171875 -8.5625 C 6.171875 -7.25 6.53125 -6.210938 7.25 -5.453125 C 7.976562 -4.691406 8.863281 -4.3125 9.90625 -4.3125 C 10.9375 -4.3125 11.8125 -4.6875 12.53125 -5.4375 C 13.257812 -6.195312 13.625 -7.226562 13.625 -8.53125 Z M 13.625 -8.53125 "/></g></g><g transform="translate(374.138374, 688.998561)"><g><path d="M 0.859375 -8.5625 C 0.859375 -10.3125 1.1875 -11.847656 1.84375 -13.171875 C 2.507812 -14.492188 3.410156 -15.507812 4.546875 -16.21875 C 5.691406 -16.9375 6.96875 -17.296875 8.375 -17.296875 C 9.5 -17.296875 10.523438 -17.0625 11.453125 -16.59375 C 12.378906 -16.125 13.101562 -15.492188 13.625 -14.703125 L 13.625 -22.609375 L 18.859375 -22.609375 L 18.859375 0 L 13.625 0 L 13.625 -2.4375 C 13.132812 -1.625 12.4375 -0.972656 11.53125 -0.484375 C 10.625 0.00390625 9.570312 0.25 8.375 0.25 C 6.96875 0.25 5.691406 -0.109375 4.546875 -0.828125 C 3.410156 -1.554688 2.507812 -2.585938 1.84375 -3.921875 C 1.1875 -5.253906 0.859375 -6.800781 0.859375 -8.5625 Z M 13.625 -8.53125 C 13.625 -9.832031 13.257812 -10.859375 12.53125 -11.609375 C 11.8125 -12.367188 10.9375 -12.75 9.90625 -12.75 C 8.863281 -12.75 7.976562 -12.375 7.25 -11.625 C 6.53125 -10.882812 6.171875 -9.863281 6.171875 -8.5625 C 6.171875 -7.25 6.53125 -6.210938 7.25 -5.453125 C 7.976562 -4.691406 8.863281 -4.3125 9.90625 -4.3125 C 10.9375 -4.3125 11.8125 -4.6875 12.53125 -5.4375 C 13.257812 -6.195312 13.625 -7.226562 13.625 -8.53125 Z M 13.625 -8.53125 "/></g></g></g><g fill="#262128" fill-opacity="1"><g transform="translate(394.890334, 688.998561)"><g><path d="M 17.96875 -8.796875 C 17.96875 -8.304688 17.9375 -7.800781 17.875 -7.28125 L 6.046875 -7.28125 C 6.128906 -6.21875 6.472656 -5.40625 7.078125 -4.84375 C 7.679688 -4.28125 8.421875 -4 9.296875 -4 C 10.597656 -4 11.503906 -4.550781 12.015625 -5.65625 L 17.578125 -5.65625 C 17.285156 -4.53125 16.769531 -3.519531 16.03125 -2.625 C 15.289062 -1.726562 14.359375 -1.023438 13.234375 -0.515625 C 12.109375 -0.00390625 10.851562 0.25 9.46875 0.25 C 7.800781 0.25 6.316406 -0.101562 5.015625 -0.8125 C 3.710938 -1.53125 2.691406 -2.550781 1.953125 -3.875 C 1.222656 -5.207031 0.859375 -6.757812 0.859375 -8.53125 C 0.859375 -10.300781 1.21875 -11.847656 1.9375 -13.171875 C 2.664062 -14.492188 3.679688 -15.507812 4.984375 -16.21875 C 6.285156 -16.9375 7.78125 -17.296875 9.46875 -17.296875 C 11.125 -17.296875 12.59375 -16.945312 13.875 -16.25 C 15.15625 -15.5625 16.15625 -14.578125 16.875 -13.296875 C 17.601562 -12.015625 17.96875 -10.515625 17.96875 -8.796875 Z M 12.625 -10.171875 C 12.625 -11.066406 12.316406 -11.78125 11.703125 -12.3125 C 11.085938 -12.84375 10.320312 -13.109375 9.40625 -13.109375 C 8.53125 -13.109375 7.789062 -12.851562 7.1875 -12.34375 C 6.59375 -11.832031 6.222656 -11.109375 6.078125 -10.171875 Z M 12.625 -10.171875 "/></g></g></g><g fill="#262128" fill-opacity="1"><g transform="translate(413.716848, 688.998561)"><g><path d="M 5.046875 -11.984375 C 3.128906 -13.003906 2.171875 -14.601562 2.171875 -16.78125 C 2.171875 -17.875 2.453125 -18.875 3.015625 -19.78125 C 3.585938 -20.695312 4.453125 -21.421875 5.609375 -21.953125 C 6.773438 -22.492188 8.207031 -22.765625 9.90625 -22.765625 C 11.59375 -22.765625 13.007812 -22.492188 14.15625 -21.953125 C 15.3125 -21.421875 16.175781 -20.695312 16.75 -19.78125 C 17.320312 -18.875 17.609375 -17.875 17.609375 -16.78125 C 17.609375 -15.675781 17.347656 -14.71875 16.828125 -13.90625 C 16.304688 -13.09375 15.609375 -12.453125 14.734375 -11.984375 C 15.828125 -11.453125 16.671875 -10.722656 17.265625 -9.796875 C 17.859375 -8.867188 18.15625 -7.785156 18.15625 -6.546875 C 18.15625 -5.097656 17.785156 -3.847656 17.046875 -2.796875 C 16.316406 -1.742188 15.320312 -0.941406 14.0625 -0.390625 C 12.8125 0.148438 11.425781 0.421875 9.90625 0.421875 C 8.375 0.421875 6.976562 0.148438 5.71875 -0.390625 C 4.46875 -0.941406 3.476562 -1.742188 2.75 -2.796875 C 2.019531 -3.847656 1.65625 -5.097656 1.65625 -6.546875 C 1.65625 -7.804688 1.945312 -8.898438 2.53125 -9.828125 C 3.125 -10.753906 3.960938 -11.472656 5.046875 -11.984375 Z M 12.53125 -15.984375 C 12.53125 -16.816406 12.289062 -17.460938 11.8125 -17.921875 C 11.332031 -18.378906 10.695312 -18.609375 9.90625 -18.609375 C 9.101562 -18.609375 8.460938 -18.375 7.984375 -17.90625 C 7.515625 -17.4375 7.28125 -16.785156 7.28125 -15.953125 C 7.28125 -15.160156 7.519531 -14.535156 8 -14.078125 C 8.488281 -13.617188 9.125 -13.390625 9.90625 -13.390625 C 10.675781 -13.390625 11.304688 -13.625 11.796875 -14.09375 C 12.285156 -14.5625 12.53125 -15.191406 12.53125 -15.984375 Z M 9.90625 -9.71875 C 8.945312 -9.71875 8.171875 -9.457031 7.578125 -8.9375 C 6.984375 -8.414062 6.6875 -7.695312 6.6875 -6.78125 C 6.6875 -5.925781 6.976562 -5.222656 7.5625 -4.671875 C 8.144531 -4.117188 8.925781 -3.84375 9.90625 -3.84375 C 10.882812 -3.84375 11.648438 -4.117188 12.203125 -4.671875 C 12.765625 -5.222656 13.046875 -5.925781 13.046875 -6.78125 C 13.046875 -7.675781 12.753906 -8.390625 12.171875 -8.921875 C 11.597656 -9.453125 10.84375 -9.71875 9.90625 -9.71875 Z M 9.90625 -9.71875 "/></g></g></g><g fill="#262128" fill-opacity="1"><g transform="translate(433.521351, 688.998561)"><g><path d="M 7.125 -14.640625 C 7.613281 -15.429688 8.316406 -16.070312 9.234375 -16.5625 C 10.148438 -17.050781 11.195312 -17.296875 12.375 -17.296875 C 13.78125 -17.296875 15.050781 -16.9375 16.1875 -16.21875 C 17.332031 -15.507812 18.234375 -14.492188 18.890625 -13.171875 C 19.554688 -11.847656 19.890625 -10.3125 19.890625 -8.5625 C 19.890625 -6.800781 19.554688 -5.253906 18.890625 -3.921875 C 18.234375 -2.585938 17.332031 -1.554688 16.1875 -0.828125 C 15.050781 -0.109375 13.78125 0.25 12.375 0.25 C 11.175781 0.25 10.128906 0.0078125 9.234375 -0.46875 C 8.335938 -0.945312 7.632812 -1.585938 7.125 -2.390625 L 7.125 0 L 1.890625 0 L 1.890625 -22.609375 L 7.125 -22.609375 Z M 14.578125 -8.5625 C 14.578125 -9.863281 14.210938 -10.882812 13.484375 -11.625 C 12.765625 -12.375 11.875 -12.75 10.8125 -12.75 C 9.78125 -12.75 8.898438 -12.367188 8.171875 -11.609375 C 7.453125 -10.859375 7.09375 -9.832031 7.09375 -8.53125 C 7.09375 -7.226562 7.453125 -6.195312 8.171875 -5.4375 C 8.898438 -4.6875 9.78125 -4.3125 10.8125 -4.3125 C 11.851562 -4.3125 12.738281 -4.691406 13.46875 -5.453125 C 14.207031 -6.210938 14.578125 -7.25 14.578125 -8.5625 Z M 14.578125 -8.5625 "/></g></g></g><g fill="#262128" fill-opacity="1"><g transform="translate(454.273311, 688.998561)"><g><path d="M 4.515625 -18.828125 C 3.597656 -18.828125 2.847656 -19.097656 2.265625 -19.640625 C 1.691406 -20.179688 1.40625 -20.847656 1.40625 -21.640625 C 1.40625 -22.453125 1.691406 -23.128906 2.265625 -23.671875 C 2.847656 -24.210938 3.597656 -24.484375 4.515625 -24.484375 C 5.421875 -24.484375 6.160156 -24.210938 6.734375 -23.671875 C 7.316406 -23.128906 7.609375 -22.453125 7.609375 -21.640625 C 7.609375 -20.847656 7.316406 -20.179688 6.734375 -19.640625 C 6.160156 -19.097656 5.421875 -18.828125 4.515625 -18.828125 Z M 7.125 -17.046875 L 7.125 0 L 1.890625 0 L 1.890625 -17.046875 Z M 7.125 -17.046875 "/></g></g></g><g fill="#262128" fill-opacity="1"><g transform="translate(463.289263, 688.998561)"><g><path d="M 9.65625 0.25 C 7.988281 0.25 6.484375 -0.101562 5.140625 -0.8125 C 3.804688 -1.53125 2.757812 -2.550781 2 -3.875 C 1.238281 -5.207031 0.859375 -6.757812 0.859375 -8.53125 C 0.859375 -10.28125 1.242188 -11.820312 2.015625 -13.15625 C 2.785156 -14.488281 3.84375 -15.507812 5.1875 -16.21875 C 6.539062 -16.9375 8.050781 -17.296875 9.71875 -17.296875 C 11.382812 -17.296875 12.890625 -16.9375 14.234375 -16.21875 C 15.585938 -15.507812 16.648438 -14.488281 17.421875 -13.15625 C 18.191406 -11.820312 18.578125 -10.28125 18.578125 -8.53125 C 18.578125 -6.78125 18.1875 -5.234375 17.40625 -3.890625 C 16.625 -2.554688 15.550781 -1.53125 14.1875 -0.8125 C 12.832031 -0.101562 11.320312 0.25 9.65625 0.25 Z M 9.65625 -4.28125 C 10.65625 -4.28125 11.503906 -4.644531 12.203125 -5.375 C 12.910156 -6.113281 13.265625 -7.164062 13.265625 -8.53125 C 13.265625 -9.894531 12.921875 -10.941406 12.234375 -11.671875 C 11.554688 -12.410156 10.71875 -12.78125 9.71875 -12.78125 C 8.695312 -12.78125 7.847656 -12.414062 7.171875 -11.6875 C 6.503906 -10.96875 6.171875 -9.914062 6.171875 -8.53125 C 6.171875 -7.164062 6.5 -6.113281 7.15625 -5.375 C 7.820312 -4.644531 8.65625 -4.28125 9.65625 -4.28125 Z M 9.65625 -4.28125 "/></g></g></g><g fill="#262128" fill-opacity="1"><g transform="translate(482.757585, 688.998561)"><g><path d="M 7.125 -22.609375 L 7.125 0 L 1.890625 0 L 1.890625 -22.609375 Z M 7.125 -22.609375 "/></g></g></g><g fill="#262128" fill-opacity="1"><g transform="translate(491.773515, 688.998561)"><g><path d="M 9.65625 0.25 C 7.988281 0.25 6.484375 -0.101562 5.140625 -0.8125 C 3.804688 -1.53125 2.757812 -2.550781 2 -3.875 C 1.238281 -5.207031 0.859375 -6.757812 0.859375 -8.53125 C 0.859375 -10.28125 1.242188 -11.820312 2.015625 -13.15625 C 2.785156 -14.488281 3.84375 -15.507812 5.1875 -16.21875 C 6.539062 -16.9375 8.050781 -17.296875 9.71875 -17.296875 C 11.382812 -17.296875 12.890625 -16.9375 14.234375 -16.21875 C 15.585938 -15.507812 16.648438 -14.488281 17.421875 -13.15625 C 18.191406 -11.820312 18.578125 -10.28125 18.578125 -8.53125 C 18.578125 -6.78125 18.1875 -5.234375 17.40625 -3.890625 C 16.625 -2.554688 15.550781 -1.53125 14.1875 -0.8125 C 12.832031 -0.101562 11.320312 0.25 9.65625 0.25 Z M 9.65625 -4.28125 C 10.65625 -4.28125 11.503906 -4.644531 12.203125 -5.375 C 12.910156 -6.113281 13.265625 -7.164062 13.265625 -8.53125 C 13.265625 -9.894531 12.921875 -10.941406 12.234375 -11.671875 C 11.554688 -12.410156 10.71875 -12.78125 9.71875 -12.78125 C 8.695312 -12.78125 7.847656 -12.414062 7.171875 -11.6875 C 6.503906 -10.96875 6.171875 -9.914062 6.171875 -8.53125 C 6.171875 -7.164062 6.5 -6.113281 7.15625 -5.375 C 7.820312 -4.644531 8.65625 -4.28125 9.65625 -4.28125 Z M 9.65625 -4.28125 "/></g></g></g><g fill="#262128" fill-opacity="1"><g transform="translate(511.241837, 688.998561)"><g><path d="M 8.375 -17.296875 C 9.570312 -17.296875 10.625 -17.050781 11.53125 -16.5625 C 12.4375 -16.070312 13.132812 -15.429688 13.625 -14.640625 L 13.625 -17.046875 L 18.859375 -17.046875 L 18.859375 -0.03125 C 18.859375 1.539062 18.546875 2.960938 17.921875 4.234375 C 17.304688 5.503906 16.359375 6.515625 15.078125 7.265625 C 13.804688 8.023438 12.222656 8.40625 10.328125 8.40625 C 7.804688 8.40625 5.757812 7.804688 4.1875 6.609375 C 2.613281 5.421875 1.71875 3.804688 1.5 1.765625 L 6.65625 1.765625 C 6.820312 2.421875 7.207031 2.9375 7.8125 3.3125 C 8.425781 3.6875 9.179688 3.875 10.078125 3.875 C 11.160156 3.875 12.019531 3.5625 12.65625 2.9375 C 13.300781 2.320312 13.625 1.332031 13.625 -0.03125 L 13.625 -2.4375 C 13.113281 -1.644531 12.410156 -1 11.515625 -0.5 C 10.617188 0 9.570312 0.25 8.375 0.25 C 6.96875 0.25 5.691406 -0.109375 4.546875 -0.828125 C 3.410156 -1.554688 2.507812 -2.585938 1.84375 -3.921875 C 1.1875 -5.253906 0.859375 -6.800781 0.859375 -8.5625 C 0.859375 -10.3125 1.1875 -11.847656 1.84375 -13.171875 C 2.507812 -14.492188 3.410156 -15.507812 4.546875 -16.21875 C 5.691406 -16.9375 6.96875 -17.296875 8.375 -17.296875 Z M 13.625 -8.53125 C 13.625 -9.832031 13.257812 -10.859375 12.53125 -11.609375 C 11.8125 -12.367188 10.9375 -12.75 9.90625 -12.75 C 8.863281 -12.75 7.976562 -12.375 7.25 -11.625 C 6.53125 -10.882812 6.171875 -9.863281 6.171875 -8.5625 C 6.171875 -7.25 6.53125 -6.210938 7.25 -5.453125 C 7.976562 -4.691406 8.863281 -4.3125 9.90625 -4.3125 C 10.9375 -4.3125 11.8125 -4.6875 12.53125 -5.4375 C 13.257812 -6.195312 13.625 -7.226562 13.625 -8.53125 Z M 13.625 -8.53125 "/></g></g><g transform="translate(531.993774, 688.998561)"><g><path d="M 19.3125 -17.046875 L 8.625 8.09375 L 3 8.09375 L 6.90625 -0.578125 L -0.03125 -17.046875 L 5.8125 -17.046875 L 9.75 -6.390625 L 13.65625 -17.046875 Z M 19.3125 -17.046875 "/></g></g></g><g fill="#262128" fill-opacity="1"><g transform="translate(551.309294, 688.998561)"><g><path d="M 4.34375 0.25 C 3.425781 0.25 2.675781 -0.0195312 2.09375 -0.5625 C 1.507812 -1.101562 1.21875 -1.769531 1.21875 -2.5625 C 1.21875 -3.382812 1.507812 -4.066406 2.09375 -4.609375 C 2.675781 -5.160156 3.425781 -5.4375 4.34375 -5.4375 C 5.238281 -5.4375 5.972656 -5.160156 6.546875 -4.609375 C 7.128906 -4.066406 7.421875 -3.382812 7.421875 -2.5625 C 7.421875 -1.769531 7.128906 -1.101562 6.546875 -0.5625 C 5.972656 -0.0195312 5.238281 0.25 4.34375 0.25 Z M 4.34375 0.25 "/></g></g></g><g fill="#262128" fill-opacity="1"><g transform="translate(559.927931, 688.998561)"><g><path d="M 9.65625 0.25 C 7.988281 0.25 6.484375 -0.101562 5.140625 -0.8125 C 3.804688 -1.53125 2.757812 -2.550781 2 -3.875 C 1.238281 -5.207031 0.859375 -6.757812 0.859375 -8.53125 C 0.859375 -10.28125 1.242188 -11.820312 2.015625 -13.15625 C 2.785156 -14.488281 3.84375 -15.507812 5.1875 -16.21875 C 6.539062 -16.9375 8.050781 -17.296875 9.71875 -17.296875 C 11.382812 -17.296875 12.890625 -16.9375 14.234375 -16.21875 C 15.585938 -15.507812 16.648438 -14.488281 17.421875 -13.15625 C 18.191406 -11.820312 18.578125 -10.28125 18.578125 -8.53125 C 18.578125 -6.78125 18.1875 -5.234375 17.40625 -3.890625 C 16.625 -2.554688 15.550781 -1.53125 14.1875 -0.8125 C 12.832031 -0.101562 11.320312 0.25 9.65625 0.25 Z M 9.65625 -4.28125 C 10.65625 -4.28125 11.503906 -4.644531 12.203125 -5.375 C 12.910156 -6.113281 13.265625 -7.164062 13.265625 -8.53125 C 13.265625 -9.894531 12.921875 -10.941406 12.234375 -11.671875 C 11.554688 -12.410156 10.71875 -12.78125 9.71875 -12.78125 C 8.695312 -12.78125 7.847656 -12.414062 7.171875 -11.6875 C 6.503906 -10.96875 6.171875 -9.914062 6.171875 -8.53125 C 6.171875 -7.164062 6.5 -6.113281 7.15625 -5.375 C 7.820312 -4.644531 8.65625 -4.28125 9.65625 -4.28125 Z M 9.65625 -4.28125 "/></g></g></g><g fill="#262128" fill-opacity="1"><g transform="translate(579.396253, 688.998561)"><g><path d="M 12.28125 -17.234375 C 14.28125 -17.234375 15.875 -16.585938 17.0625 -15.296875 C 18.257812 -14.003906 18.859375 -12.226562 18.859375 -9.96875 L 18.859375 0 L 13.65625 0 L 13.65625 -9.265625 C 13.65625 -10.398438 13.359375 -11.28125 12.765625 -11.90625 C 12.179688 -12.539062 11.390625 -12.859375 10.390625 -12.859375 C 9.390625 -12.859375 8.59375 -12.539062 8 -11.90625 C 7.414062 -11.28125 7.125 -10.398438 7.125 -9.265625 L 7.125 0 L 1.890625 0 L 1.890625 -17.046875 L 7.125 -17.046875 L 7.125 -14.796875 C 7.65625 -15.546875 8.367188 -16.140625 9.265625 -16.578125 C 10.160156 -17.015625 11.164062 -17.234375 12.28125 -17.234375 Z M 12.28125 -17.234375 "/></g></g></g><g fill="#262128" fill-opacity="1"><g transform="translate(599.995388, 688.998561)"><g><path d="M 7.125 -22.609375 L 7.125 0 L 1.890625 0 L 1.890625 -22.609375 Z M 7.125 -22.609375 "/></g></g></g><g fill="#262128" fill-opacity="1"><g transform="translate(609.011318, 688.998561)"><g><path d="M 4.515625 -18.828125 C 3.597656 -18.828125 2.847656 -19.097656 2.265625 -19.640625 C 1.691406 -20.179688 1.40625 -20.847656 1.40625 -21.640625 C 1.40625 -22.453125 1.691406 -23.128906 2.265625 -23.671875 C 2.847656 -24.210938 3.597656 -24.484375 4.515625 -24.484375 C 5.421875 -24.484375 6.160156 -24.210938 6.734375 -23.671875 C 7.316406 -23.128906 7.609375 -22.453125 7.609375 -21.640625 C 7.609375 -20.847656 7.316406 -20.179688 6.734375 -19.640625 C 6.160156 -19.097656 5.421875 -18.828125 4.515625 -18.828125 Z M 7.125 -17.046875 L 7.125 0 L 1.890625 0 L 1.890625 -17.046875 Z M 7.125 -17.046875 "/></g></g></g><g fill="#262128" fill-opacity="1"><g transform="translate(618.027248, 688.998561)"><g><path d="M 12.28125 -17.234375 C 14.28125 -17.234375 15.875 -16.585938 17.0625 -15.296875 C 18.257812 -14.003906 18.859375 -12.226562 18.859375 -9.96875 L 18.859375 0 L 13.65625 0 L 13.65625 -9.265625 C 13.65625 -10.398438 13.359375 -11.28125 12.765625 -11.90625 C 12.179688 -12.539062 11.390625 -12.859375 10.390625 -12.859375 C 9.390625 -12.859375 8.59375 -12.539062 8 -11.90625 C 7.414062 -11.28125 7.125 -10.398438 7.125 -9.265625 L 7.125 0 L 1.890625 0 L 1.890625 -17.046875 L 7.125 -17.046875 L 7.125 -14.796875 C 7.65625 -15.546875 8.367188 -16.140625 9.265625 -16.578125 C 10.160156 -17.015625 11.164062 -17.234375 12.28125 -17.234375 Z M 12.28125 -17.234375 "/></g></g></g><g fill="#262128" fill-opacity="1"><g transform="translate(638.626383, 688.998561)"><g><path d="M 17.96875 -8.796875 C 17.96875 -8.304688 17.9375 -7.800781 17.875 -7.28125 L 6.046875 -7.28125 C 6.128906 -6.21875 6.472656 -5.40625 7.078125 -4.84375 C 7.679688 -4.28125 8.421875 -4 9.296875 -4 C 10.597656 -4 11.503906 -4.550781 12.015625 -5.65625 L 17.578125 -5.65625 C 17.285156 -4.53125 16.769531 -3.519531 16.03125 -2.625 C 15.289062 -1.726562 14.359375 -1.023438 13.234375 -0.515625 C 12.109375 -0.00390625 10.851562 0.25 9.46875 0.25 C 7.800781 0.25 6.316406 -0.101562 5.015625 -0.8125 C 3.710938 -1.53125 2.691406 -2.550781 1.953125 -3.875 C 1.222656 -5.207031 0.859375 -6.757812 0.859375 -8.53125 C 0.859375 -10.300781 1.21875 -11.847656 1.9375 -13.171875 C 2.664062 -14.492188 3.679688 -15.507812 4.984375 -16.21875 C 6.285156 -16.9375 7.78125 -17.296875 9.46875 -17.296875 C 11.125 -17.296875 12.59375 -16.945312 13.875 -16.25 C 15.15625 -15.5625 16.15625 -14.578125 16.875 -13.296875 C 17.601562 -12.015625 17.96875 -10.515625 17.96875 -8.796875 Z M 12.625 -10.171875 C 12.625 -11.066406 12.316406 -11.78125 11.703125 -12.3125 C 11.085938 -12.84375 10.320312 -13.109375 9.40625 -13.109375 C 8.53125 -13.109375 7.789062 -12.851562 7.1875 -12.34375 C 6.59375 -11.832031 6.222656 -11.109375 6.078125 -10.171875 Z M 12.625 -10.171875 "/></g></g></g><g transform="matrix(1, 0, 0, 1, 209, 224)"><g clip-path="url(#8d1e5f776c)"><g clip-path="url(#e0cf59dc83)"><path fill="#fafafa" d="M 0.136719 0.71875 L 391.863281 0.71875 L 391.863281 392.449219 L 0.136719 392.449219 Z M 0.136719 0.71875 " fill-opacity="1" fill-rule="nonzero"/></g><path stroke-linecap="butt" transform="matrix(11.870552, 0, 0, 11.870552, 0.135896, 0.719257)" fill-opacity="1" fill="#fafafa" fill-rule="nonzero" stroke-linejoin="miter" d="M 2.000161 2.499907 L 9.000151 2.499907 M 9.999867 2.499907 L 11.999959 2.499907 M 13.000004 2.499907 L 17.999903 2.499907 M 18.999949 2.499907 L 23.000132 2.499907 M 23.999848 2.499907 L 30.999839 2.499907 M 2.000161 3.499952 L 2.999877 3.499952 M 8.000105 3.499952 L 9.000151 3.499952 M 9.999867 3.499952 L 10.999913 3.499952 M 14.00005 3.499952 L 16.000141 3.499952 M 17.999903 3.499952 L 18.999949 3.499952 M 19.999995 3.499952 L 21.00004 3.499952 M 22.000086 3.499952 L 23.000132 3.499952 M 23.999848 3.499952 L 24.999894 3.499952 M 30.000122 3.499952 L 30.999839 3.499952 M 2.000161 4.499998 L 2.999877 4.499998 M 3.999923 4.499998 L 7.00006 4.499998 M 8.000105 4.499998 L 9.000151 4.499998 M 11.999959 4.499998 L 13.000004 4.499998 M 14.00005 4.499998 L 15.000096 4.499998 M 17.999903 4.499998 L 18.999949 4.499998 M 19.999995 4.499998 L 23.000132 4.499998 M 23.999848 4.499998 L 24.999894 4.499998 M 25.99994 4.499998 L 29.000076 4.499998 M 30.000122 4.499998 L 30.999839 4.499998 M 2.000161 5.500044 L 2.999877 5.500044 M 3.999923 5.500044 L 7.00006 5.500044 M 8.000105 5.500044 L 9.000151 5.500044 M 9.999867 5.500044 L 10.999913 5.500044 M 14.00005 5.500044 L 15.000096 5.500044 M 16.000141 5.500044 L 17.999903 5.500044 M 18.999949 5.500044 L 19.999995 5.500044 M 21.00004 5.500044 L 22.000086 5.500044 M 23.999848 5.500044 L 24.999894 5.500044 M 25.99994 5.500044 L 29.000076 5.500044 M 30.000122 5.500044 L 30.999839 5.500044 M 2.000161 6.500089 L 2.999877 6.500089 M 3.999923 6.500089 L 7.00006 6.500089 M 8.000105 6.500089 L 9.000151 6.500089 M 10.999913 6.500089 L 13.000004 6.500089 M 16.000141 6.500089 L 16.999858 6.500089 M 17.999903 6.500089 L 19.999995 6.500089 M 21.00004 6.500089 L 22.000086 6.500089 M 23.999848 6.500089 L 24.999894 6.500089 M 25.99994 6.500089 L 29.000076 6.500089 M 30.000122 6.500089 L 30.999839 6.500089 M 2.000161 7.500135 L 2.999877 7.500135 M 8.000105 7.500135 L 9.000151 7.500135 M 11.999959 7.500135 L 16.000141 7.500135 M 16.999858 7.500135 L 23.000132 7.500135 M 23.999848 7.500135 L 24.999894 7.500135 M 30.000122 7.500135 L 30.999839 7.500135 M 2.000161 8.499852 L 9.000151 8.499852 M 9.999867 8.499852 L 10.999913 8.499852 M 11.999959 8.499852 L 13.000004 8.499852 M 14.00005 8.499852 L 15.000096 8.499852 M 16.000141 8.499852 L 16.999858 8.499852 M 17.999903 8.499852 L 18.999949 8.499852 M 19.999995 8.499852 L 21.00004 8.499852 M 22.000086 8.499852 L 23.000132 8.499852 M 23.999848 8.499852 L 30.999839 8.499852 M 9.999867 9.499897 L 10.999913 9.499897 M 13.000004 9.499897 L 15.000096 9.499897 M 16.999858 9.499897 L 22.000086 9.499897 M 2.000161 10.499943 L 2.999877 10.499943 M 3.999923 10.499943 L 6.000014 10.499943 M 7.00006 10.499943 L 9.999867 10.499943 M 13.000004 10.499943 L 14.00005 10.499943 M 15.000096 10.499943 L 16.000141 10.499943 M 16.999858 10.499943 L 17.999903 10.499943 M 18.999949 10.499943 L 21.00004 10.499943 M 23.999848 10.499943 L 24.999894 10.499943 M 26.999985 10.499943 L 28.000031 10.499943 M 29.000076 10.499943 L 30.999839 10.499943 M 3.999923 11.499989 L 4.999968 11.499989 M 7.00006 11.499989 L 8.000105 11.499989 M 9.000151 11.499989 L 9.999867 11.499989 M 13.000004 11.499989 L 14.00005 11.499989 M 15.000096 11.499989 L 17.999903 11.499989 M 18.999949 11.499989 L 19.999995 11.499989 M 21.00004 11.499989 L 26.999985 11.499989 M 30.000122 11.499989 L 30.999839 11.499989 M 6.000014 12.500034 L 7.00006 12.500034 M 8.000105 12.500034 L 9.000151 12.500034 M 11.999959 12.500034 L 13.000004 12.500034 M 15.000096 12.500034 L 16.000141 12.500034 M 17.999903 12.500034 L 19.999995 12.500034 M 23.000132 12.500034 L 23.999848 12.500034 M 25.99994 12.500034 L 26.999985 12.500034 M 28.000031 12.500034 L 30.000122 12.500034 M 3.999923 13.50008 L 6.000014 13.50008 M 7.00006 13.50008 L 8.000105 13.50008 M 9.000151 13.50008 L 11.999959 13.50008 M 13.000004 13.50008 L 15.000096 13.50008 M 17.999903 13.50008 L 18.999949 13.50008 M 19.999995 13.50008 L 22.000086 13.50008 M 23.000132 13.50008 L 23.999848 13.50008 M 30.000122 13.50008 L 30.999839 13.50008 M 2.000161 14.500125 L 7.00006 14.500125 M 8.000105 14.500125 L 9.000151 14.500125 M 9.999867 14.500125 L 10.999913 14.500125 M 11.999959 14.500125 L 13.000004 14.500125 M 14.00005 14.500125 L 15.000096 14.500125 M 16.000141 14.500125 L 17.999903 14.500125 M 18.999949 14.500125 L 22.000086 14.500125 M 24.999894 14.500125 L 25.99994 14.500125 M 26.999985 14.500125 L 29.000076 14.500125 M 2.000161 15.499842 L 2.999877 15.499842 M 3.999923 15.499842 L 4.999968 15.499842 M 6.000014 15.499842 L 8.000105 15.499842 M 9.000151 15.499842 L 10.999913 15.499842 M 14.00005 15.499842 L 15.000096 15.499842 M 16.000141 15.499842 L 16.999858 15.499842 M 17.999903 15.499842 L 18.999949 15.499842 M 21.00004 15.499842 L 22.000086 15.499842 M 23.000132 15.499842 L 24.999894 15.499842 M 28.000031 15.499842 L 30.999839 15.499842 M 2.999877 16.499888 L 4.999968 16.499888 M 8.000105 16.499888 L 9.999867 16.499888 M 13.000004 16.499888 L 16.000141 16.499888 M 16.999858 16.499888 L 22.000086 16.499888 M 23.999848 16.499888 L 24.999894 16.499888 M 28.000031 16.499888 L 30.999839 16.499888 M 2.000161 17.499933 L 3.999923 17.499933 M 4.999968 17.499933 L 6.000014 17.499933 M 7.00006 17.499933 L 8.000105 17.499933 M 9.000151 17.499933 L 9.999867 17.499933 M 11.999959 17.499933 L 15.000096 17.499933 M 16.000141 17.499933 L 16.999858 17.499933 M 17.999903 17.499933 L 18.999949 17.499933 M 19.999995 17.499933 L 22.000086 17.499933 M 23.000132 17.499933 L 24.999894 17.499933 M 29.000076 17.499933 L 30.000122 17.499933 M 2.999877 18.499979 L 4.999968 18.499979 M 8.000105 18.499979 L 9.999867 18.499979 M 10.999913 18.499979 L 11.999959 18.499979 M 13.000004 18.499979 L 15.000096 18.499979 M 16.000141 18.499979 L 17.999903 18.499979 M 19.999995 18.499979 L 21.00004 18.499979 M 22.000086 18.499979 L 23.999848 18.499979 M 24.999894 18.499979 L 28.000031 18.499979 M 29.000076 18.499979 L 30.000122 18.499979 M 6.000014 19.500025 L 7.00006 19.500025 M 9.000151 19.500025 L 9.999867 19.500025 M 11.999959 19.500025 L 13.000004 19.500025 M 16.000141 19.500025 L 16.999858 19.500025 M 17.999903 19.500025 L 19.999995 19.500025 M 22.000086 19.500025 L 23.000132 19.500025 M 24.999894 19.500025 L 25.99994 19.500025 M 26.999985 19.500025 L 30.000122 19.500025 M 2.000161 20.50007 L 2.999877 20.50007 M 6.000014 20.50007 L 9.999867 20.50007 M 10.999913 20.50007 L 11.999959 20.50007 M 13.000004 20.50007 L 14.00005 20.50007 M 15.000096 20.50007 L 19.999995 20.50007 M 23.000132 20.50007 L 23.999848 20.50007 M 28.000031 20.50007 L 29.000076 20.50007 M 4.999968 21.500116 L 7.00006 21.500116 M 9.999867 21.500116 L 16.999858 21.500116 M 17.999903 21.500116 L 21.00004 21.500116 M 22.000086 21.500116 L 23.999848 21.500116 M 25.99994 21.500116 L 26.999985 21.500116 M 28.000031 21.500116 L 29.000076 21.500116 M 2.999877 22.500161 L 3.999923 22.500161 M 4.999968 22.500161 L 7.00006 22.500161 M 8.000105 22.500161 L 9.000151 22.500161 M 15.000096 22.500161 L 16.999858 22.500161 M 17.999903 22.500161 L 21.00004 22.500161 M 22.000086 22.500161 L 29.000076 22.500161 M 9.999867 23.499878 L 10.999913 23.499878 M 14.00005 23.499878 L 15.000096 23.499878 M 17.999903 23.499878 L 23.000132 23.499878 M 25.99994 23.499878 L 30.999839 23.499878 M 2.000161 24.499924 L 9.000151 24.499924 M 9.999867 24.499924 L 11.999959 24.499924 M 13.000004 24.499924 L 15.000096 24.499924 M 16.000141 24.499924 L 16.999858 24.499924 M 19.999995 24.499924 L 23.000132 24.499924 M 23.999848 24.499924 L 24.999894 24.499924 M 25.99994 24.499924 L 28.000031 24.499924 M 29.000076 24.499924 L 30.000122 24.499924 M 2.000161 25.499969 L 2.999877 25.499969 M 8.000105 25.499969 L 9.000151 25.499969 M 9.999867 25.499969 L 10.999913 25.499969 M 11.999959 25.499969 L 13.000004 25.499969 M 14.00005 25.499969 L 17.999903 25.499969 M 21.00004 25.499969 L 23.000132 25.499969 M 25.99994 25.499969 L 28.000031 25.499969 M 30.000122 25.499969 L 30.999839 25.499969 M 2.000161 26.500015 L 2.999877 26.500015 M 3.999923 26.500015 L 7.00006 26.500015 M 8.000105 26.500015 L 9.000151 26.500015 M 10.999913 26.500015 L 11.999959 26.500015 M 18.999949 26.500015 L 19.999995 26.500015 M 22.000086 26.500015 L 26.999985 26.500015 M 28.000031 26.500015 L 30.000122 26.500015 M 2.000161 27.500061 L 2.999877 27.500061 M 3.999923 27.500061 L 7.00006 27.500061 M 8.000105 27.500061 L 9.000151 27.500061 M 9.999867 27.500061 L 10.999913 27.500061 M 11.999959 27.500061 L 14.00005 27.500061 M 15.000096 27.500061 L 16.000141 27.500061 M 16.999858 27.500061 L 18.999949 27.500061 M 21.00004 27.500061 L 23.999848 27.500061 M 24.999894 27.500061 L 28.000031 27.500061 M 30.000122 27.500061 L 30.999839 27.500061 M 2.000161 28.500106 L 2.999877 28.500106 M 3.999923 28.500106 L 7.00006 28.500106 M 8.000105 28.500106 L 9.000151 28.500106 M 9.999867 28.500106 L 10.999913 28.500106 M 13.000004 28.500106 L 14.00005 28.500106 M 15.000096 28.500106 L 16.000141 28.500106 M 19.999995 28.500106 L 21.00004 28.500106 M 24.999894 28.500106 L 25.99994 28.500106 M 28.000031 28.500106 L 29.000076 28.500106 M 30.000122 28.500106 L 30.999839 28.500106 M 2.000161 29.500152 L 2.999877 29.500152 M 8.000105 29.500152 L 9.000151 29.500152 M 10.999913 29.500152 L 13.000004 29.500152 M 15.000096 29.500152 L 16.000141 29.500152 M 16.999858 29.500152 L 17.999903 29.500152 M 19.999995 29.500152 L 21.00004 29.500152 M 22.000086 29.500152 L 23.000132 29.500152 M 25.99994 29.500152 L 28.000031 29.500152 M 29.000076 29.500152 L 30.000122 29.500152 M 2.000161 30.499868 L 9.000151 30.499868 M 9.999867 30.499868 L 10.999913 30.499868 M 11.999959 30.499868 L 14.00005 30.499868 M 16.000141 30.499868 L 17.999903 30.499868 M 19.999995 30.499868 L 23.000132 30.499868 M 24.999894 30.499868 L 25.99994 30.499868 M 26.999985 30.499868 L 28.000031 30.499868 M 29.000076 30.499868 L 30.000122 30.499868 " stroke="#000000" stroke-width="1" stroke-opacity="1" stroke-miterlimit="4"/></g></g></svg>